{"glyphs":{"0":{"ha":950,"x_min":65,"x_max":885,"o":"m 65 500 q 94 736 65 635 q 181 906 124 838 q 303 990 231 967 q 475 1014 376 1014 q 572 1008 529 1014 q 648 990 614 1003 q 711 957 682 978 q 769 906 740 936 q 856 736 826 838 q 885 500 885 635 q 855 264 885 365 q 769 94 825 163 q 711 43 740 64 q 648 10 682 22 q 572 -8 614 -3 q 475 -14 529 -14 q 303 10 376 -14 q 181 94 231 33 q 94 264 124 163 q 65 500 65 365 m 688 500 q 625 831 688 728 q 597 869 611 853 q 567 896 583 885 q 528 913 550 907 q 475 918 506 918 q 386 897 428 918 q 325 831 344 875 q 263 500 263 728 q 278 303 263 386 q 325 169 293 221 q 385 103 344 125 q 475 82 425 82 q 528 88 506 82 q 567 104 550 93 q 597 131 583 115 q 625 169 611 147 q 688 500 688 271 z "},"1":{"ha":578,"x_min":53,"x_max":554,"o":"m 229 858 l 53 858 l 53 950 q 110 954 78 950 q 174 967 143 958 q 231 987 206 975 q 269 1014 257 999 l 406 1014 l 406 104 l 554 78 l 554 0 l 53 0 l 53 78 l 229 104 l 229 858 z "},"2":{"ha":833,"x_min":57,"x_max":758,"o":"m 607 153 l 640 331 l 758 331 l 758 0 l 57 0 l 57 92 q 94 224 57 164 q 188 339 132 285 q 310 443 244 393 q 433 544 376 493 q 526 650 489 594 q 564 769 564 706 q 516 880 564 840 q 382 919 468 919 q 263 886 304 919 q 208 785 221 853 q 276 762 253 785 q 300 701 300 739 q 272 639 300 661 q 199 617 244 617 q 151 624 174 617 q 112 649 129 632 q 85 692 94 665 q 75 757 75 718 q 97 860 75 813 q 162 942 119 908 q 265 996 204 976 q 401 1015 325 1015 q 540 996 476 1015 q 649 941 603 976 q 720 856 694 906 q 746 743 746 806 q 706 597 746 663 q 607 478 667 532 q 478 379 547 424 q 350 296 410 335 q 251 222 290 257 q 211 153 211 188 l 607 153 z "},"3":{"ha":819,"x_min":60,"x_max":753,"o":"m 738 751 q 724 670 738 708 q 685 602 711 632 q 623 551 660 572 q 540 522 586 531 l 540 517 q 703 429 653 493 q 753 278 753 365 q 724 153 753 207 q 644 62 694 99 q 526 6 593 25 q 385 -14 460 -14 q 247 6 307 -14 q 144 59 186 25 q 81 140 103 93 q 60 243 60 188 q 90 347 60 307 q 182 386 119 386 q 258 361 232 386 q 285 300 285 336 q 260 240 285 264 q 193 217 235 217 q 247 116 204 150 q 368 82 289 82 q 510 126 458 82 q 561 258 561 171 q 494 416 561 358 q 308 474 426 474 l 308 561 q 410 576 364 561 q 489 617 457 590 q 539 683 521 644 q 557 767 557 721 q 509 882 557 844 q 379 919 461 919 q 213 799 231 919 q 280 776 256 799 q 304 718 304 754 q 281 658 304 683 q 204 632 257 632 q 104 673 138 632 q 71 776 71 714 q 94 873 71 829 q 159 949 117 917 q 260 998 201 981 q 393 1015 319 1015 q 531 997 468 1015 q 640 943 594 978 q 712 860 686 908 q 738 751 738 811 z "},"4":{"ha":796,"x_min":13,"x_max":761,"o":"m 433 275 l 33 275 l 13 357 l 458 1014 l 610 1014 l 610 375 l 761 375 l 747 275 l 610 275 l 610 104 l 717 78 l 717 0 l 299 0 l 299 78 l 433 104 l 433 275 m 150 375 l 433 375 l 433 817 l 150 375 z "},"5":{"ha":786,"x_min":57,"x_max":738,"o":"m 642 847 l 264 847 l 221 565 q 308 611 261 596 q 417 626 356 626 q 548 605 489 626 q 649 542 607 583 q 715 444 692 501 q 738 315 738 386 q 713 181 738 242 q 642 76 689 119 q 530 10 596 33 q 381 -14 464 -14 q 244 4 304 -14 q 143 53 185 22 q 79 126 101 85 q 57 213 57 167 q 68 277 57 249 q 97 326 79 306 q 138 356 114 346 q 186 367 161 367 q 264 342 243 367 q 285 283 285 317 q 260 224 285 250 q 192 197 236 197 q 242 114 201 149 q 363 79 282 79 q 498 142 450 79 q 546 308 546 204 q 504 469 546 410 q 376 529 463 529 q 208 460 263 529 l 106 501 l 179 1000 l 579 1000 l 604 1044 l 704 1044 l 642 847 z "},"6":{"ha":850,"x_min":67,"x_max":788,"o":"m 246 488 q 350 568 285 539 q 492 597 415 597 q 613 575 558 597 q 706 513 667 553 q 766 417 744 474 q 788 292 788 360 q 699 67 788 149 q 456 -14 610 -14 q 162 105 257 -14 q 67 472 67 224 q 165 877 67 739 q 465 1015 264 1015 q 582 999 529 1015 q 672 951 635 982 q 731 876 710 919 q 751 782 751 833 q 726 690 751 724 q 639 657 700 657 q 554 683 582 657 q 526 750 526 710 q 551 812 526 789 q 618 835 576 835 q 572 896 610 874 q 478 918 533 918 q 294 831 351 918 q 238 553 238 744 q 238 519 238 533 q 240 488 238 506 l 246 488 m 597 292 q 433 497 597 497 q 313 446 357 497 q 269 292 269 394 q 313 135 269 188 q 433 83 357 83 q 597 292 597 83 z "},"7":{"ha":733,"x_min":44,"x_max":724,"o":"m 394 82 q 375 10 394 33 q 296 -14 356 -14 q 228 13 247 -14 q 210 83 210 39 q 235 254 210 156 q 306 458 261 353 q 411 666 351 564 q 539 847 471 768 l 185 847 l 158 685 l 44 685 l 44 1000 l 724 1000 l 724 894 q 594 714 654 813 q 489 509 533 615 q 419 294 444 403 q 394 82 394 185 z "},"8":{"ha":807,"x_min":60,"x_max":749,"o":"m 703 790 q 663 649 703 715 q 551 540 624 583 q 702 421 656 483 q 749 274 749 358 q 722 154 749 207 q 648 64 696 101 q 533 6 600 26 q 383 -14 465 -14 q 144 55 229 -14 q 60 249 60 124 q 105 403 60 336 q 247 525 150 469 q 138 633 169 581 q 106 760 106 686 q 181 947 106 879 q 406 1015 257 1015 q 527 1001 472 1015 q 621 958 582 986 q 681 887 660 929 q 703 790 703 844 m 343 465 q 235 377 272 426 q 199 254 199 328 q 249 124 199 167 q 385 82 300 82 q 520 122 469 82 q 571 233 571 163 q 560 289 571 264 q 522 340 549 314 q 452 396 496 367 q 343 465 408 425 m 479 593 q 549 674 521 622 q 578 782 578 726 q 534 885 578 850 q 418 919 490 919 q 307 888 349 919 q 265 797 265 857 q 275 745 265 771 q 310 694 285 719 q 376 644 335 669 q 479 593 417 619 z "},"9":{"ha":849,"x_min":61,"x_max":782,"o":"m 603 514 q 499 433 564 463 q 357 404 433 404 q 236 426 290 404 q 143 488 182 449 q 83 584 104 528 q 61 710 61 640 q 85 837 61 781 q 153 933 110 893 q 260 994 197 972 q 399 1015 322 1015 q 689 896 596 1015 q 782 529 782 776 q 683 124 782 263 q 383 -14 585 -14 q 267 3 319 -14 q 176 51 214 19 q 118 124 139 82 q 97 219 97 167 q 125 309 97 274 q 210 344 153 344 q 294 318 267 344 q 322 251 322 292 q 297 190 322 213 q 231 167 272 167 q 277 106 239 128 q 371 83 315 83 q 554 170 497 83 q 611 449 611 257 q 611 482 611 468 q 608 514 611 496 l 603 514 m 251 710 q 415 504 251 504 q 535 556 492 504 q 579 710 579 607 q 535 866 579 814 q 415 918 492 918 q 251 710 251 918 z "}," ":{"ha":328,"x_min":0,"x_max":0,"o":""},"c":{"ha":758,"x_min":51,"x_max":721,"o":"m 417 764 q 535 749 481 764 q 628 705 589 733 q 690 636 668 676 q 713 547 713 596 q 679 452 713 485 q 597 419 646 419 q 551 428 569 419 q 522 452 533 438 q 505 485 510 467 q 500 521 500 503 q 517 581 500 556 q 569 617 535 606 q 511 657 550 642 q 424 672 472 672 q 345 657 379 672 q 288 608 311 642 q 251 517 264 574 q 239 379 239 461 q 249 261 239 304 q 275 186 258 218 q 332 123 297 146 q 421 100 367 100 q 480 107 449 100 q 541 127 511 114 q 598 161 571 140 q 646 211 625 182 l 721 153 q 570 24 656 63 q 388 -14 485 -14 q 213 26 283 -14 q 101 142 142 65 q 65 244 78 186 q 51 368 51 301 q 76 531 51 458 q 148 656 101 604 q 263 736 194 708 q 417 764 331 764 z "},"d":{"ha":883,"x_min":53,"x_max":857,"o":"m 53 374 q 78 545 53 465 q 147 674 103 625 q 368 764 229 764 q 483 740 433 764 q 574 656 533 717 l 574 979 l 467 1006 l 467 1083 l 750 1083 l 750 104 l 857 78 l 857 0 l 600 -14 l 589 100 q 492 10 546 35 q 365 -14 438 -14 q 237 9 289 -14 q 149 74 185 32 q 79 200 106 122 q 53 374 53 278 m 574 369 q 560 509 574 450 q 526 600 546 568 q 399 669 483 669 q 331 656 365 669 q 276 606 296 642 q 249 515 258 572 q 240 386 240 457 q 251 246 240 306 q 279 154 263 186 q 332 99 299 118 q 406 79 365 79 q 471 94 438 79 q 526 143 504 108 q 561 238 549 179 q 574 369 574 296 z "},"e":{"ha":772,"x_min":53,"x_max":724,"o":"m 235 356 q 263 199 235 261 q 415 100 307 100 q 538 127 478 100 q 640 211 597 154 l 715 153 q 584 35 667 83 q 381 -14 501 -14 q 205 27 278 -14 q 93 147 132 68 q 63 242 72 190 q 53 357 53 294 q 142 658 53 551 q 396 764 231 764 q 532 741 471 764 q 635 676 593 718 q 701 572 678 633 q 724 432 724 510 q 723 402 724 417 q 719 356 722 388 l 235 356 m 393 668 q 236 444 250 668 l 542 444 l 542 481 q 503 619 542 571 q 393 668 464 668 z "},"f":{"ha":540,"x_min":24,"x_max":638,"o":"m 24 728 l 158 747 l 158 785 q 239 1016 158 935 q 457 1097 319 1097 q 589 1058 540 1097 q 638 957 638 1018 q 615 888 638 913 q 551 864 592 864 q 483 885 507 864 q 458 947 458 907 q 481 999 458 976 q 439 1024 465 1024 q 394 1013 413 1024 q 360 976 372 997 q 342 931 347 956 q 335 877 336 906 q 335 819 335 849 l 335 750 l 513 750 l 513 639 l 335 639 l 335 104 l 485 78 l 485 0 l 51 0 l 51 78 l 158 104 l 158 639 l 24 639 l 24 728 z "},"h":{"ha":914,"x_min":26,"x_max":897,"o":"m 614 372 q 613 449 614 417 q 609 506 611 482 q 602 547 607 531 q 592 576 597 564 q 469 644 557 644 q 394 625 431 644 q 338 569 358 606 q 318 518 326 550 q 310 439 310 486 l 310 104 l 403 78 l 403 0 l 26 0 l 26 78 l 133 104 l 133 979 l 26 1006 l 26 1083 l 310 1083 l 310 619 q 405 725 346 686 q 535 764 464 764 q 635 749 594 764 q 707 703 676 735 q 770 584 750 658 q 790 390 790 510 l 790 104 l 897 78 l 897 0 l 521 0 l 521 78 l 614 104 l 614 372 z "},"i":{"ha":460,"x_min":43,"x_max":433,"o":"m 43 672 l 43 750 l 326 750 l 326 104 l 433 78 l 433 0 l 43 0 l 43 78 l 150 104 l 150 646 l 43 672 m 135 961 q 162 1033 135 1006 q 238 1061 189 1061 q 314 1033 286 1061 q 342 961 342 1006 q 315 890 342 917 q 238 863 288 863 q 161 890 188 863 q 135 961 135 917 z "},"j":{"ha":417,"x_min":-124,"x_max":332,"o":"m 313 118 q 306 -44 313 15 q 282 -140 300 -103 q 200 -235 250 -207 q 75 -264 150 -264 q -69 -231 -14 -264 q -124 -132 -124 -197 q -99 -62 -124 -92 q -26 -32 -74 -32 q 38 -57 14 -32 q 63 -118 63 -82 q 56 -148 63 -133 q 38 -171 50 -162 q 55 -189 40 -186 q 75 -192 69 -192 q 121 -153 106 -192 q 136 -12 136 -114 l 136 646 l 29 672 l 29 750 l 313 750 l 313 118 m 125 961 q 152 1033 125 1006 q 228 1061 179 1061 q 304 1033 276 1061 q 332 961 332 1006 q 305 890 332 917 q 228 863 278 863 q 151 890 178 863 q 125 961 125 917 z "},"k":{"ha":846,"x_min":26,"x_max":835,"o":"m 571 104 l 388 349 l 310 283 l 310 104 l 417 78 l 417 0 l 26 0 l 26 78 l 133 104 l 133 979 l 26 1006 l 26 1083 l 310 1083 l 310 392 l 546 647 l 474 672 l 474 750 l 814 750 l 814 672 l 692 646 l 501 451 l 761 101 l 835 78 l 835 0 l 489 0 l 489 78 l 571 104 z "},"l":{"ha":453,"x_min":31,"x_max":421,"o":"m 138 978 l 31 1004 l 31 1083 l 314 1083 l 314 106 l 421 79 l 421 0 l 31 0 l 31 79 l 138 106 l 138 978 z "},"m":{"ha":1382,"x_min":43,"x_max":1361,"o":"m 150 646 l 43 672 l 43 750 l 285 750 l 315 611 l 321 611 q 428 723 361 682 q 572 764 496 764 q 674 742 631 764 q 739 689 718 721 q 775 597 761 654 q 890 720 819 676 q 1042 764 961 764 q 1142 742 1097 764 q 1210 683 1186 721 q 1231 636 1222 664 q 1244 567 1239 608 q 1252 471 1250 526 q 1254 340 1254 415 l 1254 104 l 1361 78 l 1361 0 l 985 0 l 985 78 l 1078 104 l 1078 372 q 1076 449 1078 417 q 1072 506 1075 482 q 1065 547 1069 531 q 1056 576 1061 564 q 1019 623 1042 610 q 971 636 996 636 q 907 626 935 636 q 853 593 879 617 q 808 528 822 565 q 790 433 793 492 l 790 104 l 883 78 l 883 0 l 521 0 l 521 78 l 614 104 l 614 372 q 613 449 614 417 q 608 506 611 482 q 601 547 606 531 q 592 576 597 564 q 555 623 578 610 q 507 636 532 636 q 443 626 471 636 q 389 593 415 617 q 344 528 358 565 q 326 433 329 492 l 326 104 l 419 78 l 419 0 l 43 0 l 43 78 l 150 104 l 150 646 z "},"n":{"ha":936,"x_min":43,"x_max":914,"o":"m 150 646 l 43 672 l 43 750 l 285 750 l 315 611 l 321 611 q 433 723 363 682 q 585 764 503 764 q 685 744 640 764 q 756 689 729 725 q 795 580 783 650 q 807 390 807 510 l 807 104 l 914 78 l 914 0 l 538 0 l 538 78 l 631 104 l 631 372 q 626 502 631 456 q 608 576 621 549 q 567 626 593 613 q 504 640 540 640 q 389 596 436 640 q 326 433 332 543 l 326 104 l 419 78 l 419 0 l 43 0 l 43 78 l 150 104 l 150 646 z "},"o":{"ha":825,"x_min":51,"x_max":774,"o":"m 774 375 q 748 208 774 286 q 674 76 722 129 q 564 7 628 28 q 413 -14 500 -14 q 261 7 325 -14 q 151 76 197 28 q 77 208 103 129 q 51 375 51 286 q 77 542 51 464 q 151 674 103 621 q 261 743 197 722 q 413 764 325 764 q 564 743 500 764 q 674 674 628 722 q 748 542 722 621 q 774 375 774 464 m 286 135 q 413 79 324 79 q 539 135 501 79 q 583 375 583 203 q 539 615 583 547 q 413 671 501 671 q 286 615 324 671 q 242 375 242 547 q 286 135 242 203 z "},"œ":{"ha":1296,"x_min":51,"x_max":1246,"o":"m 410 764 q 490 756 450 764 q 564 731 529 747 q 626 688 599 714 q 671 624 654 661 l 676 624 q 772 728 711 692 q 924 764 832 764 q 1166 676 1086 764 q 1246 432 1246 588 q 1245 401 1246 418 q 1242 356 1244 383 l 757 356 q 764 267 757 303 q 785 199 771 231 q 846 123 806 146 q 933 100 886 100 q 1053 127 1000 100 q 1150 201 1107 154 l 1236 147 q 1177 85 1208 114 q 1108 33 1146 56 q 1022 -1 1069 11 q 911 -14 974 -14 q 836 -6 874 -14 q 767 19 799 3 q 712 60 736 36 q 676 118 688 85 l 671 118 q 558 19 635 53 q 392 -14 481 -14 q 253 8 315 -14 q 150 74 192 29 q 77 201 103 125 q 51 365 51 276 q 78 539 51 457 q 154 674 104 621 q 265 742 199 721 q 410 764 332 764 m 242 381 q 256 247 242 303 q 292 153 271 190 q 343 99 311 118 q 413 79 375 79 q 535 144 488 79 q 572 235 560 176 q 583 371 583 294 q 570 504 583 447 q 533 597 557 561 q 481 651 510 632 q 411 671 453 671 q 342 654 376 671 q 292 607 308 638 q 256 515 269 571 q 242 381 242 458 m 917 668 q 808 615 851 668 q 758 444 765 561 l 1064 444 l 1064 481 q 1052 560 1064 525 q 1019 619 1040 594 q 972 656 999 643 q 917 668 946 668 z "},"p":{"ha":882,"x_min":26,"x_max":829,"o":"m 444 -172 l 444 -250 l 26 -250 l 26 -172 l 133 -146 l 133 646 l 26 672 l 26 750 l 268 750 l 289 643 q 390 738 333 713 q 517 764 446 764 q 645 743 588 764 q 739 676 703 722 q 805 550 781 624 q 829 389 829 476 q 802 222 829 300 q 729 90 775 143 q 506 0 651 0 q 398 22 446 0 q 310 103 350 44 l 310 -146 l 444 -172 m 308 389 q 321 257 308 313 q 354 167 333 201 q 407 113 375 132 q 483 93 439 93 q 553 111 526 93 q 597 158 581 129 q 630 251 618 194 q 642 375 642 308 q 629 507 642 446 q 596 606 617 568 q 544 656 575 642 q 475 669 514 669 q 353 606 393 669 q 321 519 333 574 q 308 389 308 465 z "},"q":{"ha":854,"x_min":53,"x_max":857,"o":"m 574 93 q 483 20 533 40 q 371 0 433 0 q 243 21 300 0 q 149 88 186 42 q 78 214 104 140 q 53 375 53 288 q 78 542 53 464 q 147 674 103 621 q 240 741 183 718 q 371 764 297 764 q 501 730 444 764 q 601 607 557 696 l 643 750 l 750 750 l 750 -146 l 857 -172 l 857 -250 l 439 -250 l 439 -172 l 574 -146 l 574 93 m 574 376 q 525 597 574 528 q 399 669 481 669 q 331 655 365 669 q 276 606 297 640 q 247 515 254 569 q 240 386 240 461 q 276 167 240 240 q 329 108 297 124 q 397 93 361 93 q 476 109 446 93 q 525 157 506 125 q 560 247 547 193 q 574 376 574 301 z "},"r":{"ha":658,"x_min":40,"x_max":650,"o":"m 458 649 q 432 638 446 649 q 405 610 418 626 q 381 574 392 593 q 365 542 371 556 q 336 444 349 493 q 324 322 324 394 l 324 104 l 474 78 l 474 0 l 40 0 l 40 78 l 147 104 l 147 667 l 40 693 l 40 750 l 282 750 l 313 567 l 318 567 q 403 713 350 663 q 524 764 457 764 q 614 730 578 764 q 650 639 650 696 q 625 563 650 597 q 554 529 600 529 q 474 555 497 529 q 451 611 451 581 q 453 627 451 621 q 458 649 454 633 z "},"s":{"ha":717,"x_min":51,"x_max":668,"o":"m 338 71 q 403 78 372 71 q 456 97 433 85 q 492 128 479 110 q 506 171 506 147 q 488 219 506 199 q 442 256 471 240 q 378 283 414 271 q 308 306 343 294 q 224 337 265 318 q 151 384 183 356 q 99 451 118 413 q 79 543 79 490 q 151 703 79 643 q 358 764 224 764 q 474 750 422 764 q 561 710 525 736 q 617 649 597 685 q 638 572 638 614 q 612 499 638 524 q 542 474 586 474 q 472 495 497 474 q 447 546 447 517 q 461 591 447 569 q 497 624 475 613 q 445 665 478 650 q 364 679 413 679 q 267 652 299 679 q 235 576 235 625 q 271 494 235 521 q 368 449 307 467 q 478 414 424 432 q 574 369 532 396 q 642 305 617 343 q 668 213 668 267 q 642 116 668 158 q 572 45 617 74 q 465 1 526 17 q 333 -14 404 -14 q 126 35 200 -14 q 51 167 51 83 q 83 256 51 224 q 160 288 115 288 q 222 269 193 288 q 250 215 250 250 q 235 167 250 190 q 200 132 219 143 q 246 90 214 110 q 338 71 278 71 z "},"b":{"ha":854,"x_min":-3,"x_max":801,"o":"m 801 382 q 775 210 801 290 q 701 76 749 131 q 478 -14 624 -14 q 351 19 407 -14 q 253 140 296 51 l 211 0 l 104 0 l 104 979 l -3 1006 l -3 1083 l 281 1083 l 281 669 q 374 743 322 722 q 489 764 425 764 q 617 743 560 764 q 711 676 675 722 q 778 547 754 624 q 801 382 801 471 m 281 375 q 294 239 281 292 q 329 153 308 186 q 382 99 351 118 q 457 79 413 79 q 527 98 501 79 q 571 146 553 117 q 603 233 592 182 q 614 356 614 283 q 602 497 614 435 q 572 597 590 558 q 528 652 556 633 q 456 671 500 671 q 384 657 418 671 q 329 607 350 643 q 294 515 308 571 q 281 375 281 458 z "},"t":{"ha":507,"x_min":7,"x_max":496,"o":"m 7 731 l 143 750 l 160 922 l 318 944 l 318 750 l 496 750 l 496 660 l 318 660 l 318 206 q 319 141 318 158 q 325 113 321 124 q 340 100 329 104 q 376 96 351 96 l 474 96 l 474 35 q 331 -2 393 10 q 233 -14 269 -14 q 153 38 171 -14 q 144 80 146 54 q 142 158 142 106 l 142 660 l 7 660 l 7 731 z "},"u":{"ha":906,"x_min":33,"x_max":879,"o":"m 303 378 q 303 301 303 333 q 306 244 304 268 q 312 203 308 219 q 319 174 315 186 q 356 123 331 140 q 408 106 382 106 q 476 119 446 106 q 533 157 507 133 q 578 222 564 185 q 596 317 593 258 l 596 646 l 475 672 l 475 750 l 772 750 l 772 104 l 879 78 l 879 0 l 622 -14 l 607 139 l 601 139 q 492 27 561 68 q 343 -14 422 -14 q 247 6 290 -14 q 178 61 203 25 q 138 170 150 100 q 126 360 126 240 l 126 646 l 33 672 l 33 750 l 303 750 l 303 378 z "},"v":{"ha":839,"x_min":8,"x_max":832,"o":"m 326 -14 l 86 647 l 8 674 l 8 751 l 361 751 l 361 674 l 269 647 l 436 138 l 442 138 l 613 646 l 526 672 l 526 750 l 832 750 l 832 672 l 751 646 l 511 -14 l 326 -14 z "},"w":{"ha":1233,"x_min":11,"x_max":1221,"o":"m 386 208 l 400 126 l 407 126 l 422 208 l 567 764 l 708 764 l 857 210 l 871 128 l 876 128 l 893 210 l 1006 644 l 915 671 l 915 749 l 1221 749 l 1221 671 l 1146 644 l 946 -14 l 761 -14 l 617 488 l 476 -14 l 292 -14 l 85 644 l 11 671 l 11 749 l 364 749 l 364 671 l 268 644 l 386 208 z "},"x":{"ha":797,"x_min":21,"x_max":785,"o":"m 421 474 l 547 646 l 464 672 l 464 750 l 767 750 l 767 672 l 688 646 l 479 399 l 708 103 l 785 78 l 785 0 l 439 0 l 439 78 l 518 104 l 376 286 l 242 104 l 325 78 l 325 0 l 22 0 l 22 78 l 100 104 l 319 361 l 99 646 l 21 672 l 21 750 l 350 750 l 350 672 l 289 646 l 421 474 z "},"y":{"ha":833,"x_min":-1,"x_max":819,"o":"m 511 33 q 448 -104 476 -47 q 388 -197 419 -161 q 319 -248 357 -232 q 228 -264 282 -264 q 166 -255 194 -264 q 116 -229 138 -246 q 82 -190 94 -212 q 69 -142 69 -168 q 98 -62 69 -93 q 172 -31 126 -31 q 234 -49 213 -31 q 256 -103 256 -67 q 252 -120 256 -110 q 241 -141 249 -131 q 221 -158 233 -151 q 192 -165 208 -165 q 208 -184 194 -179 q 232 -189 221 -189 q 259 -185 246 -189 q 285 -169 272 -182 q 313 -130 299 -156 q 344 -61 328 -104 l 361 -10 l 82 646 l -1 672 l -1 750 l 351 750 l 363 672 l 264 646 l 435 164 l 440 164 l 594 646 l 514 672 l 514 750 l 819 750 l 819 672 l 735 646 l 511 33 z "},"z":{"ha":775,"x_min":54,"x_max":711,"o":"m 590 288 l 711 288 l 711 0 l 54 0 l 54 99 l 489 651 l 226 651 l 193 469 l 72 469 l 72 750 l 706 750 l 706 651 l 272 99 l 563 99 l 590 288 z "},"g":{"ha":799,"x_min":29,"x_max":797,"o":"m 733 -8 q 642 -196 733 -136 q 350 -256 550 -256 q 225 -247 283 -256 q 123 -217 167 -237 q 54 -162 79 -196 q 29 -81 29 -129 q 69 22 29 -17 q 189 64 110 61 l 189 69 q 83 175 83 99 q 91 219 83 196 q 116 262 99 242 q 160 297 133 282 q 226 318 188 313 q 110 392 151 336 q 69 525 69 449 q 144 700 69 636 q 360 764 218 764 q 441 760 406 764 q 505 747 476 756 q 556 727 533 739 q 599 700 578 715 l 646 717 l 774 778 l 797 778 l 797 635 l 774 635 l 676 646 l 642 646 q 669 533 669 603 q 599 353 669 419 q 394 288 529 288 q 366 288 379 288 q 339 290 353 289 q 252 266 285 283 q 219 217 219 249 q 245 183 219 192 q 342 174 271 174 l 503 174 q 733 -8 733 174 m 351 46 q 217 17 258 46 q 175 -60 175 -12 q 374 -165 175 -165 q 536 -135 481 -165 q 592 -43 592 -104 q 549 26 592 6 q 400 46 506 46 l 351 46 m 233 531 q 267 411 233 451 q 363 371 300 371 q 472 411 438 371 q 506 531 506 451 q 472 642 506 604 q 363 679 438 679 q 267 642 300 679 q 233 531 233 604 z "},"I":{"ha":542,"x_min":50,"x_max":492,"o":"m 361 110 l 492 81 l 492 0 l 50 0 l 50 81 l 181 110 l 181 890 l 50 919 l 50 1000 l 492 1000 l 492 919 l 361 890 l 361 110 z "},"H":{"ha":1138,"x_min":57,"x_max":1081,"o":"m 964 110 l 1081 81 l 1081 0 l 667 0 l 667 81 l 783 110 l 783 463 l 354 463 l 354 110 l 471 81 l 471 0 l 57 0 l 57 81 l 174 110 l 174 890 l 57 919 l 57 1000 l 471 1000 l 471 919 l 354 890 l 354 564 l 783 564 l 783 890 l 667 919 l 667 1000 l 1081 1000 l 1081 919 l 964 890 l 964 110 z "},"O":{"ha":1075,"x_min":60,"x_max":1015,"o":"m 1015 511 q 982 288 1015 394 q 876 107 949 182 q 734 15 817 44 q 533 -14 651 -14 q 333 15 415 -14 q 193 103 250 44 q 96 266 132 165 q 60 489 60 367 q 96 717 60 611 q 199 893 132 822 q 338 985 257 956 q 538 1014 419 1014 q 734 987 650 1014 q 881 897 818 960 q 984 723 953 825 q 1015 511 1015 621 m 261 515 q 281 324 261 407 q 336 188 301 240 q 419 110 369 136 q 542 83 468 83 q 739 175 672 83 q 794 302 775 224 q 814 492 814 381 q 794 682 814 601 q 738 815 774 763 q 649 893 701 868 q 532 918 597 918 q 418 894 465 918 q 339 826 371 869 q 261 515 261 724 z "},"D":{"ha":1082,"x_min":57,"x_max":1022,"o":"m 528 104 q 656 127 603 104 q 744 196 708 150 q 801 316 782 243 q 821 492 821 389 q 744 793 821 689 q 651 870 707 844 q 514 896 594 896 l 354 896 l 354 104 l 528 104 m 565 1000 q 888 883 772 1000 q 988 719 953 817 q 1022 511 1022 622 q 986 292 1022 393 q 883 121 950 190 q 744 29 825 58 q 553 0 664 0 l 57 0 l 57 81 l 174 110 l 174 890 l 57 919 l 57 1000 l 565 1000 z "},"E":{"ha":969,"x_min":50,"x_max":904,"o":"m 575 331 l 551 461 l 361 461 l 361 104 l 743 104 l 782 310 l 904 310 l 904 0 l 50 0 l 50 81 l 181 110 l 181 890 l 50 919 l 50 1000 l 874 1000 l 874 706 l 760 706 l 719 899 l 361 899 l 361 565 l 551 565 l 575 697 l 688 697 l 688 331 l 575 331 z "},"P":{"ha":896,"x_min":57,"x_max":872,"o":"m 485 483 q 558 495 524 483 q 611 526 592 507 q 658 594 639 554 q 678 685 678 633 q 659 774 678 731 q 611 849 640 818 q 553 885 588 872 q 479 899 519 899 l 354 899 l 354 483 l 485 483 m 354 382 l 354 110 l 486 81 l 486 0 l 57 0 l 57 81 l 174 110 l 174 890 l 57 919 l 57 1000 l 558 1000 q 677 983 624 1000 q 767 933 731 965 q 844 829 815 889 q 872 703 872 769 q 842 564 872 633 q 764 451 813 494 q 674 398 728 414 q 557 382 619 382 l 354 382 z "},"T":{"ha":936,"x_min":33,"x_max":903,"o":"m 903 1000 l 903 688 l 814 688 l 769 896 l 558 896 l 558 114 l 706 81 l 706 0 l 231 0 l 231 81 l 378 114 l 378 896 l 165 896 l 122 688 l 33 688 l 33 1000 l 903 1000 z "},"R":{"ha":996,"x_min":57,"x_max":997,"o":"m 786 531 q 730 493 761 511 q 650 464 699 475 q 672 440 657 457 q 701 399 686 422 l 874 107 l 997 81 l 997 0 l 669 0 l 669 81 l 488 438 l 354 438 l 354 110 l 486 81 l 486 0 l 57 0 l 57 81 l 174 110 l 174 890 l 57 919 l 57 1000 l 576 1000 q 693 988 643 1000 q 783 947 743 975 q 863 854 833 911 q 892 739 892 797 q 863 624 892 681 q 786 531 835 568 m 511 539 q 638 582 588 539 q 681 645 665 606 q 697 731 697 685 q 681 806 697 772 q 636 863 664 839 q 506 899 590 899 l 354 899 l 354 539 l 511 539 z "},"F":{"ha":903,"x_min":51,"x_max":875,"o":"m 576 315 l 553 446 l 363 446 l 363 114 l 525 88 l 525 0 l 51 0 l 51 81 l 182 114 l 182 890 l 51 919 l 51 1000 l 875 1000 l 875 703 l 758 703 l 714 899 l 363 899 l 363 550 l 553 550 l 576 682 l 689 682 l 689 315 l 576 315 z "},"L":{"ha":896,"x_min":50,"x_max":863,"o":"m 361 104 l 697 104 l 744 344 l 863 344 l 863 0 l 50 0 l 50 81 l 181 110 l 181 890 l 50 919 l 50 1000 l 506 1000 l 506 919 l 361 890 l 361 104 z "},"Q":{"ha":1075,"x_min":60,"x_max":1015,"o":"m 1015 511 q 979 283 1015 389 q 876 107 943 178 q 756 23 824 51 q 601 -12 688 -6 l 601 -18 l 736 -110 q 790 -135 761 -126 q 849 -143 819 -143 q 892 -135 875 -143 q 932 -103 908 -126 l 963 -158 q 885 -234 933 -211 q 769 -257 836 -257 q 633 -231 692 -257 q 543 -151 575 -204 l 460 -11 q 193 103 290 1 q 94 270 129 169 q 60 489 60 371 q 96 717 60 611 q 199 893 132 822 q 342 985 261 957 q 538 1014 424 1014 q 735 986 650 1014 q 881 897 819 958 q 981 730 947 831 q 1015 511 1015 629 m 261 519 q 281 323 261 408 q 336 186 300 238 q 540 83 397 83 q 738 175 675 83 q 814 492 814 272 q 794 682 814 600 q 738 815 775 764 q 533 918 672 918 q 338 826 401 918 q 261 519 261 733 z "},"C":{"ha":969,"x_min":60,"x_max":928,"o":"m 524 918 q 423 896 471 918 q 346 832 375 874 q 283 697 308 778 q 257 517 257 617 q 278 331 257 417 q 336 188 299 246 q 418 117 367 139 q 536 96 469 96 q 810 331 769 96 l 928 331 q 790 71 893 156 q 506 -14 686 -14 q 200 97 314 -14 q 96 265 132 164 q 60 490 60 365 q 106 744 60 631 q 235 926 151 857 q 514 1014 340 1014 q 591 1009 557 1014 q 654 992 625 1004 q 709 961 683 981 q 761 913 735 942 l 789 1000 l 907 1000 l 907 672 l 781 672 q 694 856 761 794 q 524 918 626 918 z "},"G":{"ha":1063,"x_min":60,"x_max":1040,"o":"m 525 97 q 693 156 643 97 q 743 331 743 214 l 743 386 l 626 415 l 626 499 l 1040 499 l 1040 415 l 924 386 l 924 0 l 810 0 l 775 110 q 650 15 714 43 q 499 -14 586 -14 q 194 103 308 -14 q 94 268 129 169 q 60 489 60 367 q 97 718 60 613 q 200 894 133 824 q 334 984 257 954 q 518 1014 411 1014 q 593 1008 560 1014 q 655 991 626 1003 q 709 960 683 979 q 761 914 735 942 l 789 1000 l 907 1000 l 907 672 l 781 672 q 699 851 761 785 q 524 918 636 918 q 419 897 461 918 q 347 838 378 876 q 282 694 308 779 q 256 508 256 608 q 280 320 256 410 q 349 169 304 231 q 423 115 376 132 q 525 97 469 97 z "},"B":{"ha":968,"x_min":57,"x_max":914,"o":"m 867 760 q 853 683 867 719 q 814 619 839 647 q 755 572 789 590 q 681 547 721 553 l 681 542 q 851 449 789 518 q 914 279 914 381 q 873 135 914 200 q 769 38 832 69 q 727 21 750 28 q 674 9 704 14 q 604 2 643 4 q 514 0 565 0 l 57 0 l 57 81 l 174 110 l 174 890 l 57 919 l 57 1000 l 565 1000 q 790 929 711 1000 q 847 851 826 896 q 867 760 867 807 m 354 471 l 354 104 l 465 104 q 568 111 529 104 q 633 133 607 118 q 694 195 671 153 q 718 293 718 238 q 700 375 718 342 q 654 431 682 408 q 590 460 629 450 q 490 471 551 471 l 354 471 m 354 572 l 486 572 q 629 621 583 572 q 665 670 650 640 q 681 739 681 700 q 665 808 681 778 q 629 857 650 838 q 492 899 588 899 l 354 899 l 354 572 z "},"Z":{"ha":915,"x_min":39,"x_max":863,"o":"m 742 331 l 863 331 l 863 0 l 39 0 l 39 85 l 615 896 l 240 896 l 196 685 l 82 685 l 82 1000 l 831 1000 l 831 915 l 254 104 l 697 104 l 742 331 z "},"J":{"ha":829,"x_min":11,"x_max":783,"o":"m 493 890 l 356 919 l 356 1000 l 783 1000 l 783 919 l 674 890 l 674 303 q 650 172 674 231 q 583 72 626 114 q 480 8 540 31 q 346 -15 419 -15 q 210 3 271 -15 q 104 54 149 21 q 35 133 60 88 q 11 236 11 179 q 39 340 11 300 q 122 381 67 381 q 201 353 171 381 q 232 279 232 325 q 214 215 232 247 q 172 171 196 182 q 219 110 179 135 q 333 86 258 86 q 451 136 410 86 q 493 288 493 186 l 493 890 z "},"U":{"ha":1089,"x_min":33,"x_max":1057,"o":"m 811 890 l 694 919 l 694 1000 l 1057 1000 l 1057 919 l 940 890 l 940 338 q 838 74 940 164 q 533 -15 735 -15 q 249 76 347 -15 q 150 339 150 168 l 150 890 l 33 919 l 33 1000 l 447 1000 l 447 919 l 331 890 l 331 383 q 564 82 331 82 q 753 152 694 82 q 811 381 811 222 l 811 890 z "},"N":{"ha":1135,"x_min":57,"x_max":1090,"o":"m 174 890 l 57 919 l 57 1000 l 378 1000 l 842 267 l 842 890 l 725 919 l 725 1000 l 1090 1000 l 1090 919 l 974 890 l 974 0 l 819 0 l 306 797 l 306 110 l 422 81 l 422 0 l 57 0 l 57 81 l 174 110 l 174 890 z "},"A":{"ha":1011,"x_min":-18,"x_max":1025,"o":"m 644 325 l 306 325 l 233 110 l 349 81 l 349 0 l -18 0 l -18 81 l 96 110 l 421 1014 l 592 1014 l 914 110 l 1025 81 l 1025 0 l 601 0 l 601 81 l 715 110 l 644 325 m 340 426 l 611 426 l 482 831 l 476 831 l 340 426 z "},"V":{"ha":1006,"x_min":-21,"x_max":1017,"o":"m 524 164 l 529 164 l 765 890 l 650 919 l 650 1000 l 1017 1000 l 1017 919 l 903 890 l 599 0 l 421 0 l 90 890 l -21 919 l -21 1000 l 396 1000 l 396 919 l 282 890 l 524 164 z "},"W":{"ha":1460,"x_min":-15,"x_max":1469,"o":"m 1219 892 l 1110 919 l 1110 1000 l 1469 1000 l 1469 919 l 1354 890 l 1097 0 l 911 0 l 729 599 l 564 0 l 378 0 l 93 890 l -15 919 l -15 1000 l 421 1000 l 421 919 l 288 890 l 485 178 l 490 178 l 665 828 l 653 890 l 544 919 l 544 1000 l 953 1000 l 953 919 l 825 890 l 1018 176 l 1024 176 l 1219 892 z "},"K":{"ha":1038,"x_min":50,"x_max":1057,"o":"m 361 551 l 688 890 l 561 919 l 561 1000 l 968 1000 l 968 919 l 846 890 l 542 589 l 940 107 l 1057 81 l 1057 0 l 628 0 l 628 81 l 719 108 l 425 472 l 361 411 l 361 110 l 478 81 l 478 0 l 50 0 l 50 81 l 181 110 l 181 890 l 50 919 l 50 1000 l 478 1000 l 478 919 l 361 890 l 361 551 z "},"Y":{"ha":947,"x_min":-14,"x_max":956,"o":"m 711 890 l 599 919 l 599 1000 l 956 1000 l 956 919 l 842 890 l 569 392 l 569 110 l 700 81 l 700 0 l 258 0 l 258 81 l 389 110 l 389 369 l 101 890 l -14 919 l -14 1000 l 411 1000 l 411 919 l 294 890 l 500 504 l 711 890 z "},"S":{"ha":851,"x_min":81,"x_max":789,"o":"m 447 -15 q 313 8 368 -15 q 215 81 258 31 l 200 0 l 81 0 l 81 336 l 207 336 q 228 218 211 267 q 275 139 246 169 q 344 95 304 108 q 433 82 383 82 q 560 115 513 82 q 607 218 607 147 q 589 292 607 261 q 538 347 571 322 q 458 392 504 371 q 357 436 413 413 q 241 490 292 463 q 156 551 190 517 q 103 628 121 585 q 85 733 85 672 q 167 942 85 868 q 389 1015 250 1015 q 613 938 526 1015 l 624 1000 l 743 1000 l 743 664 l 622 664 q 574 857 622 794 q 424 919 525 919 q 267 771 267 919 q 277 710 267 735 q 312 665 288 685 q 376 625 336 644 q 474 579 415 606 q 622 504 561 539 q 719 433 682 469 q 772 357 756 397 q 789 265 789 317 q 763 143 789 196 q 690 55 736 90 q 581 2 643 19 q 447 -15 518 -15 z "},"X":{"ha":1031,"x_min":11,"x_max":1029,"o":"m 364 890 l 526 628 l 725 890 l 599 919 l 599 1000 l 1006 1000 l 1006 919 l 869 890 l 597 536 l 882 110 l 1029 81 l 1029 0 l 533 0 l 531 81 l 674 110 l 488 407 l 279 110 l 431 81 l 431 0 l 11 0 l 11 81 l 140 110 l 418 497 l 160 890 l 13 919 l 13 1000 l 494 1000 l 494 919 l 364 890 z "},"M":{"ha":1357,"x_min":57,"x_max":1300,"o":"m 933 1000 l 1300 1000 l 1300 919 l 1183 890 l 1183 110 l 1300 81 l 1300 0 l 901 0 l 901 81 l 1003 110 l 1003 889 l 750 0 l 553 0 l 306 889 l 306 110 l 407 81 l 407 0 l 57 0 l 57 81 l 174 110 l 174 890 l 57 919 l 57 1000 l 429 1000 l 669 147 l 675 147 l 933 1000 z "},"§":{"ha":750,"x_min":53,"x_max":697,"o":"m 697 349 q 662 220 697 275 q 565 133 626 165 q 624 56 606 97 q 642 -33 642 15 q 620 -131 642 -87 q 558 -203 599 -174 q 461 -249 518 -233 q 335 -264 404 -264 q 147 -217 211 -264 q 83 -87 83 -171 q 108 -5 83 -36 q 182 26 133 26 q 248 6 222 26 q 274 -49 274 -15 q 260 -93 274 -69 q 203 -124 246 -117 q 249 -167 221 -154 q 325 -179 276 -179 q 445 -149 404 -179 q 486 -64 486 -118 q 470 -2 486 -29 q 429 46 454 25 q 373 83 404 67 q 311 114 342 99 q 216 165 263 138 q 133 226 169 192 q 75 303 97 260 q 53 403 53 346 q 88 530 53 475 q 183 617 122 585 q 126 692 143 651 q 108 783 108 732 q 180 953 108 893 q 386 1014 251 1014 q 502 1000 450 1014 q 590 961 554 986 q 647 901 626 936 q 667 824 667 865 q 642 750 667 776 q 567 724 617 724 q 499 744 521 724 q 476 794 476 765 q 490 841 476 819 q 526 874 504 863 q 469 916 504 903 q 390 929 435 929 q 294 902 324 929 q 264 821 264 875 q 276 760 264 785 q 308 717 288 736 q 358 681 329 697 q 422 649 388 665 q 524 594 474 622 q 612 532 574 567 q 674 453 650 497 q 697 349 697 408 m 338 524 q 313 535 333 526 q 258 565 293 544 q 227 515 239 546 q 215 447 215 485 q 228 382 215 410 q 267 330 242 354 q 331 282 293 306 q 419 231 369 258 q 454 213 431 225 q 499 188 478 200 q 525 233 515 206 q 535 301 535 261 q 528 355 535 328 q 500 409 521 382 q 440 465 479 436 q 338 524 401 493 z "},"¢":{"ha":771,"x_min":57,"x_max":726,"o":"m 356 -12 q 107 142 181 1 q 70 244 83 186 q 57 368 57 301 q 135 634 57 531 q 356 758 213 738 l 356 906 l 463 906 l 463 763 q 565 741 518 758 q 647 695 613 724 q 699 629 681 667 q 718 547 718 592 q 685 452 718 485 q 603 419 651 419 q 557 428 575 419 q 527 452 539 438 q 510 485 515 467 q 506 521 506 503 q 523 581 506 556 q 575 617 540 606 q 530 651 560 638 q 463 669 500 665 l 463 101 q 564 135 513 108 q 651 211 615 163 l 726 153 q 606 40 674 78 q 463 -8 539 3 l 463 -150 l 356 -150 l 356 -12 m 281 186 q 313 142 294 161 q 356 113 331 124 l 356 658 q 274 571 303 636 q 244 379 244 506 q 254 261 244 304 q 281 186 264 218 z "},"ə":{"ha":775,"x_min":50,"x_max":721,"o":"m 539 394 q 531 471 539 438 q 511 531 524 504 q 432 622 482 594 q 321 650 382 650 q 214 624 268 650 q 124 551 160 597 l 60 603 q 113 665 85 636 q 178 717 142 694 q 263 751 215 739 q 375 764 311 764 q 681 603 597 764 q 712 508 703 561 q 721 394 721 456 q 633 92 721 199 q 371 -14 544 -14 q 129 74 208 -14 q 50 318 50 163 q 51 348 50 333 q 54 394 51 363 l 539 394 m 375 82 q 493 138 457 82 q 538 306 529 194 l 232 306 l 232 269 q 273 131 232 179 q 375 82 314 82 z "},"µ":{"ha":947,"x_min":51,"x_max":897,"o":"m 144 646 l 51 672 l 51 750 l 321 750 l 321 378 q 325 242 321 288 q 340 171 329 196 q 381 122 354 139 q 436 106 408 106 q 557 153 510 106 q 598 221 586 183 q 614 317 610 258 l 614 646 l 493 672 l 493 750 l 790 750 l 790 104 l 897 78 l 897 0 l 640 -14 l 625 139 l 619 139 q 539 26 588 65 q 426 -14 490 -14 q 392 -8 410 -14 q 357 10 374 -1 q 328 40 340 22 q 313 82 317 58 l 307 82 l 321 -249 l 144 -249 l 144 646 z "},"μ":{"ha":914,"x_min":38,"x_max":883,"o":"m 131 646 l 38 672 l 38 750 l 307 750 l 307 378 q 308 300 307 333 q 312 243 310 267 q 318 203 314 219 q 329 174 322 186 q 446 106 361 106 q 494 119 471 106 q 539 156 518 132 q 581 222 567 185 q 600 317 596 258 l 600 646 l 479 672 l 479 750 l 776 750 l 776 104 l 883 78 l 883 0 l 626 -14 l 611 139 l 606 139 q 524 26 569 65 q 425 -14 478 -14 q 343 10 376 -14 q 299 82 310 33 l 293 82 l 307 -249 l 131 -249 l 131 646 z "},"ĸ":{"ha":856,"x_min":43,"x_max":853,"o":"m 589 104 l 408 353 l 326 283 l 326 104 l 433 78 l 433 0 l 43 0 l 43 78 l 150 104 l 150 646 l 43 672 l 43 750 l 326 750 l 326 397 l 560 646 l 468 672 l 468 750 l 808 750 l 808 672 l 707 646 l 518 451 l 779 101 l 853 78 l 853 0 l 507 0 l 507 78 l 589 104 z "},"ŋ":{"ha":896,"x_min":43,"x_max":807,"o":"m 631 372 q 629 449 631 417 q 626 506 628 482 q 619 547 624 531 q 608 576 614 564 q 567 626 597 610 q 510 642 538 642 q 444 629 471 642 q 389 593 417 617 q 342 528 358 565 q 326 433 326 492 l 326 104 l 419 78 l 419 0 l 43 0 l 43 78 l 150 104 l 150 646 l 43 672 l 43 750 l 285 750 l 315 611 l 321 611 q 433 723 363 682 q 585 764 503 764 q 685 744 640 764 q 756 689 729 725 q 795 580 783 650 q 807 390 807 510 l 807 118 q 800 -44 807 15 q 776 -140 793 -103 q 693 -232 750 -200 q 565 -264 636 -264 q 422 -227 474 -264 q 371 -132 371 -190 q 392 -69 371 -96 q 465 -43 413 -43 q 531 -64 507 -43 q 554 -110 554 -85 q 532 -168 554 -146 q 548 -185 535 -178 q 578 -192 561 -192 q 601 -186 590 -192 q 617 -163 611 -181 q 627 -115 624 -146 q 631 -33 631 -83 l 631 372 z "},"þ":{"ha":853,"x_min":-3,"x_max":800,"o":"m 800 382 q 774 215 800 286 q 701 90 747 143 q 478 0 624 0 q 364 25 411 0 q 281 104 317 50 l 281 -146 l 415 -172 l 415 -250 l -3 -250 l -3 -172 l 104 -146 l 104 979 l -3 1006 l -3 1083 l 281 1083 l 281 669 q 369 741 319 718 q 489 764 418 764 q 711 676 640 764 q 777 551 754 624 q 800 382 800 479 m 281 381 q 292 255 281 306 q 329 167 304 204 q 384 110 353 126 q 447 93 415 93 q 517 110 488 93 q 567 158 547 128 q 599 243 586 189 q 613 371 613 297 q 599 503 613 447 q 565 597 586 558 q 513 653 544 635 q 446 671 482 671 q 329 607 365 671 q 281 381 281 531 z "},"Æ":{"ha":1489,"x_min":-19,"x_max":1424,"o":"m 1094 331 l 1072 461 l 881 461 l 881 104 l 1263 104 l 1301 310 l 1424 310 l 1424 0 l 569 0 l 569 81 l 700 110 l 700 325 l 385 325 l 267 110 l 365 81 l 365 0 l -19 0 l -19 81 l 122 110 l 567 904 l 463 919 l 463 1000 l 1393 1000 l 1393 706 l 1279 706 l 1239 899 l 881 899 l 881 565 l 1072 565 l 1094 697 l 1207 697 l 1207 331 l 1094 331 m 690 892 l 442 426 l 700 426 l 700 890 l 690 892 z "},"ﬀ":{"ha":969,"x_min":19,"x_max":1069,"o":"m 19 731 l 154 750 l 154 764 q 228 981 154 906 q 439 1056 303 1056 q 561 1039 506 1056 q 649 994 617 1022 q 847 1097 717 1097 q 1009 1058 949 1097 q 1069 957 1069 1018 q 1042 883 1069 908 q 976 857 1015 857 q 909 879 933 857 q 885 938 885 901 q 907 999 885 974 q 843 1024 882 1024 q 811 1015 828 1024 q 788 993 794 1006 q 772 926 776 974 q 767 819 767 878 l 767 750 l 944 750 l 944 660 l 767 660 l 767 104 l 917 78 l 917 0 l 511 0 l 511 78 l 590 104 l 590 660 l 331 660 l 331 104 l 425 78 l 425 0 l 47 0 l 47 78 l 154 104 l 154 660 l 19 660 l 19 731 m 590 782 q 563 935 590 889 q 457 982 535 982 q 365 940 399 982 q 331 819 331 899 l 331 750 l 590 750 l 590 782 z "},"ﬁ":{"ha":900,"x_min":19,"x_max":874,"o":"m 19 731 l 154 750 l 154 764 q 178 902 154 840 q 244 1008 201 964 q 349 1074 288 1051 q 489 1097 411 1097 q 603 1086 551 1097 q 692 1055 656 1075 q 748 1006 728 1035 q 768 942 768 976 q 669 843 768 843 q 609 865 636 843 q 582 926 582 886 q 606 985 582 957 q 553 1014 582 1004 q 486 1024 525 1024 q 396 1006 435 1024 q 346 947 361 989 q 331 819 331 906 l 331 750 l 767 750 l 767 104 l 874 78 l 874 0 l 497 0 l 497 78 l 590 104 l 590 660 l 331 660 l 331 104 l 439 78 l 439 0 l 47 0 l 47 78 l 154 104 l 154 660 l 19 660 l 19 731 z "},"ﬂ":{"ha":906,"x_min":19,"x_max":874,"o":"m 469 1097 q 581 1080 532 1097 q 658 1028 629 1063 l 683 1083 l 767 1083 l 767 104 l 874 78 l 874 0 l 497 0 l 497 78 l 590 104 l 590 660 l 331 660 l 331 104 l 439 78 l 439 0 l 47 0 l 47 78 l 154 104 l 154 660 l 19 660 l 19 731 l 154 750 l 154 764 q 176 902 154 840 q 238 1008 197 964 q 338 1074 279 1051 q 469 1097 396 1097 m 331 750 l 590 750 l 590 875 q 555 985 590 946 q 467 1024 519 1024 q 367 967 403 1024 q 331 799 331 911 l 331 750 z "},"ﬃ":{"ha":1335,"x_min":19,"x_max":1308,"o":"m 19 731 l 154 750 l 154 764 q 228 979 154 903 q 438 1056 303 1056 q 561 1036 508 1056 q 653 969 614 1017 q 757 1065 696 1033 q 918 1097 818 1097 q 1127 1055 1051 1097 q 1203 942 1203 1013 q 1181 868 1203 893 q 1101 843 1158 843 q 1043 864 1068 843 q 1018 919 1018 885 q 1040 985 1018 958 q 986 1013 1018 1003 q 918 1024 954 1024 q 870 1020 893 1024 q 825 1000 847 1017 q 799 973 810 989 q 781 933 788 957 q 770 877 774 910 q 767 799 767 844 l 767 750 l 1201 750 l 1201 104 l 1308 78 l 1308 0 l 932 0 l 932 78 l 1025 104 l 1025 660 l 767 660 l 767 104 l 875 78 l 875 0 l 497 0 l 497 78 l 590 104 l 590 660 l 331 660 l 331 104 l 439 78 l 439 0 l 47 0 l 47 78 l 154 104 l 154 660 l 19 660 l 19 731 m 590 761 q 559 931 590 881 q 454 982 528 982 q 363 936 396 982 q 331 799 331 890 l 331 750 l 590 750 l 590 761 z "},"ﬄ":{"ha":1340,"x_min":19,"x_max":1308,"o":"m 907 1097 q 1093 1028 1032 1097 l 1118 1083 l 1201 1083 l 1201 104 l 1308 78 l 1308 0 l 932 0 l 932 78 l 1025 104 l 1025 660 l 767 660 l 767 104 l 875 78 l 875 0 l 497 0 l 497 78 l 590 104 l 590 660 l 331 660 l 331 104 l 439 78 l 439 0 l 47 0 l 47 78 l 154 104 l 154 660 l 19 660 l 19 731 l 154 750 l 154 764 q 230 980 154 904 q 444 1056 306 1056 q 564 1035 514 1056 q 653 969 614 1014 q 907 1097 732 1097 m 767 750 l 1025 750 l 1025 875 q 991 985 1025 946 q 899 1024 957 1024 q 797 967 828 1024 q 767 799 767 911 l 767 750 m 331 750 l 590 750 l 590 761 q 561 931 590 879 q 457 982 532 982 q 363 935 394 982 q 331 799 331 889 l 331 750 z "},"ĳ":{"ha":876,"x_min":43,"x_max":792,"o":"m 43 672 l 43 750 l 326 750 l 326 104 l 433 78 l 433 0 l 43 0 l 43 78 l 150 104 l 150 646 l 43 672 m 135 961 q 162 1033 135 1006 q 238 1061 189 1061 q 314 1033 286 1061 q 342 961 342 1006 q 315 890 342 917 q 238 863 288 863 q 161 890 188 863 q 135 961 135 917 m 772 118 q 766 -44 772 15 q 742 -140 760 -103 q 660 -235 710 -207 q 535 -264 610 -264 q 391 -231 446 -264 q 336 -132 336 -197 q 361 -62 336 -92 q 433 -32 386 -32 q 498 -57 474 -32 q 522 -118 522 -82 q 516 -148 522 -133 q 497 -171 510 -162 q 515 -189 500 -186 q 535 -192 529 -192 q 581 -153 565 -192 q 596 -12 596 -114 l 596 646 l 489 672 l 489 750 l 772 750 l 772 118 m 585 961 q 612 1033 585 1006 q 688 1061 639 1061 q 764 1033 736 1061 q 792 961 792 1006 q 765 890 792 917 q 688 863 738 863 q 611 890 638 863 q 585 961 585 917 z "},"ǳ":{"ha":1658,"x_min":53,"x_max":1594,"o":"m 53 374 q 78 545 53 465 q 147 674 103 625 q 368 764 229 764 q 483 740 433 764 q 574 656 533 717 l 574 979 l 467 1006 l 467 1083 l 750 1083 l 750 104 l 857 78 l 857 0 l 600 -14 l 589 100 q 492 10 546 35 q 365 -14 438 -14 q 237 9 289 -14 q 149 74 185 32 q 79 200 106 122 q 53 374 53 278 m 574 369 q 560 509 574 450 q 526 600 546 568 q 399 669 483 669 q 331 656 365 669 q 276 606 296 642 q 249 515 258 572 q 240 386 240 457 q 251 246 240 306 q 279 154 263 186 q 332 99 299 118 q 406 79 365 79 q 471 94 438 79 q 526 143 504 108 q 561 238 549 179 q 574 369 574 296 m 1474 288 l 1594 288 l 1594 0 l 938 0 l 938 99 l 1372 651 l 1110 651 l 1076 469 l 956 469 l 956 750 l 1589 750 l 1589 651 l 1156 99 l 1446 99 l 1474 288 z "},"ǌ":{"ha":1353,"x_min":43,"x_max":1268,"o":"m 150 646 l 43 672 l 43 750 l 285 750 l 315 611 l 321 611 q 433 723 363 682 q 585 764 503 764 q 685 744 640 764 q 756 689 729 725 q 795 580 783 650 q 807 390 807 510 l 807 104 l 914 78 l 914 0 l 538 0 l 538 78 l 631 104 l 631 372 q 626 502 631 456 q 608 576 621 549 q 567 626 593 613 q 504 640 540 640 q 389 596 436 640 q 326 433 332 543 l 326 104 l 419 78 l 419 0 l 43 0 l 43 78 l 150 104 l 150 646 m 1249 118 q 1242 -44 1249 15 q 1218 -140 1236 -103 q 1136 -235 1186 -207 q 1011 -264 1086 -264 q 867 -231 922 -264 q 813 -132 813 -197 q 838 -62 813 -92 q 910 -32 863 -32 q 974 -57 950 -32 q 999 -118 999 -82 q 992 -148 999 -133 q 974 -171 986 -162 q 991 -189 976 -186 q 1011 -192 1006 -192 q 1057 -153 1042 -192 q 1072 -12 1072 -114 l 1072 646 l 965 672 l 965 750 l 1249 750 l 1249 118 m 1061 961 q 1088 1033 1061 1006 q 1164 1061 1115 1061 q 1240 1033 1213 1061 q 1268 961 1268 1006 q 1241 890 1268 917 q 1164 863 1214 863 q 1088 890 1114 863 q 1061 961 1061 917 z "},"ǉ":{"ha":869,"x_min":31,"x_max":785,"o":"m 138 978 l 31 1004 l 31 1083 l 314 1083 l 314 106 l 421 79 l 421 0 l 31 0 l 31 79 l 138 106 l 138 978 m 765 118 q 759 -44 765 15 q 735 -140 753 -103 q 653 -235 703 -207 q 528 -264 603 -264 q 384 -231 439 -264 q 329 -132 329 -197 q 354 -62 329 -92 q 426 -32 379 -32 q 491 -57 467 -32 q 515 -118 515 -82 q 509 -148 515 -133 q 490 -171 503 -162 q 508 -189 493 -186 q 528 -192 522 -192 q 574 -153 558 -192 q 589 -12 589 -114 l 589 646 l 482 672 l 482 750 l 765 750 l 765 118 m 578 961 q 605 1033 578 1006 q 681 1061 632 1061 q 757 1033 729 1061 q 785 961 785 1006 q 758 890 785 917 q 681 863 731 863 q 604 890 631 863 q 578 961 578 917 z "},"ǈ":{"ha":1303,"x_min":50,"x_max":1218,"o":"m 361 104 l 697 104 l 744 344 l 863 344 l 863 0 l 50 0 l 50 81 l 181 110 l 181 890 l 50 919 l 50 1000 l 506 1000 l 506 919 l 361 890 l 361 104 m 1199 118 q 1192 -44 1199 15 q 1168 -140 1186 -103 q 1086 -235 1136 -207 q 961 -264 1036 -264 q 817 -231 872 -264 q 763 -132 763 -197 q 788 -62 763 -92 q 860 -32 813 -32 q 924 -57 900 -32 q 949 -118 949 -82 q 942 -148 949 -133 q 924 -171 936 -162 q 941 -189 926 -186 q 961 -192 956 -192 q 1007 -153 992 -192 q 1022 -12 1022 -114 l 1022 646 l 915 672 l 915 750 l 1199 750 l 1199 118 m 1011 961 q 1038 1033 1011 1006 q 1114 1061 1065 1061 q 1190 1033 1163 1061 q 1218 961 1218 1006 q 1191 890 1218 917 q 1114 863 1164 863 q 1038 890 1064 863 q 1011 961 1011 917 z "},"ǋ":{"ha":1533,"x_min":57,"x_max":1449,"o":"m 174 890 l 57 919 l 57 1000 l 378 1000 l 842 267 l 842 890 l 725 919 l 725 1000 l 1090 1000 l 1090 919 l 974 890 l 974 0 l 819 0 l 306 797 l 306 110 l 422 81 l 422 0 l 57 0 l 57 81 l 174 110 l 174 890 m 1429 118 q 1423 -44 1429 15 q 1399 -140 1417 -103 q 1317 -235 1367 -207 q 1192 -264 1267 -264 q 1048 -231 1103 -264 q 993 -132 993 -197 q 1018 -62 993 -92 q 1090 -32 1043 -32 q 1155 -57 1131 -32 q 1179 -118 1179 -82 q 1173 -148 1179 -133 q 1154 -171 1167 -162 q 1172 -189 1157 -186 q 1192 -192 1186 -192 q 1238 -153 1222 -192 q 1253 -12 1253 -114 l 1253 646 l 1146 672 l 1146 750 l 1429 750 l 1429 118 m 1242 961 q 1269 1033 1242 1006 q 1344 1061 1296 1061 q 1421 1033 1393 1061 q 1449 961 1449 1006 q 1422 890 1449 917 q 1344 863 1394 863 q 1268 890 1294 863 q 1242 961 1242 917 z "},"Ǳ":{"ha":1990,"x_min":57,"x_max":1938,"o":"m 528 104 q 656 127 603 104 q 744 196 708 150 q 801 316 782 243 q 821 492 821 389 q 744 793 821 689 q 651 870 707 844 q 514 896 594 896 l 354 896 l 354 104 l 528 104 m 565 1000 q 888 883 772 1000 q 988 719 953 817 q 1022 511 1022 622 q 986 292 1022 393 q 883 121 950 190 q 744 29 825 58 q 553 0 664 0 l 57 0 l 57 81 l 174 110 l 174 890 l 57 919 l 57 1000 l 565 1000 m 1817 331 l 1938 331 l 1938 0 l 1114 0 l 1114 85 l 1690 896 l 1315 896 l 1271 685 l 1157 685 l 1157 1000 l 1906 1000 l 1906 915 l 1329 104 l 1772 104 l 1817 331 z "},"ǲ":{"ha":1857,"x_min":57,"x_max":1793,"o":"m 528 104 q 656 127 603 104 q 744 196 708 150 q 801 316 782 243 q 821 492 821 389 q 744 793 821 689 q 651 870 707 844 q 514 896 594 896 l 354 896 l 354 104 l 528 104 m 565 1000 q 888 883 772 1000 q 988 719 953 817 q 1022 511 1022 622 q 986 292 1022 393 q 883 121 950 190 q 744 29 825 58 q 553 0 664 0 l 57 0 l 57 81 l 174 110 l 174 890 l 57 919 l 57 1000 l 565 1000 m 1672 288 l 1793 288 l 1793 0 l 1136 0 l 1136 99 l 1571 651 l 1308 651 l 1275 469 l 1154 469 l 1154 750 l 1788 750 l 1788 651 l 1354 99 l 1644 99 l 1672 288 z "},"Ĳ":{"ha":1371,"x_min":50,"x_max":1325,"o":"m 361 110 l 492 81 l 492 0 l 50 0 l 50 81 l 181 110 l 181 890 l 50 919 l 50 1000 l 492 1000 l 492 919 l 361 890 l 361 110 m 1035 890 l 897 919 l 897 1000 l 1325 1000 l 1325 919 l 1215 890 l 1215 303 q 1192 172 1215 231 q 1125 72 1168 114 q 1022 8 1082 31 q 888 -15 961 -15 q 751 3 813 -15 q 646 54 690 21 q 577 133 601 88 q 553 236 553 179 q 581 340 553 300 q 664 381 608 381 q 743 353 713 381 q 774 279 774 325 q 756 215 774 247 q 714 171 738 182 q 760 110 721 135 q 875 86 800 86 q 993 136 951 86 q 1035 288 1035 186 l 1035 890 z "},"Ǉ":{"ha":1725,"x_min":50,"x_max":1679,"o":"m 361 104 l 697 104 l 744 344 l 863 344 l 863 0 l 50 0 l 50 81 l 181 110 l 181 890 l 50 919 l 50 1000 l 506 1000 l 506 919 l 361 890 l 361 104 m 1389 890 l 1251 919 l 1251 1000 l 1679 1000 l 1679 919 l 1569 890 l 1569 303 q 1546 172 1569 231 q 1479 72 1522 114 q 1376 8 1436 31 q 1242 -15 1315 -15 q 1106 3 1167 -15 q 1000 54 1044 21 q 931 133 956 88 q 907 236 907 179 q 935 340 907 300 q 1018 381 963 381 q 1097 353 1067 381 q 1128 279 1128 325 q 1110 215 1128 247 q 1068 171 1092 182 q 1115 110 1075 135 q 1229 86 1154 86 q 1347 136 1306 86 q 1389 288 1389 186 l 1389 890 z "},"Ǌ":{"ha":1951,"x_min":57,"x_max":1906,"o":"m 174 890 l 57 919 l 57 1000 l 378 1000 l 842 267 l 842 890 l 725 919 l 725 1000 l 1090 1000 l 1090 919 l 974 890 l 974 0 l 819 0 l 306 797 l 306 110 l 422 81 l 422 0 l 57 0 l 57 81 l 174 110 l 174 890 m 1615 890 l 1478 919 l 1478 1000 l 1906 1000 l 1906 919 l 1796 890 l 1796 303 q 1772 172 1796 231 q 1706 72 1749 114 q 1602 8 1663 31 q 1468 -15 1542 -15 q 1332 3 1393 -15 q 1226 54 1271 21 q 1158 133 1182 88 q 1133 236 1133 179 q 1161 340 1133 300 q 1244 381 1189 381 q 1324 353 1293 381 q 1354 279 1354 325 q 1336 215 1354 247 q 1294 171 1318 182 q 1341 110 1301 135 q 1456 86 1381 86 q 1574 136 1532 86 q 1615 288 1615 186 l 1615 890 z "},"Ŋ":{"ha":1135,"x_min":57,"x_max":1090,"o":"m 174 890 l 57 919 l 57 1000 l 378 1000 l 842 267 l 842 890 l 725 919 l 725 1000 l 1090 1000 l 1090 919 l 974 890 l 974 118 q 967 -44 974 15 q 943 -140 960 -103 q 865 -232 917 -200 q 747 -264 814 -264 q 676 -254 710 -264 q 616 -226 642 -244 q 574 -181 590 -207 q 558 -122 558 -156 q 577 -58 558 -83 q 632 -32 596 -32 q 688 -51 664 -32 q 713 -108 713 -69 q 702 -144 713 -131 q 678 -162 692 -157 q 697 -183 681 -175 q 744 -192 714 -192 q 809 -148 792 -192 q 826 -33 826 -104 l 826 -10 l 306 797 l 306 110 l 422 81 l 422 0 l 57 0 l 57 81 l 174 110 l 174 890 z "},"Þ":{"ha":911,"x_min":46,"x_max":876,"o":"m 358 206 l 358 110 l 490 81 l 490 0 l 61 0 l 61 81 l 178 110 l 178 890 l 46 919 l 46 1000 l 475 1000 l 475 919 l 358 890 l 358 799 l 569 799 q 688 781 635 799 q 778 732 742 764 q 851 631 825 689 q 876 508 876 574 q 850 379 876 442 q 775 274 824 317 q 685 224 739 242 q 568 206 631 206 l 358 206 m 496 307 q 569 319 535 307 q 622 350 603 331 q 666 415 650 375 q 682 500 682 454 q 622 647 682 590 q 565 684 599 671 q 490 697 531 697 l 358 697 l 358 307 l 496 307 z "},"ß":{"ha":899,"x_min":26,"x_max":874,"o":"m 524 589 q 529 560 524 572 q 549 536 535 549 q 590 509 564 524 q 657 474 615 494 q 765 410 722 440 q 831 351 807 381 q 865 288 856 321 q 874 213 874 254 q 852 116 874 158 q 793 45 831 74 q 703 1 756 17 q 590 -14 651 -14 q 494 -1 538 -14 q 419 35 450 13 q 371 91 388 58 q 354 161 354 124 q 360 203 354 182 q 379 242 367 225 q 411 269 392 258 q 458 279 431 279 q 530 254 507 279 q 553 203 553 229 q 540 150 553 171 q 503 118 526 129 q 540 84 511 97 q 594 71 569 71 q 638 78 617 71 q 675 100 658 86 q 701 134 692 114 q 711 179 711 154 q 706 221 711 203 q 683 257 700 239 q 636 296 667 275 q 556 347 606 317 q 462 406 499 381 q 404 456 425 432 q 376 503 383 479 q 368 557 368 526 q 373 601 368 582 q 392 640 378 621 q 431 681 407 660 q 496 732 456 703 q 561 802 542 767 q 581 888 581 838 q 547 986 581 951 q 451 1021 513 1021 q 349 966 388 1021 q 310 799 310 911 l 310 0 l 26 0 l 26 78 l 133 104 l 133 764 q 155 903 133 842 q 217 1008 176 965 q 315 1074 257 1051 q 446 1097 372 1097 q 661 1040 582 1097 q 740 886 740 983 q 716 786 740 831 q 633 706 692 742 q 582 672 603 686 q 548 644 561 657 q 529 618 535 631 q 524 589 524 606 z "},"=":{"ha":772,"x_min":89,"x_max":683,"o":"m 89 689 l 683 689 l 683 567 l 89 567 l 89 689 m 89 429 l 683 429 l 683 306 l 89 306 l 89 429 z "},"¥":{"ha":1047,"x_min":39,"x_max":1008,"o":"m 764 890 l 651 919 l 651 1000 l 1008 1000 l 1008 919 l 894 890 l 678 494 l 840 494 l 840 372 l 622 372 l 622 303 l 840 303 l 840 181 l 622 181 l 622 110 l 753 81 l 753 0 l 311 0 l 311 81 l 442 110 l 442 181 l 203 181 l 203 303 l 442 303 l 442 372 l 203 372 l 203 494 l 372 494 l 154 890 l 39 919 l 39 1000 l 464 1000 l 464 919 l 347 890 l 553 504 l 764 890 z "},"$":{"ha":817,"x_min":49,"x_max":771,"o":"m 357 -14 q 227 13 285 -8 q 130 68 169 35 q 69 142 90 101 q 49 225 49 182 q 77 310 49 276 q 158 344 106 344 q 233 318 206 344 q 260 251 260 292 q 242 194 260 217 q 201 160 224 171 q 263 106 225 128 q 357 82 300 85 l 357 421 q 252 467 304 442 q 158 528 200 492 q 91 615 117 564 q 65 736 65 665 q 86 849 65 799 q 145 936 107 900 q 237 992 183 972 q 357 1015 290 1013 l 357 1182 l 464 1182 l 464 1013 q 578 983 528 1006 q 663 930 628 961 q 716 860 697 899 q 735 779 735 821 q 706 696 735 728 q 626 664 678 664 q 560 684 589 664 q 531 744 531 704 q 544 799 531 771 q 581 842 557 826 q 464 917 544 908 l 464 579 q 598 509 540 543 q 694 438 656 475 q 752 356 733 400 q 771 256 771 313 q 690 64 771 135 q 464 -14 610 -7 l 464 -181 l 357 -181 l 357 -14 m 579 217 q 546 316 579 279 q 464 382 513 353 l 464 83 q 548 124 517 90 q 579 217 579 158 m 247 775 q 253 726 247 746 q 273 689 260 706 q 307 657 286 672 q 357 624 328 642 l 357 917 q 273 872 299 910 q 247 775 247 835 z "},"Œ":{"ha":1503,"x_min":60,"x_max":1438,"o":"m 1108 331 l 1085 461 l 894 461 l 894 104 l 1275 104 l 1315 310 l 1438 310 l 1438 0 l 529 0 q 338 29 418 0 q 199 121 257 58 q 96 292 132 190 q 60 511 60 393 q 94 719 60 622 q 194 883 129 817 q 517 1000 310 1000 l 1407 1000 l 1407 706 l 1293 706 l 1253 899 l 894 899 l 894 565 l 1085 565 l 1108 697 l 1221 697 l 1221 331 l 1108 331 m 714 896 l 568 896 q 431 870 488 896 q 338 793 375 844 q 261 492 261 689 q 281 316 261 389 q 338 196 300 243 q 426 127 374 150 q 554 104 479 104 l 714 104 l 714 896 z "},".":{"ha":343,"x_min":63,"x_max":281,"o":"m 63 72 q 92 155 63 125 q 171 185 121 185 q 251 154 221 185 q 281 74 281 124 q 251 -6 281 24 q 169 -35 222 -35 q 91 -7 119 -35 q 63 72 63 21 z "},",":{"ha":353,"x_min":51,"x_max":290,"o":"m 174 185 q 258 148 226 185 q 290 49 290 111 q 242 -94 290 -26 q 94 -219 194 -162 l 51 -169 q 137 -91 101 -128 q 175 -25 172 -54 l 169 -21 q 139 -29 158 -29 q 85 -1 107 -29 q 63 74 63 26 q 93 153 63 122 q 174 185 124 185 z "},":":{"ha":385,"x_min":83,"x_max":301,"o":"m 83 53 q 113 135 83 106 q 192 165 142 165 q 272 135 242 165 q 301 54 301 104 q 272 -25 301 4 q 190 -54 243 -54 q 112 -26 140 -54 q 83 53 83 1 m 83 539 q 113 622 83 592 q 192 651 142 651 q 272 621 242 651 q 301 540 301 590 q 272 461 301 490 q 190 432 243 432 q 112 460 140 432 q 83 539 83 488 z "},";":{"ha":399,"x_min":75,"x_max":314,"o":"m 89 538 q 118 620 89 590 q 197 650 147 650 q 277 619 247 650 q 307 539 307 589 q 278 460 307 489 q 196 431 249 431 q 117 458 146 431 q 89 538 89 486 m 197 185 q 282 148 250 185 q 314 49 314 111 q 266 -94 314 -26 q 118 -219 218 -162 l 75 -169 q 160 -91 125 -128 q 199 -25 196 -54 l 193 -21 q 163 -29 182 -29 q 108 -1 131 -29 q 86 74 86 26 q 117 153 86 122 q 197 185 147 185 z "},"!":{"ha":404,"x_min":93,"x_max":311,"o":"m 143 285 q 140 400 143 339 q 134 518 138 461 q 126 622 131 575 q 121 694 122 669 q 110 795 117 746 q 103 903 103 844 q 128 983 103 951 q 206 1014 153 1014 q 281 981 260 1014 q 303 904 303 949 q 297 796 303 846 q 285 694 292 746 q 281 622 285 669 q 274 518 278 575 q 266 400 269 461 q 263 285 263 339 l 143 285 m 93 72 q 122 155 93 125 q 201 185 151 185 q 281 154 251 185 q 311 74 311 124 q 282 -6 311 24 q 200 -35 253 -35 q 122 -7 150 -35 q 93 72 93 21 z "},"¡":{"ha":376,"x_min":79,"x_max":297,"o":"m 249 465 q 252 350 249 411 q 260 232 256 289 q 267 128 264 175 q 271 56 271 81 q 283 -46 278 4 q 289 -154 289 -96 q 267 -231 289 -199 q 192 -264 246 -264 q 114 -233 139 -264 q 89 -153 89 -201 q 96 -45 89 -94 q 107 56 103 4 q 113 128 108 81 q 120 232 117 175 q 126 350 124 289 q 129 465 129 411 l 249 465 m 79 674 q 108 756 79 726 q 188 786 138 786 q 267 756 238 786 q 297 675 297 725 q 268 596 297 625 q 186 567 239 567 q 108 594 136 567 q 79 674 79 622 z "},"?":{"ha":703,"x_min":44,"x_max":665,"o":"m 250 285 q 257 361 250 326 q 280 429 264 396 q 324 497 296 463 q 393 572 351 531 q 463 665 442 621 q 483 765 483 710 q 442 878 483 839 q 321 918 400 918 q 250 898 281 918 q 219 850 219 878 q 263 808 247 835 q 279 750 279 781 q 248 681 279 711 q 164 651 217 651 q 115 663 138 651 q 78 696 93 675 q 53 744 63 717 q 44 803 44 772 q 67 886 44 847 q 128 953 89 925 q 219 999 167 982 q 333 1015 272 1015 q 468 997 407 1015 q 573 947 529 979 q 641 871 617 915 q 665 774 665 826 q 631 652 665 711 q 511 514 596 593 q 444 447 471 476 q 400 392 417 418 q 376 341 383 367 q 369 285 369 315 l 250 285 m 203 72 q 232 155 203 125 q 311 185 261 185 q 391 154 361 185 q 421 74 421 124 q 392 -6 421 24 q 310 -35 363 -35 q 231 -7 260 -35 q 203 72 203 21 z "},"¿":{"ha":694,"x_min":35,"x_max":656,"o":"m 450 467 q 443 390 450 425 q 420 322 436 356 q 376 255 404 289 q 307 179 349 221 q 238 86 258 131 q 217 -14 217 42 q 258 -127 217 -87 q 379 -167 300 -167 q 450 -147 419 -167 q 481 -99 481 -126 q 437 -56 453 -83 q 421 1 421 -29 q 452 70 421 40 q 536 100 483 100 q 585 88 563 100 q 622 56 607 76 q 647 7 638 35 q 656 -51 656 -21 q 633 -135 656 -96 q 572 -202 611 -174 q 481 -247 533 -231 q 367 -264 428 -264 q 232 -246 293 -264 q 127 -196 171 -228 q 59 -119 83 -164 q 35 -22 35 -75 q 69 99 35 40 q 189 238 104 158 q 256 304 229 275 q 300 359 283 333 q 324 410 317 385 q 331 467 331 436 l 450 467 m 497 679 q 468 597 497 626 q 389 567 439 567 q 309 597 339 567 q 279 678 279 628 q 308 757 279 728 q 390 786 338 786 q 469 758 440 786 q 497 679 497 731 z "},"-":{"ha":515,"x_min":83,"x_max":432,"o":"m 83 453 l 432 453 l 432 318 l 83 318 l 83 453 z "},"–":{"ha":856,"x_min":85,"x_max":771,"o":"m 85 447 l 771 447 l 771 325 l 85 325 l 85 447 z "},"—":{"ha":1283,"x_min":85,"x_max":1197,"o":"m 85 447 l 1197 447 l 1197 325 l 85 325 l 85 447 z "},"_":{"ha":853,"x_min":83,"x_max":769,"o":"m 83 21 l 769 21 l 769 -101 l 83 -101 l 83 21 z "},"|":{"ha":354,"x_min":117,"x_max":238,"o":"m 117 1069 l 238 1069 l 238 -236 l 117 -236 l 117 1069 z "},"˙":{"ha":257,"x_min":21,"x_max":236,"o":"m 21 953 q 50 1032 21 1003 q 128 1061 79 1061 q 206 1031 176 1061 q 236 953 236 1001 q 207 875 236 904 q 128 846 178 846 q 49 874 78 846 q 21 953 21 903 z "},"¨":{"ha":565,"x_min":21,"x_max":544,"o":"m 21 958 q 48 1034 21 1007 q 122 1061 75 1061 q 197 1033 169 1061 q 225 958 225 1006 q 198 884 225 911 q 122 857 171 857 q 48 884 75 857 q 21 958 21 911 m 340 958 q 367 1034 340 1007 q 442 1061 394 1061 q 517 1033 489 1061 q 544 958 544 1006 q 517 884 544 911 q 442 857 490 857 q 367 884 394 857 q 340 958 340 911 z "},"(":{"ha":531,"x_min":46,"x_max":526,"o":"m 46 490 q 80 753 46 629 q 173 976 114 878 q 313 1141 232 1075 q 485 1231 393 1207 l 526 1133 q 404 1064 460 1118 q 310 925 349 1010 q 249 728 271 840 q 228 488 228 617 q 249 246 228 356 q 308 53 269 136 q 400 -80 346 -29 q 519 -144 454 -131 l 464 -253 q 301 -171 376 -235 q 168 -8 225 -107 q 78 218 111 90 q 46 490 46 346 z "},")":{"ha":531,"x_min":4,"x_max":485,"o":"m 485 490 q 452 218 485 346 q 363 -8 419 90 q 230 -171 306 -107 q 67 -253 154 -235 l 11 -144 q 131 -80 76 -131 q 223 53 185 -29 q 282 246 261 136 q 303 488 303 356 q 281 728 303 617 q 221 925 260 840 q 126 1064 182 1010 q 4 1133 71 1118 l 46 1231 q 218 1141 138 1207 q 358 976 299 1075 q 451 753 417 878 q 485 490 485 629 z "},"[":{"ha":532,"x_min":117,"x_max":507,"o":"m 117 1188 l 507 1188 l 507 1083 l 282 1083 l 282 -104 l 507 -104 l 507 -207 l 117 -207 l 117 1188 z "},"]":{"ha":532,"x_min":25,"x_max":415,"o":"m 415 -207 l 25 -207 l 25 -104 l 250 -104 l 250 1083 l 25 1083 l 25 1188 l 415 1188 l 415 -207 z "},"¦":{"ha":360,"x_min":119,"x_max":240,"o":"m 119 344 l 240 344 l 240 -236 l 119 -236 l 119 344 m 119 1069 l 240 1069 l 240 511 l 119 511 l 119 1069 z "},"¬":{"ha":789,"x_min":83,"x_max":693,"o":"m 83 574 l 693 574 l 693 242 l 568 242 l 568 435 l 83 435 l 83 574 z "},"Ə":{"ha":985,"x_min":50,"x_max":924,"o":"m 722 522 q 711 649 722 585 q 676 763 700 714 q 582 880 640 842 q 433 918 524 918 q 276 874 346 918 q 161 763 207 831 l 88 828 q 158 913 121 878 q 238 970 194 947 q 331 1003 281 993 q 444 1014 382 1014 q 858 801 739 1014 q 908 665 892 740 q 924 503 924 589 q 896 289 924 385 q 812 126 868 193 q 671 22 756 58 q 472 -14 586 -14 q 155 102 260 -14 q 50 425 50 218 q 51 467 50 447 q 56 522 53 486 l 722 522 m 485 82 q 653 169 597 82 q 721 411 708 257 l 250 411 l 250 361 q 269 244 250 296 q 319 157 288 193 q 394 101 351 121 q 485 82 436 82 z "},"€":{"ha":1026,"x_min":47,"x_max":968,"o":"m 47 643 l 196 643 q 328 919 225 825 q 610 1014 431 1014 q 756 994 690 1014 q 869 942 822 975 q 942 863 917 908 q 968 764 968 817 q 938 684 968 711 q 854 657 907 657 q 791 681 818 657 q 764 740 764 704 q 777 789 764 768 q 814 821 790 810 q 738 891 786 865 q 622 917 689 917 q 462 849 522 917 q 386 643 401 782 l 656 643 l 656 539 l 379 539 q 378 517 378 528 q 378 496 378 507 q 378 472 378 483 q 379 449 378 460 l 656 449 l 656 343 l 388 343 q 455 144 404 207 q 597 81 506 81 q 766 134 701 81 q 844 285 831 188 l 963 285 q 836 59 931 132 q 578 -14 742 -14 q 194 343 247 -14 l 47 343 l 47 449 l 186 449 q 185 467 185 458 q 185 488 185 476 q 185 514 185 501 q 186 539 185 526 l 47 539 l 47 643 z "},"{":{"ha":589,"x_min":3,"x_max":564,"o":"m 3 557 l 50 557 q 161 594 126 557 q 196 713 196 631 q 194 759 196 731 q 191 819 193 788 q 188 879 189 850 q 186 926 186 908 q 276 1116 186 1053 q 564 1188 367 1179 l 564 1083 q 405 1040 451 1076 q 358 922 358 1003 q 359 886 358 911 q 361 833 360 861 q 363 777 363 804 q 364 735 364 750 q 328 585 364 639 q 213 503 293 531 l 213 497 q 329 423 294 478 q 364 257 364 368 q 363 210 364 239 q 361 151 363 182 q 359 95 360 121 q 358 57 358 69 q 406 -62 358 -25 q 564 -104 453 -99 l 564 -208 q 276 -137 367 -200 q 186 54 186 -75 q 188 102 186 72 q 191 165 189 132 q 194 228 193 199 q 196 276 196 258 q 162 397 196 360 q 50 433 128 433 l 3 433 l 3 557 z "},"}":{"ha":589,"x_min":25,"x_max":586,"o":"m 586 433 l 539 433 q 427 397 461 433 q 393 276 393 360 q 394 228 393 258 q 398 165 396 199 q 401 102 400 132 q 403 54 403 72 q 313 -137 403 -75 q 25 -208 222 -200 l 25 -104 q 183 -62 136 -99 q 231 57 231 -25 q 230 95 231 69 q 228 151 229 121 q 226 210 226 182 q 225 257 225 239 q 260 423 225 368 q 376 497 294 478 l 376 503 q 260 585 296 531 q 225 735 225 639 q 226 777 225 750 q 228 833 226 804 q 230 886 229 861 q 231 922 231 911 q 184 1040 231 1003 q 25 1083 138 1076 l 25 1188 q 313 1116 222 1179 q 403 926 403 1053 q 401 879 403 908 q 398 819 400 850 q 394 759 396 788 q 393 713 393 731 q 428 594 393 631 q 539 557 463 557 l 586 557 l 586 433 z "},"ı":{"ha":460,"x_min":43,"x_max":433,"o":"m 43 672 l 43 750 l 326 750 l 326 104 l 433 78 l 433 0 l 43 0 l 43 78 l 150 104 l 150 646 l 43 672 z "},"ȷ":{"ha":417,"x_min":-124,"x_max":313,"o":"m 313 118 q 306 -44 313 15 q 282 -140 299 -103 q 206 -232 256 -200 q 82 -264 157 -264 q 10 -256 46 -264 q -56 -231 -26 -247 q -105 -188 -86 -214 q -124 -126 -124 -162 q -99 -59 -124 -86 q -28 -32 -75 -32 q 35 -52 11 -32 q 60 -112 60 -72 q 54 -144 60 -129 q 38 -171 49 -160 q 52 -188 40 -183 q 75 -193 64 -193 q 110 -176 97 -193 q 128 -134 122 -158 q 135 -82 135 -110 q 136 -33 136 -54 l 136 646 l 29 672 l 29 750 l 313 750 l 313 118 z "},"·":{"ha":367,"x_min":75,"x_max":293,"o":"m 75 414 q 104 495 75 465 q 183 525 133 525 q 263 494 233 525 q 293 414 293 464 q 263 335 293 364 q 183 306 233 306 q 103 333 131 306 q 75 414 75 361 z "},"∙":{"ha":367,"x_min":75,"x_max":293,"o":"m 75 414 q 104 495 75 465 q 183 525 133 525 q 263 494 233 525 q 293 414 293 464 q 263 335 293 364 q 183 306 233 306 q 103 333 131 306 q 75 414 75 361 z "},"‚":{"ha":353,"x_min":51,"x_max":290,"o":"m 174 185 q 258 148 226 185 q 290 49 290 111 q 242 -94 290 -26 q 94 -219 194 -162 l 51 -169 q 137 -91 101 -128 q 175 -25 172 -54 l 169 -21 q 139 -29 158 -29 q 85 -1 107 -29 q 63 74 63 26 q 93 153 63 122 q 174 185 124 185 z "},"„":{"ha":631,"x_min":51,"x_max":568,"o":"m 174 167 q 258 130 226 167 q 290 31 290 93 q 242 -112 290 -44 q 94 -237 194 -181 l 51 -187 q 137 -109 101 -146 q 175 -43 172 -72 l 169 -39 q 139 -47 158 -47 q 85 -19 107 -47 q 63 56 63 8 q 93 135 63 104 q 174 167 124 167 m 451 167 q 536 130 504 167 q 568 31 568 93 q 520 -112 568 -44 q 372 -237 472 -181 l 329 -187 q 415 -109 379 -146 q 453 -43 450 -72 l 447 -39 q 417 -47 436 -47 q 363 -19 385 -47 q 340 56 340 8 q 371 135 340 104 q 451 167 401 167 z "},"”":{"ha":624,"x_min":63,"x_max":579,"o":"m 185 1056 q 269 1019 238 1056 q 301 919 301 982 q 253 776 301 844 q 106 651 206 708 l 63 701 q 148 780 113 743 q 186 846 183 817 l 181 850 q 150 842 169 842 q 96 869 118 842 q 74 944 74 897 q 104 1024 74 993 q 185 1056 135 1056 m 463 1056 q 547 1019 515 1056 q 579 919 579 982 q 531 776 579 844 q 383 651 483 708 l 340 701 q 426 780 390 743 q 464 846 461 817 l 458 850 q 428 842 447 842 q 374 869 396 842 q 351 944 351 897 q 382 1024 351 993 q 463 1056 413 1056 z "},"“":{"ha":624,"x_min":51,"x_max":568,"o":"m 168 651 q 83 688 115 651 q 51 788 51 725 q 99 931 51 863 q 247 1056 147 999 l 290 1006 q 205 927 240 964 q 167 861 169 890 l 172 857 q 203 865 182 865 q 257 838 235 865 q 279 763 279 810 q 249 683 279 714 q 168 651 218 651 m 446 651 q 361 688 393 651 q 329 788 329 725 q 377 931 329 863 q 525 1056 425 999 l 568 1006 q 483 927 518 964 q 444 861 447 890 l 450 857 q 481 865 460 865 q 535 838 513 865 q 557 763 557 810 q 526 683 557 714 q 446 651 496 651 z "},"‘":{"ha":346,"x_min":51,"x_max":290,"o":"m 168 651 q 83 688 115 651 q 51 788 51 725 q 99 931 51 863 q 247 1056 147 999 l 290 1006 q 205 927 240 964 q 167 861 169 890 l 172 857 q 203 865 182 865 q 257 838 235 865 q 279 763 279 810 q 249 683 279 714 q 168 651 218 651 z "},"’":{"ha":347,"x_min":63,"x_max":301,"o":"m 185 1056 q 269 1019 238 1056 q 301 919 301 982 q 253 776 301 844 q 106 651 206 708 l 63 701 q 148 780 113 743 q 186 846 183 817 l 181 850 q 150 842 169 842 q 96 869 118 842 q 74 944 74 897 q 104 1024 74 993 q 185 1056 135 1056 z "},"−":{"ha":731,"x_min":89,"x_max":642,"o":"m 89 560 l 642 560 l 642 447 l 89 447 l 89 560 z "},"+":{"ha":694,"x_min":50,"x_max":644,"o":"m 50 560 l 279 560 l 279 779 l 415 779 l 415 560 l 644 560 l 644 446 l 415 446 l 415 226 l 279 226 l 279 446 l 50 446 l 50 560 z "},"±":{"ha":736,"x_min":85,"x_max":651,"o":"m 85 600 l 307 600 l 307 806 l 429 806 l 429 600 l 651 600 l 651 500 l 429 500 l 429 294 l 307 294 l 307 500 l 85 500 l 85 600 m 85 183 l 651 183 l 651 83 l 85 83 l 85 183 z "},"÷":{"ha":715,"x_min":54,"x_max":663,"o":"m 54 538 l 663 538 l 663 442 l 54 442 l 54 538 m 260 242 q 287 319 260 290 q 363 347 314 347 q 439 319 411 347 q 467 242 467 290 q 439 166 467 193 q 363 139 411 139 q 260 242 260 139 m 260 733 q 287 810 260 782 q 363 839 314 839 q 439 810 411 839 q 467 733 467 782 q 439 658 467 685 q 363 631 411 631 q 260 733 260 631 z "},"×":{"ha":703,"x_min":68,"x_max":635,"o":"m 68 303 l 256 489 l 68 675 l 165 772 l 351 585 l 538 772 l 635 675 l 447 489 l 635 303 l 538 206 l 351 393 l 165 206 l 68 303 z "},"¶":{"ha":975,"x_min":40,"x_max":925,"o":"m 669 821 l 614 821 l 614 -133 l 475 -133 l 475 261 l 383 261 q 127 347 214 261 q 40 600 40 432 q 128 845 40 760 q 382 931 217 931 l 925 931 l 925 850 l 808 821 l 808 -133 l 669 -133 l 669 821 z "}," ":{"ha":328,"x_min":0,"x_max":0,"o":""},"a":{"ha":763,"x_min":42,"x_max":771,"o":"m 42 164 q 67 265 42 221 q 147 342 93 308 q 283 399 200 375 q 479 440 365 422 q 463 547 472 510 q 439 611 454 583 q 394 663 419 643 q 328 682 368 682 q 274 671 299 682 q 242 640 250 660 q 269 609 261 629 q 276 574 276 589 q 246 512 276 539 q 172 485 215 485 q 103 513 128 485 q 79 585 79 542 q 103 661 79 628 q 165 717 126 694 q 252 752 204 740 q 349 764 300 764 q 466 745 414 764 q 550 699 518 726 q 660 390 660 601 l 660 210 q 669 115 660 140 q 708 89 678 89 l 771 89 l 771 26 q 578 -14 643 -14 q 540 -7 554 -14 q 517 17 525 0 q 505 63 508 33 q 501 138 501 92 l 496 138 q 382 26 453 67 q 229 -14 311 -14 q 92 33 142 -14 q 42 164 42 81 m 314 88 q 378 106 343 88 q 440 161 414 125 q 469 217 456 181 q 483 303 483 253 q 482 340 483 319 q 478 379 481 360 q 358 347 406 364 q 281 308 310 329 q 239 260 251 288 q 226 199 226 233 q 254 113 226 138 q 314 88 282 88 z "},"æ":{"ha":1181,"x_min":43,"x_max":1132,"o":"m 43 163 q 67 260 43 217 q 144 338 92 304 q 281 397 197 372 q 481 440 364 422 q 464 549 474 513 q 440 611 454 586 q 319 682 399 682 q 272 668 296 682 q 240 631 247 654 q 268 597 258 617 q 278 557 278 576 q 252 501 278 524 q 181 478 226 478 q 108 505 135 478 q 81 583 81 532 q 105 660 81 626 q 167 717 129 694 q 253 752 206 740 q 349 764 301 764 q 493 728 432 764 q 574 621 554 693 l 581 621 q 669 728 608 692 q 808 764 729 764 q 1051 676 971 764 q 1132 432 1132 588 q 1131 401 1132 418 q 1128 356 1131 383 l 643 356 q 650 267 643 303 q 671 199 657 231 q 732 123 692 146 q 819 100 772 100 q 940 127 886 100 q 1036 201 993 154 l 1119 142 q 1060 80 1092 108 q 990 31 1029 51 q 903 -2 951 10 q 792 -14 854 -14 q 528 138 608 -14 l 518 138 q 407 26 475 67 q 231 -14 339 -14 q 93 33 143 -14 q 43 163 43 79 m 786 668 q 686 615 721 668 q 644 444 651 561 l 950 444 l 950 481 q 908 619 950 571 q 786 668 865 668 m 331 88 q 389 108 358 88 q 444 164 419 129 q 474 222 463 189 q 485 299 485 254 q 483 340 485 322 q 479 378 482 357 q 358 344 407 361 q 281 307 310 328 q 240 258 251 286 q 228 192 228 231 q 255 115 228 142 q 331 88 282 88 z "},"‹":{"ha":469,"x_min":44,"x_max":410,"o":"m 410 75 l 344 10 l 44 319 l 44 385 l 342 686 l 408 636 l 225 354 l 410 75 z "},"›":{"ha":469,"x_min":60,"x_max":425,"o":"m 244 354 l 61 636 l 128 686 l 425 385 l 425 319 l 125 10 l 60 75 l 244 354 z "},"«":{"ha":761,"x_min":44,"x_max":701,"o":"m 410 75 l 344 10 l 44 319 l 44 385 l 342 686 l 408 636 l 225 354 l 410 75 m 701 75 l 636 10 l 336 319 l 336 385 l 633 686 l 700 636 l 517 354 l 701 75 z "},"»":{"ha":761,"x_min":60,"x_max":717,"o":"m 244 354 l 61 636 l 128 686 l 425 385 l 425 319 l 125 10 l 60 75 l 244 354 m 536 354 l 353 636 l 419 686 l 717 385 l 717 319 l 417 10 l 351 75 l 536 354 z "},"#":{"ha":1057,"x_min":44,"x_max":1011,"o":"m 604 260 l 364 260 l 308 -14 l 188 -14 l 243 260 l 44 260 l 44 354 l 260 354 l 314 619 l 113 619 l 113 714 l 331 714 l 390 1014 l 511 1014 l 451 714 l 692 714 l 751 1014 l 872 1014 l 813 714 l 1011 714 l 1011 619 l 796 619 l 742 354 l 943 354 l 943 260 l 725 260 l 669 -14 l 549 -14 l 604 260 m 381 354 l 621 354 l 675 619 l 435 619 l 381 354 z "},"*":{"ha":669,"x_min":54,"x_max":615,"o":"m 132 667 q 146 706 132 685 q 182 747 160 726 q 231 786 204 767 q 286 822 258 806 q 194 818 240 818 q 149 819 174 818 q 103 828 124 821 q 68 849 82 835 q 54 892 54 864 q 73 942 54 919 q 122 965 92 965 q 165 958 143 965 q 211 938 188 950 q 258 910 235 925 q 301 879 281 894 q 273 969 286 924 q 260 1050 260 1014 q 281 1102 260 1082 q 333 1122 301 1122 q 385 1103 363 1122 q 407 1050 407 1083 q 393 966 407 1014 q 364 874 379 918 q 408 905 385 889 q 456 934 432 921 q 503 956 481 947 q 547 964 526 964 q 597 941 578 964 q 615 890 615 918 q 601 848 615 863 q 567 826 588 833 q 521 818 546 819 q 475 817 496 817 q 426 818 451 817 q 376 822 401 819 q 424 794 396 811 q 477 757 451 778 q 521 713 503 736 q 539 664 539 689 q 517 615 539 638 q 465 593 496 593 q 420 611 440 593 q 385 658 400 629 q 357 719 369 686 q 335 785 344 753 q 308 709 321 744 q 280 648 294 674 q 248 607 265 622 q 208 592 231 592 q 156 615 179 592 q 132 667 132 638 z "},"•":{"ha":564,"x_min":97,"x_max":468,"o":"m 97 476 q 147 615 97 564 q 282 665 196 665 q 418 614 368 665 q 468 476 468 563 q 418 342 468 390 q 282 293 368 293 q 145 340 193 293 q 97 476 97 388 z "},"†":{"ha":639,"x_min":39,"x_max":600,"o":"m 267 708 q 231 705 251 708 q 187 697 210 701 q 142 688 164 692 q 104 685 121 685 q 56 702 74 685 q 39 754 39 719 q 57 807 39 790 q 104 824 75 824 q 142 820 121 824 q 187 812 164 817 q 231 803 210 807 q 267 800 251 800 l 274 807 q 269 858 274 826 q 258 924 264 890 q 248 987 253 957 q 243 1032 243 1017 q 262 1079 243 1061 q 319 1097 281 1097 q 376 1080 357 1097 q 396 1032 396 1063 q 391 987 396 1017 q 381 924 386 957 q 370 858 375 890 q 365 807 365 826 l 372 800 q 407 803 386 800 q 451 812 428 807 q 496 820 474 817 q 535 824 518 824 q 582 807 564 824 q 600 754 600 790 q 583 702 600 719 q 535 685 565 685 q 497 688 518 685 q 452 697 475 692 q 408 705 429 701 q 372 708 386 708 l 365 701 l 365 393 q 370 235 365 304 q 381 113 375 165 q 391 26 386 61 q 396 -32 396 -10 q 376 -80 396 -62 q 319 -97 357 -97 q 262 -79 281 -97 q 243 -32 243 -61 q 248 26 243 -10 q 258 113 253 61 q 269 235 264 165 q 274 393 274 304 l 274 701 l 267 708 z "},"‡":{"ha":658,"x_min":49,"x_max":610,"o":"m 375 515 q 376 407 375 461 q 382 299 378 353 l 389 292 q 423 295 403 292 q 465 303 443 299 q 507 312 486 308 q 544 315 528 315 q 592 298 575 315 q 610 246 610 281 q 592 193 610 210 q 544 176 574 176 q 506 180 528 176 q 462 188 485 183 q 417 197 439 193 q 382 200 396 200 l 375 193 q 380 142 375 174 q 390 76 385 110 q 401 13 396 43 q 406 -32 406 -17 q 386 -80 406 -62 q 329 -97 367 -97 q 272 -79 290 -97 q 253 -32 253 -61 q 258 13 253 -17 q 268 76 263 43 q 278 142 274 110 q 283 193 283 174 l 276 200 q 240 197 261 200 q 197 188 219 193 q 152 180 174 183 q 114 176 131 176 q 67 193 85 176 q 49 246 49 210 q 66 298 49 281 q 114 315 83 315 q 151 312 131 315 q 192 303 171 308 q 234 295 214 299 q 269 292 254 292 l 276 299 q 282 407 281 353 q 283 515 283 461 q 282 608 283 563 q 276 701 281 654 l 269 708 q 234 705 254 708 q 192 697 214 701 q 151 688 171 692 q 114 685 131 685 q 66 702 83 685 q 49 754 49 719 q 67 807 49 790 q 114 824 85 824 q 152 820 131 824 q 197 812 174 817 q 240 803 219 807 q 276 800 261 800 l 283 807 q 278 858 283 826 q 268 924 274 890 q 258 987 263 957 q 253 1032 253 1017 q 272 1079 253 1061 q 329 1097 290 1097 q 386 1080 367 1097 q 406 1032 406 1063 q 401 987 406 1017 q 390 924 396 957 q 380 858 385 890 q 375 807 375 826 l 382 800 q 417 803 396 800 q 460 812 438 807 q 506 820 483 817 q 544 824 528 824 q 592 807 574 824 q 610 754 610 790 q 592 702 610 719 q 544 685 575 685 q 507 688 528 685 q 465 697 486 692 q 423 705 443 701 q 389 708 403 708 l 382 701 q 376 608 378 654 q 375 515 375 563 z "},"´":{"ha":360,"x_min":35,"x_max":319,"o":"m 103 993 q 141 1048 124 1026 q 174 1082 158 1069 q 206 1100 189 1094 q 242 1106 222 1106 q 303 1088 286 1106 q 319 1047 319 1071 q 294 1001 319 1026 q 203 926 269 975 l 150 888 l 35 888 l 103 993 z "},"`":{"ha":360,"x_min":40,"x_max":325,"o":"m 325 888 l 210 888 l 157 926 q 65 1001 90 975 q 40 1047 40 1026 q 57 1088 40 1071 q 118 1106 74 1106 q 154 1100 138 1106 q 186 1082 171 1094 q 219 1048 201 1069 q 257 993 236 1026 l 325 888 z "},"˝":{"ha":590,"x_min":14,"x_max":569,"o":"m 82 993 q 120 1048 103 1026 q 153 1082 138 1069 q 185 1100 168 1094 q 221 1106 201 1106 q 282 1088 265 1106 q 299 1047 299 1071 q 274 1001 299 1026 q 182 926 249 975 l 129 888 l 14 888 l 82 993 m 353 993 q 391 1048 374 1026 q 424 1082 408 1069 q 456 1100 439 1094 q 492 1106 472 1106 q 553 1088 536 1106 q 569 1047 569 1071 q 544 1001 569 1026 q 453 926 519 975 l 400 888 l 285 888 l 353 993 z "},"˜":{"ha":553,"x_min":0,"x_max":553,"o":"m 0 867 q 51 1018 3 968 q 176 1068 100 1068 q 238 1056 211 1068 q 286 1030 264 1044 q 330 1003 308 1015 q 379 992 351 992 q 442 1010 421 992 q 469 1061 463 1028 l 553 1061 q 376 851 524 851 q 316 863 342 851 q 267 890 290 875 q 222 917 244 904 q 174 929 200 929 q 111 913 132 929 q 83 867 90 896 l 0 867 z "},"~":{"ha":671,"x_min":83,"x_max":594,"o":"m 83 401 q 239 603 108 603 q 300 591 274 603 q 348 565 326 579 q 390 538 369 550 q 436 526 411 526 q 511 596 496 526 l 594 596 q 439 386 568 386 q 378 398 404 386 q 331 424 353 410 q 288 451 308 439 q 242 464 267 464 q 193 447 213 464 q 167 401 174 431 l 83 401 z "},"ċ":{"ha":758,"x_min":51,"x_max":721,"o":"m 417 764 q 535 749 481 764 q 628 705 589 733 q 690 636 668 676 q 713 547 713 596 q 679 452 713 485 q 597 419 646 419 q 551 428 569 419 q 522 452 533 438 q 505 485 510 467 q 500 521 500 503 q 517 581 500 556 q 569 617 535 606 q 511 657 550 642 q 424 672 472 672 q 345 657 379 672 q 288 608 311 642 q 251 517 264 574 q 239 379 239 461 q 249 261 239 304 q 275 186 258 218 q 332 123 297 146 q 421 100 367 100 q 480 107 449 100 q 541 127 511 114 q 598 161 571 140 q 646 211 625 182 l 721 153 q 570 24 656 63 q 388 -14 485 -14 q 213 26 283 -14 q 101 142 142 65 q 65 244 78 186 q 51 368 51 301 q 76 531 51 458 q 148 656 101 604 q 263 736 194 708 q 417 764 331 764 m 321 953 q 350 1032 321 1003 q 428 1061 379 1061 q 506 1031 476 1061 q 536 953 536 1001 q 507 875 536 904 q 428 846 478 846 q 349 874 378 846 q 321 953 321 903 z "},"ė":{"ha":772,"x_min":53,"x_max":724,"o":"m 235 356 q 263 199 235 261 q 415 100 307 100 q 538 127 478 100 q 640 211 597 154 l 715 153 q 584 35 667 83 q 381 -14 501 -14 q 205 27 278 -14 q 93 147 132 68 q 63 242 72 190 q 53 357 53 294 q 142 658 53 551 q 396 764 231 764 q 532 741 471 764 q 635 676 593 718 q 701 572 678 633 q 724 432 724 510 q 723 402 724 417 q 719 356 722 388 l 235 356 m 393 668 q 236 444 250 668 l 542 444 l 542 481 q 503 619 542 571 q 393 668 464 668 m 276 953 q 306 1032 276 1003 q 383 1061 335 1061 q 462 1031 432 1061 q 492 953 492 1001 q 463 875 492 904 q 383 846 433 846 q 305 874 333 846 q 276 953 276 903 z "},"ṅ":{"ha":936,"x_min":43,"x_max":914,"o":"m 150 646 l 43 672 l 43 750 l 285 750 l 315 611 l 321 611 q 433 723 363 682 q 585 764 503 764 q 685 744 640 764 q 756 689 729 725 q 795 580 783 650 q 807 390 807 510 l 807 104 l 914 78 l 914 0 l 538 0 l 538 78 l 631 104 l 631 372 q 626 502 631 456 q 608 576 621 549 q 567 626 593 613 q 504 640 540 640 q 389 596 436 640 q 326 433 332 543 l 326 104 l 419 78 l 419 0 l 43 0 l 43 78 l 150 104 l 150 646 m 364 953 q 393 1032 364 1003 q 471 1061 422 1061 q 549 1031 519 1061 q 579 953 579 1001 q 550 875 579 904 q 471 846 521 846 q 392 874 421 846 q 364 953 364 903 z "},"ż":{"ha":775,"x_min":54,"x_max":711,"o":"m 590 288 l 711 288 l 711 0 l 54 0 l 54 99 l 489 651 l 226 651 l 193 469 l 72 469 l 72 750 l 706 750 l 706 651 l 272 99 l 563 99 l 590 288 m 282 953 q 311 1032 282 1003 q 389 1061 340 1061 q 467 1031 438 1061 q 497 953 497 1001 q 468 875 497 904 q 389 846 439 846 q 310 874 339 846 q 282 953 282 903 z "},"ġ":{"ha":799,"x_min":29,"x_max":797,"o":"m 733 -8 q 642 -196 733 -136 q 350 -256 550 -256 q 225 -247 283 -256 q 123 -217 167 -237 q 54 -162 79 -196 q 29 -81 29 -129 q 69 22 29 -17 q 189 64 110 61 l 189 69 q 83 175 83 99 q 91 219 83 196 q 116 262 99 242 q 160 297 133 282 q 226 318 188 313 q 110 392 151 336 q 69 525 69 449 q 144 700 69 636 q 360 764 218 764 q 441 760 406 764 q 505 747 476 756 q 556 727 533 739 q 599 700 578 715 l 646 717 l 774 778 l 797 778 l 797 635 l 774 635 l 676 646 l 642 646 q 669 533 669 603 q 599 353 669 419 q 394 288 529 288 q 366 288 379 288 q 339 290 353 289 q 252 266 285 283 q 219 217 219 249 q 245 183 219 192 q 342 174 271 174 l 503 174 q 733 -8 733 174 m 351 46 q 217 17 258 46 q 175 -60 175 -12 q 374 -165 175 -165 q 536 -135 481 -165 q 592 -43 592 -104 q 549 26 592 6 q 400 46 506 46 l 351 46 m 233 531 q 267 411 233 451 q 363 371 300 371 q 472 411 438 371 q 506 531 506 451 q 472 642 506 604 q 363 679 438 679 q 267 642 300 679 q 233 531 233 604 m 264 953 q 293 1032 264 1003 q 371 1061 322 1061 q 449 1031 419 1061 q 479 953 479 1001 q 450 875 479 904 q 371 846 421 846 q 292 874 321 846 q 264 953 264 903 z "},"ä":{"ha":763,"x_min":42,"x_max":771,"o":"m 42 164 q 67 265 42 221 q 147 342 93 308 q 283 399 200 375 q 479 440 365 422 q 463 547 472 510 q 439 611 454 583 q 394 663 419 643 q 328 682 368 682 q 274 671 299 682 q 242 640 250 660 q 269 609 261 629 q 276 574 276 589 q 246 512 276 539 q 172 485 215 485 q 103 513 128 485 q 79 585 79 542 q 103 661 79 628 q 165 717 126 694 q 252 752 204 740 q 349 764 300 764 q 466 745 414 764 q 550 699 518 726 q 660 390 660 601 l 660 210 q 669 115 660 140 q 708 89 678 89 l 771 89 l 771 26 q 578 -14 643 -14 q 540 -7 554 -14 q 517 17 525 0 q 505 63 508 33 q 501 138 501 92 l 496 138 q 382 26 453 67 q 229 -14 311 -14 q 92 33 142 -14 q 42 164 42 81 m 314 88 q 378 106 343 88 q 440 161 414 125 q 469 217 456 181 q 483 303 483 253 q 482 340 483 319 q 478 379 481 360 q 358 347 406 364 q 281 308 310 329 q 239 260 251 288 q 226 199 226 233 q 254 113 226 138 q 314 88 282 88 m 115 958 q 142 1034 115 1007 q 217 1061 169 1061 q 292 1033 264 1061 q 319 958 319 1006 q 292 884 319 911 q 217 857 265 857 q 142 884 169 857 q 115 958 115 911 m 435 958 q 462 1034 435 1007 q 536 1061 489 1061 q 611 1033 583 1061 q 639 958 639 1006 q 612 884 639 911 q 536 857 585 857 q 462 884 489 857 q 435 958 435 911 z "},"ë":{"ha":772,"x_min":53,"x_max":724,"o":"m 235 356 q 263 199 235 261 q 415 100 307 100 q 538 127 478 100 q 640 211 597 154 l 715 153 q 584 35 667 83 q 381 -14 501 -14 q 205 27 278 -14 q 93 147 132 68 q 63 242 72 190 q 53 357 53 294 q 142 658 53 551 q 396 764 231 764 q 532 741 471 764 q 635 676 593 718 q 701 572 678 633 q 724 432 724 510 q 723 402 724 417 q 719 356 722 388 l 235 356 m 393 668 q 236 444 250 668 l 542 444 l 542 481 q 503 619 542 571 q 393 668 464 668 m 125 958 q 152 1034 125 1007 q 226 1061 179 1061 q 301 1033 274 1061 q 329 958 329 1006 q 302 884 329 911 q 226 857 275 857 q 152 884 179 857 q 125 958 125 911 m 444 958 q 472 1034 444 1007 q 546 1061 499 1061 q 621 1033 593 1061 q 649 958 649 1006 q 622 884 649 911 q 546 857 594 857 q 472 884 499 857 q 444 958 444 911 z "},"ö":{"ha":825,"x_min":51,"x_max":774,"o":"m 774 375 q 748 208 774 286 q 674 76 722 129 q 564 7 628 28 q 413 -14 500 -14 q 261 7 325 -14 q 151 76 197 28 q 77 208 103 129 q 51 375 51 286 q 77 542 51 464 q 151 674 103 621 q 261 743 197 722 q 413 764 325 764 q 564 743 500 764 q 674 674 628 722 q 748 542 722 621 q 774 375 774 464 m 286 135 q 413 79 324 79 q 539 135 501 79 q 583 375 583 203 q 539 615 583 547 q 413 671 501 671 q 286 615 324 671 q 242 375 242 547 q 286 135 242 203 m 151 958 q 178 1034 151 1007 q 253 1061 206 1061 q 328 1033 300 1061 q 356 958 356 1006 q 328 884 356 911 q 253 857 301 857 q 178 884 206 857 q 151 958 151 911 m 471 958 q 498 1034 471 1007 q 572 1061 525 1061 q 647 1033 619 1061 q 675 958 675 1006 q 648 884 675 911 q 572 857 621 857 q 498 884 525 857 q 471 958 471 911 z "},"ü":{"ha":906,"x_min":33,"x_max":879,"o":"m 303 378 q 303 301 303 333 q 306 244 304 268 q 312 203 308 219 q 319 174 315 186 q 356 123 331 140 q 408 106 382 106 q 476 119 446 106 q 533 157 507 133 q 578 222 564 185 q 596 317 593 258 l 596 646 l 475 672 l 475 750 l 772 750 l 772 104 l 879 78 l 879 0 l 622 -14 l 607 139 l 601 139 q 492 27 561 68 q 343 -14 422 -14 q 247 6 290 -14 q 178 61 203 25 q 138 170 150 100 q 126 360 126 240 l 126 646 l 33 672 l 33 750 l 303 750 l 303 378 m 185 958 q 212 1034 185 1007 q 286 1061 239 1061 q 361 1033 333 1061 q 389 958 389 1006 q 362 884 389 911 q 286 857 335 857 q 212 884 239 857 q 185 958 185 911 m 504 958 q 531 1034 504 1007 q 606 1061 558 1061 q 681 1033 653 1061 q 708 958 708 1006 q 681 884 708 911 q 606 857 654 857 q 531 884 558 857 q 504 958 504 911 z "},"ẅ":{"ha":1233,"x_min":11,"x_max":1221,"o":"m 386 208 l 400 126 l 407 126 l 422 208 l 567 764 l 708 764 l 857 210 l 871 128 l 876 128 l 893 210 l 1006 644 l 915 671 l 915 749 l 1221 749 l 1221 671 l 1146 644 l 946 -14 l 761 -14 l 617 488 l 476 -14 l 292 -14 l 85 644 l 11 671 l 11 749 l 364 749 l 364 671 l 268 644 l 386 208 m 376 958 q 403 1034 376 1007 q 478 1061 431 1061 q 553 1033 525 1061 q 581 958 581 1006 q 553 884 581 911 q 478 857 526 857 q 403 884 431 857 q 376 958 376 911 m 696 958 q 723 1034 696 1007 q 797 1061 750 1061 q 872 1033 844 1061 q 900 958 900 1006 q 873 884 900 911 q 797 857 846 857 q 723 884 750 857 q 696 958 696 911 z "},"ÿ":{"ha":833,"x_min":-1,"x_max":819,"o":"m 511 33 q 448 -104 476 -47 q 388 -197 419 -161 q 319 -248 357 -232 q 228 -264 282 -264 q 166 -255 194 -264 q 116 -229 138 -246 q 82 -190 94 -212 q 69 -142 69 -168 q 98 -62 69 -93 q 172 -31 126 -31 q 234 -49 213 -31 q 256 -103 256 -67 q 252 -120 256 -110 q 241 -141 249 -131 q 221 -158 233 -151 q 192 -165 208 -165 q 208 -184 194 -179 q 232 -189 221 -189 q 259 -185 246 -189 q 285 -169 272 -182 q 313 -130 299 -156 q 344 -61 328 -104 l 361 -10 l 82 646 l -1 672 l -1 750 l 351 750 l 363 672 l 264 646 l 435 164 l 440 164 l 594 646 l 514 672 l 514 750 l 819 750 l 819 672 l 735 646 l 511 33 m 181 958 q 208 1034 181 1007 q 282 1061 235 1061 q 357 1033 329 1061 q 385 958 385 1006 q 358 884 385 911 q 282 857 331 857 q 208 884 235 857 q 181 958 181 911 m 500 958 q 527 1034 500 1007 q 601 1061 554 1061 q 676 1033 649 1061 q 704 958 704 1006 q 677 884 704 911 q 601 857 650 857 q 527 884 554 857 q 500 958 500 911 z "},"ï":{"ha":460,"x_min":-24,"x_max":500,"o":"m 43 672 l 43 750 l 326 750 l 326 104 l 433 78 l 433 0 l 43 0 l 43 78 l 150 104 l 150 646 l 43 672 m -24 958 q 3 1034 -24 1007 q 78 1061 31 1061 q 153 1033 125 1061 q 181 958 181 1006 q 153 884 181 911 q 78 857 126 857 q 3 884 31 857 q -24 958 -24 911 m 296 958 q 323 1034 296 1007 q 397 1061 350 1061 q 472 1033 444 1061 q 500 958 500 1006 q 473 884 500 911 q 397 857 446 857 q 323 884 350 857 q 296 958 296 911 z "},"á":{"ha":763,"x_min":42,"x_max":771,"o":"m 42 164 q 67 265 42 221 q 147 342 93 308 q 283 399 200 375 q 479 440 365 422 q 463 547 472 510 q 439 611 454 583 q 394 663 419 643 q 328 682 368 682 q 274 671 299 682 q 242 640 250 660 q 269 609 261 629 q 276 574 276 589 q 246 512 276 539 q 172 485 215 485 q 103 513 128 485 q 79 585 79 542 q 103 661 79 628 q 165 717 126 694 q 252 752 204 740 q 349 764 300 764 q 466 745 414 764 q 550 699 518 726 q 660 390 660 601 l 660 210 q 669 115 660 140 q 708 89 678 89 l 771 89 l 771 26 q 578 -14 643 -14 q 540 -7 554 -14 q 517 17 525 0 q 505 63 508 33 q 501 138 501 92 l 496 138 q 382 26 453 67 q 229 -14 311 -14 q 92 33 142 -14 q 42 164 42 81 m 314 88 q 378 106 343 88 q 440 161 414 125 q 469 217 456 181 q 483 303 483 253 q 482 340 483 319 q 478 379 481 360 q 358 347 406 364 q 281 308 310 329 q 239 260 251 288 q 226 199 226 233 q 254 113 226 138 q 314 88 282 88 m 358 993 q 397 1048 379 1026 q 429 1082 414 1069 q 461 1100 444 1094 q 497 1106 478 1106 q 558 1088 542 1106 q 575 1047 575 1071 q 550 1001 575 1026 q 458 926 525 975 l 406 888 l 290 888 l 358 993 z "},"ć":{"ha":758,"x_min":51,"x_max":721,"o":"m 417 764 q 535 749 481 764 q 628 705 589 733 q 690 636 668 676 q 713 547 713 596 q 679 452 713 485 q 597 419 646 419 q 551 428 569 419 q 522 452 533 438 q 505 485 510 467 q 500 521 500 503 q 517 581 500 556 q 569 617 535 606 q 511 657 550 642 q 424 672 472 672 q 345 657 379 672 q 288 608 311 642 q 251 517 264 574 q 239 379 239 461 q 249 261 239 304 q 275 186 258 218 q 332 123 297 146 q 421 100 367 100 q 480 107 449 100 q 541 127 511 114 q 598 161 571 140 q 646 211 625 182 l 721 153 q 570 24 656 63 q 388 -14 485 -14 q 213 26 283 -14 q 101 142 142 65 q 65 244 78 186 q 51 368 51 301 q 76 531 51 458 q 148 656 101 604 q 263 736 194 708 q 417 764 331 764 m 438 993 q 476 1048 458 1026 q 508 1082 493 1069 q 540 1100 524 1094 q 576 1106 557 1106 q 638 1088 621 1106 q 654 1047 654 1071 q 629 1001 654 1026 q 538 926 604 975 l 485 888 l 369 888 l 438 993 z "},"é":{"ha":772,"x_min":53,"x_max":724,"o":"m 235 356 q 263 199 235 261 q 415 100 307 100 q 538 127 478 100 q 640 211 597 154 l 715 153 q 584 35 667 83 q 381 -14 501 -14 q 205 27 278 -14 q 93 147 132 68 q 63 242 72 190 q 53 357 53 294 q 142 658 53 551 q 396 764 231 764 q 532 741 471 764 q 635 676 593 718 q 701 572 678 633 q 724 432 724 510 q 723 402 724 417 q 719 356 722 388 l 235 356 m 393 668 q 236 444 250 668 l 542 444 l 542 481 q 503 619 542 571 q 393 668 464 668 m 393 993 q 431 1048 414 1026 q 464 1082 449 1069 q 496 1100 479 1094 q 532 1106 513 1106 q 593 1088 576 1106 q 610 1047 610 1071 q 585 1001 610 1026 q 493 926 560 975 l 440 888 l 325 888 l 393 993 z "},"ń":{"ha":936,"x_min":43,"x_max":914,"o":"m 150 646 l 43 672 l 43 750 l 285 750 l 315 611 l 321 611 q 433 723 363 682 q 585 764 503 764 q 685 744 640 764 q 756 689 729 725 q 795 580 783 650 q 807 390 807 510 l 807 104 l 914 78 l 914 0 l 538 0 l 538 78 l 631 104 l 631 372 q 626 502 631 456 q 608 576 621 549 q 567 626 593 613 q 504 640 540 640 q 389 596 436 640 q 326 433 332 543 l 326 104 l 419 78 l 419 0 l 43 0 l 43 78 l 150 104 l 150 646 m 471 993 q 509 1048 492 1026 q 542 1082 526 1069 q 574 1100 557 1094 q 610 1106 590 1106 q 671 1088 654 1106 q 688 1047 688 1071 q 663 1001 688 1026 q 571 926 638 975 l 518 888 l 403 888 l 471 993 z "},"ó":{"ha":825,"x_min":51,"x_max":774,"o":"m 774 375 q 748 208 774 286 q 674 76 722 129 q 564 7 628 28 q 413 -14 500 -14 q 261 7 325 -14 q 151 76 197 28 q 77 208 103 129 q 51 375 51 286 q 77 542 51 464 q 151 674 103 621 q 261 743 197 722 q 413 764 325 764 q 564 743 500 764 q 674 674 628 722 q 748 542 722 621 q 774 375 774 464 m 286 135 q 413 79 324 79 q 539 135 501 79 q 583 375 583 203 q 539 615 583 547 q 413 671 501 671 q 286 615 324 671 q 242 375 242 547 q 286 135 242 203 m 422 993 q 460 1048 443 1026 q 493 1082 478 1069 q 525 1100 508 1094 q 561 1106 542 1106 q 622 1088 606 1106 q 639 1047 639 1071 q 614 1001 639 1026 q 522 926 589 975 l 469 888 l 354 888 l 422 993 z "},"ŕ":{"ha":658,"x_min":40,"x_max":650,"o":"m 458 649 q 432 638 446 649 q 405 610 418 626 q 381 574 392 593 q 365 542 371 556 q 336 444 349 493 q 324 322 324 394 l 324 104 l 474 78 l 474 0 l 40 0 l 40 78 l 147 104 l 147 667 l 40 693 l 40 750 l 282 750 l 313 567 l 318 567 q 403 713 350 663 q 524 764 457 764 q 614 730 578 764 q 650 639 650 696 q 625 563 650 597 q 554 529 600 529 q 474 555 497 529 q 451 611 451 581 q 453 627 451 621 q 458 649 454 633 m 360 993 q 398 1048 381 1026 q 431 1082 415 1069 q 463 1100 446 1094 q 499 1106 479 1106 q 560 1088 543 1106 q 576 1047 576 1071 q 551 1001 576 1026 q 460 926 526 975 l 407 888 l 292 888 l 360 993 z "},"ś":{"ha":717,"x_min":51,"x_max":668,"o":"m 338 71 q 403 78 372 71 q 456 97 433 85 q 492 128 479 110 q 506 171 506 147 q 488 219 506 199 q 442 256 471 240 q 378 283 414 271 q 308 306 343 294 q 224 337 265 318 q 151 384 183 356 q 99 451 118 413 q 79 543 79 490 q 151 703 79 643 q 358 764 224 764 q 474 750 422 764 q 561 710 525 736 q 617 649 597 685 q 638 572 638 614 q 612 499 638 524 q 542 474 586 474 q 472 495 497 474 q 447 546 447 517 q 461 591 447 569 q 497 624 475 613 q 445 665 478 650 q 364 679 413 679 q 267 652 299 679 q 235 576 235 625 q 271 494 235 521 q 368 449 307 467 q 478 414 424 432 q 574 369 532 396 q 642 305 617 343 q 668 213 668 267 q 642 116 668 158 q 572 45 617 74 q 465 1 526 17 q 333 -14 404 -14 q 126 35 200 -14 q 51 167 51 83 q 83 256 51 224 q 160 288 115 288 q 222 269 193 288 q 250 215 250 250 q 235 167 250 190 q 200 132 219 143 q 246 90 214 110 q 338 71 278 71 m 385 993 q 423 1048 406 1026 q 456 1082 440 1069 q 488 1100 471 1094 q 524 1106 504 1106 q 585 1088 568 1106 q 601 1047 601 1071 q 576 1001 601 1026 q 485 926 551 975 l 432 888 l 317 888 l 385 993 z "},"ú":{"ha":906,"x_min":33,"x_max":879,"o":"m 303 378 q 303 301 303 333 q 306 244 304 268 q 312 203 308 219 q 319 174 315 186 q 356 123 331 140 q 408 106 382 106 q 476 119 446 106 q 533 157 507 133 q 578 222 564 185 q 596 317 593 258 l 596 646 l 475 672 l 475 750 l 772 750 l 772 104 l 879 78 l 879 0 l 622 -14 l 607 139 l 601 139 q 492 27 561 68 q 343 -14 422 -14 q 247 6 290 -14 q 178 61 203 25 q 138 170 150 100 q 126 360 126 240 l 126 646 l 33 672 l 33 750 l 303 750 l 303 378 m 456 993 q 494 1048 476 1026 q 526 1082 511 1069 q 558 1100 542 1094 q 594 1106 575 1106 q 656 1088 639 1106 q 672 1047 672 1071 q 647 1001 672 1026 q 556 926 622 975 l 503 888 l 388 888 l 456 993 z "},"ẃ":{"ha":1233,"x_min":11,"x_max":1221,"o":"m 386 208 l 400 126 l 407 126 l 422 208 l 567 764 l 708 764 l 857 210 l 871 128 l 876 128 l 893 210 l 1006 644 l 915 671 l 915 749 l 1221 749 l 1221 671 l 1146 644 l 946 -14 l 761 -14 l 617 488 l 476 -14 l 292 -14 l 85 644 l 11 671 l 11 749 l 364 749 l 364 671 l 268 644 l 386 208 m 647 993 q 685 1048 668 1026 q 718 1082 703 1069 q 750 1100 733 1094 q 786 1106 767 1106 q 847 1088 831 1106 q 864 1047 864 1071 q 839 1001 864 1026 q 747 926 814 975 l 694 888 l 579 888 l 647 993 z "},"ý":{"ha":833,"x_min":-1,"x_max":819,"o":"m 511 33 q 448 -104 476 -47 q 388 -197 419 -161 q 319 -248 357 -232 q 228 -264 282 -264 q 166 -255 194 -264 q 116 -229 138 -246 q 82 -190 94 -212 q 69 -142 69 -168 q 98 -62 69 -93 q 172 -31 126 -31 q 234 -49 213 -31 q 256 -103 256 -67 q 252 -120 256 -110 q 241 -141 249 -131 q 221 -158 233 -151 q 192 -165 208 -165 q 208 -184 194 -179 q 232 -189 221 -189 q 259 -185 246 -189 q 285 -169 272 -182 q 313 -130 299 -156 q 344 -61 328 -104 l 361 -10 l 82 646 l -1 672 l -1 750 l 351 750 l 363 672 l 264 646 l 435 164 l 440 164 l 594 646 l 514 672 l 514 750 l 819 750 l 819 672 l 735 646 l 511 33 m 413 993 q 451 1048 433 1026 q 483 1082 468 1069 q 515 1100 499 1094 q 551 1106 532 1106 q 613 1088 596 1106 q 629 1047 629 1071 q 604 1001 629 1026 q 513 926 579 975 l 460 888 l 344 888 l 413 993 z "},"ź":{"ha":775,"x_min":54,"x_max":711,"o":"m 590 288 l 711 288 l 711 0 l 54 0 l 54 99 l 489 651 l 226 651 l 193 469 l 72 469 l 72 750 l 706 750 l 706 651 l 272 99 l 563 99 l 590 288 m 399 993 q 437 1048 419 1026 q 469 1082 454 1069 q 501 1100 485 1094 q 538 1106 518 1106 q 599 1088 582 1106 q 615 1047 615 1071 q 590 1001 615 1026 q 499 926 565 975 l 446 888 l 331 888 l 399 993 z "},"í":{"ha":460,"x_min":43,"x_max":464,"o":"m 43 672 l 43 750 l 326 750 l 326 104 l 433 78 l 433 0 l 43 0 l 43 78 l 150 104 l 150 646 l 43 672 m 247 993 q 285 1048 268 1026 q 318 1082 303 1069 q 350 1100 333 1094 q 386 1106 367 1106 q 447 1088 431 1106 q 464 1047 464 1071 q 439 1001 464 1026 q 347 926 414 975 l 294 888 l 179 888 l 247 993 z "},"à":{"ha":763,"x_min":42,"x_max":771,"o":"m 42 164 q 67 265 42 221 q 147 342 93 308 q 283 399 200 375 q 479 440 365 422 q 463 547 472 510 q 439 611 454 583 q 394 663 419 643 q 328 682 368 682 q 274 671 299 682 q 242 640 250 660 q 269 609 261 629 q 276 574 276 589 q 246 512 276 539 q 172 485 215 485 q 103 513 128 485 q 79 585 79 542 q 103 661 79 628 q 165 717 126 694 q 252 752 204 740 q 349 764 300 764 q 466 745 414 764 q 550 699 518 726 q 660 390 660 601 l 660 210 q 669 115 660 140 q 708 89 678 89 l 771 89 l 771 26 q 578 -14 643 -14 q 540 -7 554 -14 q 517 17 525 0 q 505 63 508 33 q 501 138 501 92 l 496 138 q 382 26 453 67 q 229 -14 311 -14 q 92 33 142 -14 q 42 164 42 81 m 314 88 q 378 106 343 88 q 440 161 414 125 q 469 217 456 181 q 483 303 483 253 q 482 340 483 319 q 478 379 481 360 q 358 347 406 364 q 281 308 310 329 q 239 260 251 288 q 226 199 226 233 q 254 113 226 138 q 314 88 282 88 m 453 888 l 338 888 l 285 926 q 193 1001 218 975 q 168 1047 168 1026 q 185 1088 168 1071 q 246 1106 201 1106 q 282 1100 265 1106 q 314 1082 299 1094 q 347 1048 329 1069 q 385 993 364 1026 l 453 888 z "},"è":{"ha":772,"x_min":53,"x_max":724,"o":"m 235 356 q 263 199 235 261 q 415 100 307 100 q 538 127 478 100 q 640 211 597 154 l 715 153 q 584 35 667 83 q 381 -14 501 -14 q 205 27 278 -14 q 93 147 132 68 q 63 242 72 190 q 53 357 53 294 q 142 658 53 551 q 396 764 231 764 q 532 741 471 764 q 635 676 593 718 q 701 572 678 633 q 724 432 724 510 q 723 402 724 417 q 719 356 722 388 l 235 356 m 393 668 q 236 444 250 668 l 542 444 l 542 481 q 503 619 542 571 q 393 668 464 668 m 481 888 l 365 888 l 313 926 q 221 1001 246 975 q 196 1047 196 1026 q 213 1088 196 1071 q 274 1106 229 1106 q 310 1100 293 1106 q 342 1082 326 1094 q 374 1048 357 1069 q 413 993 392 1026 l 481 888 z "},"ò":{"ha":825,"x_min":51,"x_max":774,"o":"m 774 375 q 748 208 774 286 q 674 76 722 129 q 564 7 628 28 q 413 -14 500 -14 q 261 7 325 -14 q 151 76 197 28 q 77 208 103 129 q 51 375 51 286 q 77 542 51 464 q 151 674 103 621 q 261 743 197 722 q 413 764 325 764 q 564 743 500 764 q 674 674 628 722 q 748 542 722 621 q 774 375 774 464 m 286 135 q 413 79 324 79 q 539 135 501 79 q 583 375 583 203 q 539 615 583 547 q 413 671 501 671 q 286 615 324 671 q 242 375 242 547 q 286 135 242 203 m 472 888 l 357 888 l 304 926 q 213 1001 238 975 q 188 1047 188 1026 q 204 1088 188 1071 q 265 1106 221 1106 q 301 1100 285 1106 q 333 1082 318 1094 q 366 1048 349 1069 q 404 993 383 1026 l 472 888 z "},"ù":{"ha":906,"x_min":33,"x_max":879,"o":"m 303 378 q 303 301 303 333 q 306 244 304 268 q 312 203 308 219 q 319 174 315 186 q 356 123 331 140 q 408 106 382 106 q 476 119 446 106 q 533 157 507 133 q 578 222 564 185 q 596 317 593 258 l 596 646 l 475 672 l 475 750 l 772 750 l 772 104 l 879 78 l 879 0 l 622 -14 l 607 139 l 601 139 q 492 27 561 68 q 343 -14 422 -14 q 247 6 290 -14 q 178 61 203 25 q 138 170 150 100 q 126 360 126 240 l 126 646 l 33 672 l 33 750 l 303 750 l 303 378 m 506 888 l 390 888 l 338 926 q 246 1001 271 975 q 221 1047 221 1026 q 238 1088 221 1071 q 299 1106 254 1106 q 335 1100 318 1106 q 367 1082 351 1094 q 399 1048 382 1069 q 438 993 417 1026 l 506 888 z "},"ẁ":{"ha":1233,"x_min":11,"x_max":1221,"o":"m 386 208 l 400 126 l 407 126 l 422 208 l 567 764 l 708 764 l 857 210 l 871 128 l 876 128 l 893 210 l 1006 644 l 915 671 l 915 749 l 1221 749 l 1221 671 l 1146 644 l 946 -14 l 761 -14 l 617 488 l 476 -14 l 292 -14 l 85 644 l 11 671 l 11 749 l 364 749 l 364 671 l 268 644 l 386 208 m 719 888 l 604 888 l 551 926 q 460 1001 485 975 q 435 1047 435 1026 q 451 1088 435 1071 q 513 1106 468 1106 q 549 1100 532 1106 q 581 1082 565 1094 q 613 1048 596 1069 q 651 993 631 1026 l 719 888 z "},"ỳ":{"ha":833,"x_min":-1,"x_max":819,"o":"m 511 33 q 448 -104 476 -47 q 388 -197 419 -161 q 319 -248 357 -232 q 228 -264 282 -264 q 166 -255 194 -264 q 116 -229 138 -246 q 82 -190 94 -212 q 69 -142 69 -168 q 98 -62 69 -93 q 172 -31 126 -31 q 234 -49 213 -31 q 256 -103 256 -67 q 252 -120 256 -110 q 241 -141 249 -131 q 221 -158 233 -151 q 192 -165 208 -165 q 208 -184 194 -179 q 232 -189 221 -189 q 259 -185 246 -189 q 285 -169 272 -182 q 313 -130 299 -156 q 344 -61 328 -104 l 361 -10 l 82 646 l -1 672 l -1 750 l 351 750 l 363 672 l 264 646 l 435 164 l 440 164 l 594 646 l 514 672 l 514 750 l 819 750 l 819 672 l 735 646 l 511 33 m 532 888 l 417 888 l 364 926 q 272 1001 297 975 q 247 1047 247 1026 q 264 1088 247 1071 q 325 1106 281 1106 q 361 1100 344 1106 q 393 1082 378 1094 q 426 1048 408 1069 q 464 993 443 1026 l 532 888 z "},"ì":{"ha":460,"x_min":13,"x_max":433,"o":"m 43 672 l 43 750 l 326 750 l 326 104 l 433 78 l 433 0 l 43 0 l 43 78 l 150 104 l 150 646 l 43 672 m 297 888 l 182 888 l 129 926 q 38 1001 63 975 q 13 1047 13 1026 q 29 1088 13 1071 q 90 1106 46 1106 q 126 1100 110 1106 q 158 1082 143 1094 q 191 1048 174 1069 q 229 993 208 1026 l 297 888 z "},"ő":{"ha":825,"x_min":51,"x_max":774,"o":"m 774 375 q 748 208 774 286 q 674 76 722 129 q 564 7 628 28 q 413 -14 500 -14 q 261 7 325 -14 q 151 76 197 28 q 77 208 103 129 q 51 375 51 286 q 77 542 51 464 q 151 674 103 621 q 261 743 197 722 q 413 764 325 764 q 564 743 500 764 q 674 674 628 722 q 748 542 722 621 q 774 375 774 464 m 286 135 q 413 79 324 79 q 539 135 501 79 q 583 375 583 203 q 539 615 583 547 q 413 671 501 671 q 286 615 324 671 q 242 375 242 547 q 286 135 242 203 m 281 993 q 319 1048 301 1026 q 351 1082 336 1069 q 383 1100 367 1094 q 419 1106 400 1106 q 481 1088 464 1106 q 497 1047 497 1071 q 472 1001 497 1026 q 381 926 447 975 l 328 888 l 213 888 l 281 993 m 551 993 q 590 1048 572 1026 q 622 1082 607 1069 q 654 1100 638 1094 q 690 1106 671 1106 q 751 1088 735 1106 q 768 1047 768 1071 q 743 1001 768 1026 q 651 926 718 975 l 599 888 l 483 888 l 551 993 z "},"ű":{"ha":906,"x_min":33,"x_max":879,"o":"m 303 378 q 303 301 303 333 q 306 244 304 268 q 312 203 308 219 q 319 174 315 186 q 356 123 331 140 q 408 106 382 106 q 476 119 446 106 q 533 157 507 133 q 578 222 564 185 q 596 317 593 258 l 596 646 l 475 672 l 475 750 l 772 750 l 772 104 l 879 78 l 879 0 l 622 -14 l 607 139 l 601 139 q 492 27 561 68 q 343 -14 422 -14 q 247 6 290 -14 q 178 61 203 25 q 138 170 150 100 q 126 360 126 240 l 126 646 l 33 672 l 33 750 l 303 750 l 303 378 m 314 993 q 352 1048 335 1026 q 385 1082 369 1069 q 417 1100 400 1094 q 453 1106 433 1106 q 514 1088 497 1106 q 531 1047 531 1071 q 506 1001 531 1026 q 414 926 481 975 l 361 888 l 246 888 l 314 993 m 585 993 q 623 1048 606 1026 q 656 1082 640 1069 q 688 1100 671 1094 q 724 1106 704 1106 q 785 1088 768 1106 q 801 1047 801 1071 q 776 1001 801 1026 q 685 926 751 975 l 632 888 l 517 888 l 585 993 z "},"ã":{"ha":763,"x_min":42,"x_max":771,"o":"m 42 164 q 67 265 42 221 q 147 342 93 308 q 283 399 200 375 q 479 440 365 422 q 463 547 472 510 q 439 611 454 583 q 394 663 419 643 q 328 682 368 682 q 274 671 299 682 q 242 640 250 660 q 269 609 261 629 q 276 574 276 589 q 246 512 276 539 q 172 485 215 485 q 103 513 128 485 q 79 585 79 542 q 103 661 79 628 q 165 717 126 694 q 252 752 204 740 q 349 764 300 764 q 466 745 414 764 q 550 699 518 726 q 660 390 660 601 l 660 210 q 669 115 660 140 q 708 89 678 89 l 771 89 l 771 26 q 578 -14 643 -14 q 540 -7 554 -14 q 517 17 525 0 q 505 63 508 33 q 501 138 501 92 l 496 138 q 382 26 453 67 q 229 -14 311 -14 q 92 33 142 -14 q 42 164 42 81 m 314 88 q 378 106 343 88 q 440 161 414 125 q 469 217 456 181 q 483 303 483 253 q 482 340 483 319 q 478 379 481 360 q 358 347 406 364 q 281 308 310 329 q 239 260 251 288 q 226 199 226 233 q 254 113 226 138 q 314 88 282 88 m 72 867 q 124 1018 75 968 q 249 1068 172 1068 q 310 1056 283 1068 q 358 1030 336 1044 q 402 1003 381 1015 q 451 992 424 992 q 514 1010 493 992 q 542 1061 535 1028 l 625 1061 q 449 851 596 851 q 388 863 414 851 q 340 890 363 875 q 294 917 317 904 q 246 929 272 929 q 183 913 204 929 q 156 867 163 896 l 72 867 z "},"ẽ":{"ha":772,"x_min":53,"x_max":724,"o":"m 235 356 q 263 199 235 261 q 415 100 307 100 q 538 127 478 100 q 640 211 597 154 l 715 153 q 584 35 667 83 q 381 -14 501 -14 q 205 27 278 -14 q 93 147 132 68 q 63 242 72 190 q 53 357 53 294 q 142 658 53 551 q 396 764 231 764 q 532 741 471 764 q 635 676 593 718 q 701 572 678 633 q 724 432 724 510 q 723 402 724 417 q 719 356 722 388 l 235 356 m 393 668 q 236 444 250 668 l 542 444 l 542 481 q 503 619 542 571 q 393 668 464 668 m 107 867 q 158 1018 110 968 q 283 1068 207 1068 q 344 1056 318 1068 q 393 1030 371 1044 q 437 1003 415 1015 q 486 992 458 992 q 549 1010 528 992 q 576 1061 569 1028 l 660 1061 q 483 851 631 851 q 423 863 449 851 q 374 890 397 875 q 329 917 351 904 q 281 929 307 929 q 218 913 239 929 q 190 867 197 896 l 107 867 z "},"ñ":{"ha":936,"x_min":43,"x_max":914,"o":"m 150 646 l 43 672 l 43 750 l 285 750 l 315 611 l 321 611 q 433 723 363 682 q 585 764 503 764 q 685 744 640 764 q 756 689 729 725 q 795 580 783 650 q 807 390 807 510 l 807 104 l 914 78 l 914 0 l 538 0 l 538 78 l 631 104 l 631 372 q 626 502 631 456 q 608 576 621 549 q 567 626 593 613 q 504 640 540 640 q 389 596 436 640 q 326 433 332 543 l 326 104 l 419 78 l 419 0 l 43 0 l 43 78 l 150 104 l 150 646 m 219 867 q 271 1018 222 968 q 396 1068 319 1068 q 457 1056 431 1068 q 506 1030 483 1044 q 549 1003 528 1015 q 599 992 571 992 q 661 1010 640 992 q 689 1061 682 1028 l 772 1061 q 596 851 743 851 q 535 863 561 851 q 487 890 510 875 q 442 917 464 904 q 393 929 419 929 q 331 913 351 929 q 303 867 310 896 l 219 867 z "},"õ":{"ha":825,"x_min":51,"x_max":774,"o":"m 774 375 q 748 208 774 286 q 674 76 722 129 q 564 7 628 28 q 413 -14 500 -14 q 261 7 325 -14 q 151 76 197 28 q 77 208 103 129 q 51 375 51 286 q 77 542 51 464 q 151 674 103 621 q 261 743 197 722 q 413 764 325 764 q 564 743 500 764 q 674 674 628 722 q 748 542 722 621 q 774 375 774 464 m 286 135 q 413 79 324 79 q 539 135 501 79 q 583 375 583 203 q 539 615 583 547 q 413 671 501 671 q 286 615 324 671 q 242 375 242 547 q 286 135 242 203 m 136 867 q 188 1018 139 968 q 313 1068 236 1068 q 374 1056 347 1068 q 422 1030 400 1044 q 466 1003 444 1015 q 515 992 488 992 q 578 1010 557 992 q 606 1061 599 1028 l 689 1061 q 513 851 660 851 q 452 863 478 851 q 403 890 426 875 q 358 917 381 904 q 310 929 336 929 q 247 913 268 929 q 219 867 226 896 l 136 867 z "},"ũ":{"ha":906,"x_min":33,"x_max":879,"o":"m 303 378 q 303 301 303 333 q 306 244 304 268 q 312 203 308 219 q 319 174 315 186 q 356 123 331 140 q 408 106 382 106 q 476 119 446 106 q 533 157 507 133 q 578 222 564 185 q 596 317 593 258 l 596 646 l 475 672 l 475 750 l 772 750 l 772 104 l 879 78 l 879 0 l 622 -14 l 607 139 l 601 139 q 492 27 561 68 q 343 -14 422 -14 q 247 6 290 -14 q 178 61 203 25 q 138 170 150 100 q 126 360 126 240 l 126 646 l 33 672 l 33 750 l 303 750 l 303 378 m 169 867 q 221 1018 172 968 q 346 1068 269 1068 q 407 1056 381 1068 q 456 1030 433 1044 q 499 1003 478 1015 q 549 992 521 992 q 611 1010 590 992 q 639 1061 632 1028 l 722 1061 q 546 851 693 851 q 485 863 511 851 q 437 890 460 875 q 392 917 414 904 q 343 929 369 929 q 281 913 301 929 q 253 867 260 896 l 169 867 z "},"ỹ":{"ha":833,"x_min":-1,"x_max":819,"o":"m 511 33 q 448 -104 476 -47 q 388 -197 419 -161 q 319 -248 357 -232 q 228 -264 282 -264 q 166 -255 194 -264 q 116 -229 138 -246 q 82 -190 94 -212 q 69 -142 69 -168 q 98 -62 69 -93 q 172 -31 126 -31 q 234 -49 213 -31 q 256 -103 256 -67 q 252 -120 256 -110 q 241 -141 249 -131 q 221 -158 233 -151 q 192 -165 208 -165 q 208 -184 194 -179 q 232 -189 221 -189 q 259 -185 246 -189 q 285 -169 272 -182 q 313 -130 299 -156 q 344 -61 328 -104 l 361 -10 l 82 646 l -1 672 l -1 750 l 351 750 l 363 672 l 264 646 l 435 164 l 440 164 l 594 646 l 514 672 l 514 750 l 819 750 l 819 672 l 735 646 l 511 33 m 165 867 q 217 1018 168 968 q 342 1068 265 1068 q 403 1056 376 1068 q 451 1030 429 1044 q 495 1003 474 1015 q 544 992 517 992 q 607 1010 586 992 q 635 1061 628 1028 l 718 1061 q 542 851 689 851 q 481 863 507 851 q 433 890 456 875 q 388 917 410 904 q 339 929 365 929 q 276 913 297 929 q 249 867 256 896 l 165 867 z "},"ĩ":{"ha":460,"x_min":-39,"x_max":514,"o":"m 43 672 l 43 750 l 326 750 l 326 104 l 433 78 l 433 0 l 43 0 l 43 78 l 150 104 l 150 646 l 43 672 m -39 867 q 13 1018 -36 968 q 138 1068 61 1068 q 199 1056 172 1068 q 247 1030 225 1044 q 291 1003 269 1015 q 340 992 313 992 q 403 1010 382 992 q 431 1061 424 1028 l 514 1061 q 338 851 485 851 q 277 863 303 851 q 228 890 251 875 q 183 917 206 904 q 135 929 161 929 q 72 913 93 929 q 44 867 51 896 l -39 867 z "},"ˆ":{"ha":489,"x_min":35,"x_max":454,"o":"m 454 888 l 339 888 l 244 993 l 150 888 l 35 888 l 157 1097 l 331 1097 l 454 888 z "},"ˇ":{"ha":489,"x_min":35,"x_max":454,"o":"m 331 874 l 157 874 l 35 1083 l 150 1083 l 244 978 l 339 1083 l 454 1083 l 331 874 z "},"â":{"ha":763,"x_min":42,"x_max":771,"o":"m 42 164 q 67 265 42 221 q 147 342 93 308 q 283 399 200 375 q 479 440 365 422 q 463 547 472 510 q 439 611 454 583 q 394 663 419 643 q 328 682 368 682 q 274 671 299 682 q 242 640 250 660 q 269 609 261 629 q 276 574 276 589 q 246 512 276 539 q 172 485 215 485 q 103 513 128 485 q 79 585 79 542 q 103 661 79 628 q 165 717 126 694 q 252 752 204 740 q 349 764 300 764 q 466 745 414 764 q 550 699 518 726 q 660 390 660 601 l 660 210 q 669 115 660 140 q 708 89 678 89 l 771 89 l 771 26 q 578 -14 643 -14 q 540 -7 554 -14 q 517 17 525 0 q 505 63 508 33 q 501 138 501 92 l 496 138 q 382 26 453 67 q 229 -14 311 -14 q 92 33 142 -14 q 42 164 42 81 m 314 88 q 378 106 343 88 q 440 161 414 125 q 469 217 456 181 q 483 303 483 253 q 482 340 483 319 q 478 379 481 360 q 358 347 406 364 q 281 308 310 329 q 239 260 251 288 q 226 199 226 233 q 254 113 226 138 q 314 88 282 88 m 572 888 l 457 888 l 363 993 l 268 888 l 153 888 l 275 1097 l 449 1097 l 572 888 z "},"ĉ":{"ha":758,"x_min":51,"x_max":721,"o":"m 417 764 q 535 749 481 764 q 628 705 589 733 q 690 636 668 676 q 713 547 713 596 q 679 452 713 485 q 597 419 646 419 q 551 428 569 419 q 522 452 533 438 q 505 485 510 467 q 500 521 500 503 q 517 581 500 556 q 569 617 535 606 q 511 657 550 642 q 424 672 472 672 q 345 657 379 672 q 288 608 311 642 q 251 517 264 574 q 239 379 239 461 q 249 261 239 304 q 275 186 258 218 q 332 123 297 146 q 421 100 367 100 q 480 107 449 100 q 541 127 511 114 q 598 161 571 140 q 646 211 625 182 l 721 153 q 570 24 656 63 q 388 -14 485 -14 q 213 26 283 -14 q 101 142 142 65 q 65 244 78 186 q 51 368 51 301 q 76 531 51 458 q 148 656 101 604 q 263 736 194 708 q 417 764 331 764 m 638 888 l 522 888 l 428 993 l 333 888 l 218 888 l 340 1097 l 514 1097 l 638 888 z "},"ê":{"ha":772,"x_min":53,"x_max":724,"o":"m 235 356 q 263 199 235 261 q 415 100 307 100 q 538 127 478 100 q 640 211 597 154 l 715 153 q 584 35 667 83 q 381 -14 501 -14 q 205 27 278 -14 q 93 147 132 68 q 63 242 72 190 q 53 357 53 294 q 142 658 53 551 q 396 764 231 764 q 532 741 471 764 q 635 676 593 718 q 701 572 678 633 q 724 432 724 510 q 723 402 724 417 q 719 356 722 388 l 235 356 m 393 668 q 236 444 250 668 l 542 444 l 542 481 q 503 619 542 571 q 393 668 464 668 m 606 888 l 490 888 l 396 993 l 301 888 l 186 888 l 308 1097 l 482 1097 l 606 888 z "},"ĥ":{"ha":914,"x_min":26,"x_max":897,"o":"m 725 888 l 610 888 l 515 993 l 421 888 l 310 888 l 310 619 q 405 725 346 686 q 535 764 464 764 q 635 749 594 764 q 707 703 676 735 q 770 584 750 658 q 790 390 790 510 l 790 104 l 897 78 l 897 0 l 521 0 l 521 78 l 614 104 l 614 372 q 613 449 614 417 q 609 506 611 482 q 602 547 607 531 q 592 576 597 564 q 469 644 557 644 q 394 625 431 644 q 338 569 358 606 q 318 518 326 550 q 310 439 310 486 l 310 104 l 403 78 l 403 0 l 26 0 l 26 78 l 133 104 l 133 979 l 26 1006 l 26 1083 l 310 1083 l 310 894 l 428 1097 l 601 1097 l 725 888 z "},"ô":{"ha":825,"x_min":51,"x_max":774,"o":"m 774 375 q 748 208 774 286 q 674 76 722 129 q 564 7 628 28 q 413 -14 500 -14 q 261 7 325 -14 q 151 76 197 28 q 77 208 103 129 q 51 375 51 286 q 77 542 51 464 q 151 674 103 621 q 261 743 197 722 q 413 764 325 764 q 564 743 500 764 q 674 674 628 722 q 748 542 722 621 q 774 375 774 464 m 286 135 q 413 79 324 79 q 539 135 501 79 q 583 375 583 203 q 539 615 583 547 q 413 671 501 671 q 286 615 324 671 q 242 375 242 547 q 286 135 242 203 m 622 888 l 507 888 l 413 993 l 318 888 l 203 888 l 325 1097 l 499 1097 l 622 888 z "},"ŝ":{"ha":717,"x_min":51,"x_max":668,"o":"m 338 71 q 403 78 372 71 q 456 97 433 85 q 492 128 479 110 q 506 171 506 147 q 488 219 506 199 q 442 256 471 240 q 378 283 414 271 q 308 306 343 294 q 224 337 265 318 q 151 384 183 356 q 99 451 118 413 q 79 543 79 490 q 151 703 79 643 q 358 764 224 764 q 474 750 422 764 q 561 710 525 736 q 617 649 597 685 q 638 572 638 614 q 612 499 638 524 q 542 474 586 474 q 472 495 497 474 q 447 546 447 517 q 461 591 447 569 q 497 624 475 613 q 445 665 478 650 q 364 679 413 679 q 267 652 299 679 q 235 576 235 625 q 271 494 235 521 q 368 449 307 467 q 478 414 424 432 q 574 369 532 396 q 642 305 617 343 q 668 213 668 267 q 642 116 668 158 q 572 45 617 74 q 465 1 526 17 q 333 -14 404 -14 q 126 35 200 -14 q 51 167 51 83 q 83 256 51 224 q 160 288 115 288 q 222 269 193 288 q 250 215 250 250 q 235 167 250 190 q 200 132 219 143 q 246 90 214 110 q 338 71 278 71 m 585 888 l 469 888 l 375 993 l 281 888 l 165 888 l 288 1097 l 461 1097 l 585 888 z "},"û":{"ha":906,"x_min":33,"x_max":879,"o":"m 303 378 q 303 301 303 333 q 306 244 304 268 q 312 203 308 219 q 319 174 315 186 q 356 123 331 140 q 408 106 382 106 q 476 119 446 106 q 533 157 507 133 q 578 222 564 185 q 596 317 593 258 l 596 646 l 475 672 l 475 750 l 772 750 l 772 104 l 879 78 l 879 0 l 622 -14 l 607 139 l 601 139 q 492 27 561 68 q 343 -14 422 -14 q 247 6 290 -14 q 178 61 203 25 q 138 170 150 100 q 126 360 126 240 l 126 646 l 33 672 l 33 750 l 303 750 l 303 378 m 656 888 l 540 888 l 446 993 l 351 888 l 236 888 l 358 1097 l 532 1097 l 656 888 z "},"ŵ":{"ha":1233,"x_min":11,"x_max":1221,"o":"m 386 208 l 400 126 l 407 126 l 422 208 l 567 764 l 708 764 l 857 210 l 871 128 l 876 128 l 893 210 l 1006 644 l 915 671 l 915 749 l 1221 749 l 1221 671 l 1146 644 l 946 -14 l 761 -14 l 617 488 l 476 -14 l 292 -14 l 85 644 l 11 671 l 11 749 l 364 749 l 364 671 l 268 644 l 386 208 m 847 888 l 732 888 l 638 993 l 543 888 l 428 888 l 550 1097 l 724 1097 l 847 888 z "},"ŷ":{"ha":833,"x_min":-1,"x_max":819,"o":"m 511 33 q 448 -104 476 -47 q 388 -197 419 -161 q 319 -248 357 -232 q 228 -264 282 -264 q 166 -255 194 -264 q 116 -229 138 -246 q 82 -190 94 -212 q 69 -142 69 -168 q 98 -62 69 -93 q 172 -31 126 -31 q 234 -49 213 -31 q 256 -103 256 -67 q 252 -120 256 -110 q 241 -141 249 -131 q 221 -158 233 -151 q 192 -165 208 -165 q 208 -184 194 -179 q 232 -189 221 -189 q 259 -185 246 -189 q 285 -169 272 -182 q 313 -130 299 -156 q 344 -61 328 -104 l 361 -10 l 82 646 l -1 672 l -1 750 l 351 750 l 363 672 l 264 646 l 435 164 l 440 164 l 594 646 l 514 672 l 514 750 l 819 750 l 819 672 l 735 646 l 511 33 m 651 888 l 536 888 l 442 993 l 347 888 l 232 888 l 354 1097 l 528 1097 l 651 888 z "},"ĝ":{"ha":799,"x_min":29,"x_max":797,"o":"m 733 -8 q 642 -196 733 -136 q 350 -256 550 -256 q 225 -247 283 -256 q 123 -217 167 -237 q 54 -162 79 -196 q 29 -81 29 -129 q 69 22 29 -17 q 189 64 110 61 l 189 69 q 83 175 83 99 q 91 219 83 196 q 116 262 99 242 q 160 297 133 282 q 226 318 188 313 q 110 392 151 336 q 69 525 69 449 q 144 700 69 636 q 360 764 218 764 q 441 760 406 764 q 505 747 476 756 q 556 727 533 739 q 599 700 578 715 l 646 717 l 774 778 l 797 778 l 797 635 l 774 635 l 676 646 l 642 646 q 669 533 669 603 q 599 353 669 419 q 394 288 529 288 q 366 288 379 288 q 339 290 353 289 q 252 266 285 283 q 219 217 219 249 q 245 183 219 192 q 342 174 271 174 l 503 174 q 733 -8 733 174 m 351 46 q 217 17 258 46 q 175 -60 175 -12 q 374 -165 175 -165 q 536 -135 481 -165 q 592 -43 592 -104 q 549 26 592 6 q 400 46 506 46 l 351 46 m 233 531 q 267 411 233 451 q 363 371 300 371 q 472 411 438 371 q 506 531 506 451 q 472 642 506 604 q 363 679 438 679 q 267 642 300 679 q 233 531 233 604 m 581 888 l 465 888 l 371 993 l 276 888 l 161 888 l 283 1097 l 457 1097 l 581 888 z "},"î":{"ha":460,"x_min":28,"x_max":447,"o":"m 43 672 l 43 750 l 326 750 l 326 104 l 433 78 l 433 0 l 43 0 l 43 78 l 150 104 l 150 646 l 43 672 m 447 888 l 332 888 l 238 993 l 143 888 l 28 888 l 150 1097 l 324 1097 l 447 888 z "},"ĵ":{"ha":417,"x_min":-124,"x_max":433,"o":"m 313 118 q 306 -44 313 15 q 282 -140 299 -103 q 206 -232 256 -200 q 82 -264 157 -264 q 10 -256 46 -264 q -56 -231 -26 -247 q -105 -188 -86 -214 q -124 -126 -124 -162 q -99 -59 -124 -86 q -28 -32 -75 -32 q 35 -52 11 -32 q 60 -112 60 -72 q 54 -144 60 -129 q 38 -171 49 -160 q 52 -188 40 -183 q 75 -193 64 -193 q 110 -176 97 -193 q 128 -134 122 -158 q 135 -82 135 -110 q 136 -33 136 -54 l 136 646 l 29 672 l 29 750 l 313 750 l 313 118 m 433 888 l 318 888 l 224 993 l 129 888 l 14 888 l 136 1097 l 310 1097 l 433 888 z "},"č":{"ha":758,"x_min":51,"x_max":721,"o":"m 417 764 q 535 749 481 764 q 628 705 589 733 q 690 636 668 676 q 713 547 713 596 q 679 452 713 485 q 597 419 646 419 q 551 428 569 419 q 522 452 533 438 q 505 485 510 467 q 500 521 500 503 q 517 581 500 556 q 569 617 535 606 q 511 657 550 642 q 424 672 472 672 q 345 657 379 672 q 288 608 311 642 q 251 517 264 574 q 239 379 239 461 q 249 261 239 304 q 275 186 258 218 q 332 123 297 146 q 421 100 367 100 q 480 107 449 100 q 541 127 511 114 q 598 161 571 140 q 646 211 625 182 l 721 153 q 570 24 656 63 q 388 -14 485 -14 q 213 26 283 -14 q 101 142 142 65 q 65 244 78 186 q 51 368 51 301 q 76 531 51 458 q 148 656 101 604 q 263 736 194 708 q 417 764 331 764 m 514 874 l 340 874 l 218 1083 l 333 1083 l 428 978 l 522 1083 l 638 1083 l 514 874 z "},"ě":{"ha":772,"x_min":53,"x_max":724,"o":"m 235 356 q 263 199 235 261 q 415 100 307 100 q 538 127 478 100 q 640 211 597 154 l 715 153 q 584 35 667 83 q 381 -14 501 -14 q 205 27 278 -14 q 93 147 132 68 q 63 242 72 190 q 53 357 53 294 q 142 658 53 551 q 396 764 231 764 q 532 741 471 764 q 635 676 593 718 q 701 572 678 633 q 724 432 724 510 q 723 402 724 417 q 719 356 722 388 l 235 356 m 393 668 q 236 444 250 668 l 542 444 l 542 481 q 503 619 542 571 q 393 668 464 668 m 469 874 l 296 874 l 174 1083 l 289 1083 l 383 978 l 478 1083 l 593 1083 l 469 874 z "},"ň":{"ha":936,"x_min":43,"x_max":914,"o":"m 150 646 l 43 672 l 43 750 l 285 750 l 315 611 l 321 611 q 433 723 363 682 q 585 764 503 764 q 685 744 640 764 q 756 689 729 725 q 795 580 783 650 q 807 390 807 510 l 807 104 l 914 78 l 914 0 l 538 0 l 538 78 l 631 104 l 631 372 q 626 502 631 456 q 608 576 621 549 q 567 626 593 613 q 504 640 540 640 q 389 596 436 640 q 326 433 332 543 l 326 104 l 419 78 l 419 0 l 43 0 l 43 78 l 150 104 l 150 646 m 582 874 l 408 874 l 286 1083 l 401 1083 l 496 978 l 590 1083 l 706 1083 l 582 874 z "},"ř":{"ha":658,"x_min":40,"x_max":650,"o":"m 458 649 q 432 638 446 649 q 405 610 418 626 q 381 574 392 593 q 365 542 371 556 q 336 444 349 493 q 324 322 324 394 l 324 104 l 474 78 l 474 0 l 40 0 l 40 78 l 147 104 l 147 667 l 40 693 l 40 750 l 282 750 l 313 567 l 318 567 q 403 713 350 663 q 524 764 457 764 q 614 730 578 764 q 650 639 650 696 q 625 563 650 597 q 554 529 600 529 q 474 555 497 529 q 451 611 451 581 q 453 627 451 621 q 458 649 454 633 m 436 874 l 263 874 l 140 1083 l 256 1083 l 350 978 l 444 1083 l 560 1083 l 436 874 z "},"š":{"ha":717,"x_min":51,"x_max":668,"o":"m 338 71 q 403 78 372 71 q 456 97 433 85 q 492 128 479 110 q 506 171 506 147 q 488 219 506 199 q 442 256 471 240 q 378 283 414 271 q 308 306 343 294 q 224 337 265 318 q 151 384 183 356 q 99 451 118 413 q 79 543 79 490 q 151 703 79 643 q 358 764 224 764 q 474 750 422 764 q 561 710 525 736 q 617 649 597 685 q 638 572 638 614 q 612 499 638 524 q 542 474 586 474 q 472 495 497 474 q 447 546 447 517 q 461 591 447 569 q 497 624 475 613 q 445 665 478 650 q 364 679 413 679 q 267 652 299 679 q 235 576 235 625 q 271 494 235 521 q 368 449 307 467 q 478 414 424 432 q 574 369 532 396 q 642 305 617 343 q 668 213 668 267 q 642 116 668 158 q 572 45 617 74 q 465 1 526 17 q 333 -14 404 -14 q 126 35 200 -14 q 51 167 51 83 q 83 256 51 224 q 160 288 115 288 q 222 269 193 288 q 250 215 250 250 q 235 167 250 190 q 200 132 219 143 q 246 90 214 110 q 338 71 278 71 m 461 874 l 288 874 l 165 1083 l 281 1083 l 375 978 l 469 1083 l 585 1083 l 461 874 z "},"ž":{"ha":775,"x_min":54,"x_max":711,"o":"m 590 288 l 711 288 l 711 0 l 54 0 l 54 99 l 489 651 l 226 651 l 193 469 l 72 469 l 72 750 l 706 750 l 706 651 l 272 99 l 563 99 l 590 288 m 475 874 l 301 874 l 179 1083 l 294 1083 l 389 978 l 483 1083 l 599 1083 l 475 874 z "},"ḍ":{"ha":883,"x_min":53,"x_max":857,"o":"m 53 374 q 78 545 53 465 q 147 674 103 625 q 368 764 229 764 q 483 740 433 764 q 574 656 533 717 l 574 979 l 467 1006 l 467 1083 l 750 1083 l 750 104 l 857 78 l 857 0 l 600 -14 l 589 100 q 492 10 546 35 q 365 -14 438 -14 q 237 9 289 -14 q 149 74 185 32 q 79 200 106 122 q 53 374 53 278 m 574 369 q 560 509 574 450 q 526 600 546 568 q 399 669 483 669 q 331 656 365 669 q 276 606 296 642 q 249 515 258 572 q 240 386 240 457 q 251 246 240 306 q 279 154 263 186 q 332 99 299 118 q 406 79 365 79 q 471 94 438 79 q 526 143 504 108 q 561 238 549 179 q 574 369 574 296 z "},"ẹ":{"ha":772,"x_min":53,"x_max":724,"o":"m 235 356 q 263 199 235 261 q 415 100 307 100 q 538 127 478 100 q 640 211 597 154 l 715 153 q 584 35 667 83 q 381 -14 501 -14 q 205 27 278 -14 q 93 147 132 68 q 63 242 72 190 q 53 357 53 294 q 142 658 53 551 q 396 764 231 764 q 532 741 471 764 q 635 676 593 718 q 701 572 678 633 q 724 432 724 510 q 723 402 724 417 q 719 356 722 388 l 235 356 m 393 668 q 236 444 250 668 l 542 444 l 542 481 q 503 619 542 571 q 393 668 464 668 z "},"ḥ":{"ha":914,"x_min":26,"x_max":897,"o":"m 614 372 q 613 449 614 417 q 609 506 611 482 q 602 547 607 531 q 592 576 597 564 q 469 644 557 644 q 394 625 431 644 q 338 569 358 606 q 318 518 326 550 q 310 439 310 486 l 310 104 l 403 78 l 403 0 l 26 0 l 26 78 l 133 104 l 133 979 l 26 1006 l 26 1083 l 310 1083 l 310 619 q 405 725 346 686 q 535 764 464 764 q 635 749 594 764 q 707 703 676 735 q 770 584 750 658 q 790 390 790 510 l 790 104 l 897 78 l 897 0 l 521 0 l 521 78 l 614 104 l 614 372 z "},"ị":{"ha":460,"x_min":43,"x_max":433,"o":"m 43 672 l 43 750 l 326 750 l 326 104 l 433 78 l 433 0 l 43 0 l 43 78 l 150 104 l 150 646 l 43 672 m 135 961 q 162 1033 135 1006 q 238 1061 189 1061 q 314 1033 286 1061 q 342 961 342 1006 q 315 890 342 917 q 238 863 288 863 q 161 890 188 863 q 135 961 135 917 z "},"ọ":{"ha":825,"x_min":51,"x_max":774,"o":"m 774 375 q 748 208 774 286 q 674 76 722 129 q 564 7 628 28 q 413 -14 500 -14 q 261 7 325 -14 q 151 76 197 28 q 77 208 103 129 q 51 375 51 286 q 77 542 51 464 q 151 674 103 621 q 261 743 197 722 q 413 764 325 764 q 564 743 500 764 q 674 674 628 722 q 748 542 722 621 q 774 375 774 464 m 286 135 q 413 79 324 79 q 539 135 501 79 q 583 375 583 203 q 539 615 583 547 q 413 671 501 671 q 286 615 324 671 q 242 375 242 547 q 286 135 242 203 z "},"ṛ":{"ha":658,"x_min":40,"x_max":650,"o":"m 458 649 q 432 638 446 649 q 405 610 418 626 q 381 574 392 593 q 365 542 371 556 q 336 444 349 493 q 324 322 324 394 l 324 104 l 474 78 l 474 0 l 40 0 l 40 78 l 147 104 l 147 667 l 40 693 l 40 750 l 282 750 l 313 567 l 318 567 q 403 713 350 663 q 524 764 457 764 q 614 730 578 764 q 650 639 650 696 q 625 563 650 597 q 554 529 600 529 q 474 555 497 529 q 451 611 451 581 q 453 627 451 621 q 458 649 454 633 z "},"ṣ":{"ha":717,"x_min":51,"x_max":668,"o":"m 338 71 q 403 78 372 71 q 456 97 433 85 q 492 128 479 110 q 506 171 506 147 q 488 219 506 199 q 442 256 471 240 q 378 283 414 271 q 308 306 343 294 q 224 337 265 318 q 151 384 183 356 q 99 451 118 413 q 79 543 79 490 q 151 703 79 643 q 358 764 224 764 q 474 750 422 764 q 561 710 525 736 q 617 649 597 685 q 638 572 638 614 q 612 499 638 524 q 542 474 586 474 q 472 495 497 474 q 447 546 447 517 q 461 591 447 569 q 497 624 475 613 q 445 665 478 650 q 364 679 413 679 q 267 652 299 679 q 235 576 235 625 q 271 494 235 521 q 368 449 307 467 q 478 414 424 432 q 574 369 532 396 q 642 305 617 343 q 668 213 668 267 q 642 116 668 158 q 572 45 617 74 q 465 1 526 17 q 333 -14 404 -14 q 126 35 200 -14 q 51 167 51 83 q 83 256 51 224 q 160 288 115 288 q 222 269 193 288 q 250 215 250 250 q 235 167 250 190 q 200 132 219 143 q 246 90 214 110 q 338 71 278 71 z "},"ṭ":{"ha":507,"x_min":7,"x_max":496,"o":"m 7 731 l 143 750 l 160 922 l 318 944 l 318 750 l 496 750 l 496 660 l 318 660 l 318 206 q 319 141 318 158 q 325 113 321 124 q 340 100 329 104 q 376 96 351 96 l 474 96 l 474 35 q 331 -2 393 10 q 233 -14 269 -14 q 153 38 171 -14 q 144 80 146 54 q 142 158 142 106 l 142 660 l 7 660 l 7 731 z "},"ụ":{"ha":906,"x_min":33,"x_max":879,"o":"m 303 378 q 303 301 303 333 q 306 244 304 268 q 312 203 308 219 q 319 174 315 186 q 356 123 331 140 q 408 106 382 106 q 476 119 446 106 q 533 157 507 133 q 578 222 564 185 q 596 317 593 258 l 596 646 l 475 672 l 475 750 l 772 750 l 772 104 l 879 78 l 879 0 l 622 -14 l 607 139 l 601 139 q 492 27 561 68 q 343 -14 422 -14 q 247 6 290 -14 q 178 61 203 25 q 138 170 150 100 q 126 360 126 240 l 126 646 l 33 672 l 33 750 l 303 750 l 303 378 z "},"ẓ":{"ha":775,"x_min":54,"x_max":711,"o":"m 590 288 l 711 288 l 711 0 l 54 0 l 54 99 l 489 651 l 226 651 l 193 469 l 72 469 l 72 750 l 706 750 l 706 651 l 272 99 l 563 99 l 590 288 z "},"/":{"ha":446,"x_min":61,"x_max":385,"o":"m 264 1014 l 385 1014 l 182 -14 l 61 -14 l 264 1014 z "},"\\":{"ha":446,"x_min":61,"x_max":385,"o":"m 385 -14 l 264 -14 l 61 1014 l 182 1014 l 385 -14 z "},"⁄":{"ha":56,"x_min":-299,"x_max":354,"o":"m 238 1014 l 354 1014 l -182 -14 l -299 -14 l 238 1014 z "},"∕":{"ha":599,"x_min":-26,"x_max":626,"o":"m 510 1014 l 626 1014 l 90 -14 l -26 -14 l 510 1014 z "},"˘":{"ha":506,"x_min":28,"x_max":478,"o":"m 478 1083 q 458 977 476 1024 q 410 898 440 931 q 337 849 379 865 q 244 832 294 832 q 84 901 140 832 q 28 1083 28 971 l 115 1083 q 154 996 118 1022 q 244 969 190 969 q 352 996 314 969 q 390 1083 390 1022 l 478 1083 z "},"ă":{"ha":763,"x_min":42,"x_max":771,"o":"m 42 164 q 67 265 42 221 q 147 342 93 308 q 283 399 200 375 q 479 440 365 422 q 463 547 472 510 q 439 611 454 583 q 394 663 419 643 q 328 682 368 682 q 274 671 299 682 q 242 640 250 660 q 269 609 261 629 q 276 574 276 589 q 246 512 276 539 q 172 485 215 485 q 103 513 128 485 q 79 585 79 542 q 103 661 79 628 q 165 717 126 694 q 252 752 204 740 q 349 764 300 764 q 466 745 414 764 q 550 699 518 726 q 660 390 660 601 l 660 210 q 669 115 660 140 q 708 89 678 89 l 771 89 l 771 26 q 578 -14 643 -14 q 540 -7 554 -14 q 517 17 525 0 q 505 63 508 33 q 501 138 501 92 l 496 138 q 382 26 453 67 q 229 -14 311 -14 q 92 33 142 -14 q 42 164 42 81 m 314 88 q 378 106 343 88 q 440 161 414 125 q 469 217 456 181 q 483 303 483 253 q 482 340 483 319 q 478 379 481 360 q 358 347 406 364 q 281 308 310 329 q 239 260 251 288 q 226 199 226 233 q 254 113 226 138 q 314 88 282 88 m 582 1083 q 563 977 581 1024 q 514 898 544 931 q 441 849 483 865 q 349 832 399 832 q 188 901 244 832 q 132 1083 132 971 l 219 1083 q 258 996 222 1022 q 349 969 294 969 q 456 996 418 969 q 494 1083 494 1022 l 582 1083 z "},"ĕ":{"ha":772,"x_min":53,"x_max":724,"o":"m 235 356 q 263 199 235 261 q 415 100 307 100 q 538 127 478 100 q 640 211 597 154 l 715 153 q 584 35 667 83 q 381 -14 501 -14 q 205 27 278 -14 q 93 147 132 68 q 63 242 72 190 q 53 357 53 294 q 142 658 53 551 q 396 764 231 764 q 532 741 471 764 q 635 676 593 718 q 701 572 678 633 q 724 432 724 510 q 723 402 724 417 q 719 356 722 388 l 235 356 m 393 668 q 236 444 250 668 l 542 444 l 542 481 q 503 619 542 571 q 393 668 464 668 m 617 1083 q 597 977 615 1024 q 549 898 579 931 q 476 849 518 865 q 383 832 433 832 q 223 901 279 832 q 167 1083 167 971 l 254 1083 q 293 996 257 1022 q 383 969 329 969 q 491 996 453 969 q 529 1083 529 1022 l 617 1083 z "},"ŏ":{"ha":825,"x_min":51,"x_max":774,"o":"m 774 375 q 748 208 774 286 q 674 76 722 129 q 564 7 628 28 q 413 -14 500 -14 q 261 7 325 -14 q 151 76 197 28 q 77 208 103 129 q 51 375 51 286 q 77 542 51 464 q 151 674 103 621 q 261 743 197 722 q 413 764 325 764 q 564 743 500 764 q 674 674 628 722 q 748 542 722 621 q 774 375 774 464 m 286 135 q 413 79 324 79 q 539 135 501 79 q 583 375 583 203 q 539 615 583 547 q 413 671 501 671 q 286 615 324 671 q 242 375 242 547 q 286 135 242 203 m 646 1083 q 626 977 644 1024 q 578 898 608 931 q 505 849 547 865 q 413 832 463 832 q 252 901 308 832 q 196 1083 196 971 l 283 1083 q 322 996 286 1022 q 413 969 358 969 q 520 996 482 969 q 558 1083 558 1022 l 646 1083 z "},"ŭ":{"ha":906,"x_min":33,"x_max":879,"o":"m 303 378 q 303 301 303 333 q 306 244 304 268 q 312 203 308 219 q 319 174 315 186 q 356 123 331 140 q 408 106 382 106 q 476 119 446 106 q 533 157 507 133 q 578 222 564 185 q 596 317 593 258 l 596 646 l 475 672 l 475 750 l 772 750 l 772 104 l 879 78 l 879 0 l 622 -14 l 607 139 l 601 139 q 492 27 561 68 q 343 -14 422 -14 q 247 6 290 -14 q 178 61 203 25 q 138 170 150 100 q 126 360 126 240 l 126 646 l 33 672 l 33 750 l 303 750 l 303 378 m 679 1083 q 660 977 678 1024 q 611 898 642 931 q 538 849 581 865 q 446 832 496 832 q 285 901 342 832 q 229 1083 229 971 l 317 1083 q 356 996 319 1022 q 446 969 392 969 q 553 996 515 969 q 592 1083 592 1022 l 679 1083 z "},"ğ":{"ha":799,"x_min":29,"x_max":797,"o":"m 733 -8 q 642 -196 733 -136 q 350 -256 550 -256 q 225 -247 283 -256 q 123 -217 167 -237 q 54 -162 79 -196 q 29 -81 29 -129 q 69 22 29 -17 q 189 64 110 61 l 189 69 q 83 175 83 99 q 91 219 83 196 q 116 262 99 242 q 160 297 133 282 q 226 318 188 313 q 110 392 151 336 q 69 525 69 449 q 144 700 69 636 q 360 764 218 764 q 441 760 406 764 q 505 747 476 756 q 556 727 533 739 q 599 700 578 715 l 646 717 l 774 778 l 797 778 l 797 635 l 774 635 l 676 646 l 642 646 q 669 533 669 603 q 599 353 669 419 q 394 288 529 288 q 366 288 379 288 q 339 290 353 289 q 252 266 285 283 q 219 217 219 249 q 245 183 219 192 q 342 174 271 174 l 503 174 q 733 -8 733 174 m 351 46 q 217 17 258 46 q 175 -60 175 -12 q 374 -165 175 -165 q 536 -135 481 -165 q 592 -43 592 -104 q 549 26 592 6 q 400 46 506 46 l 351 46 m 233 531 q 267 411 233 451 q 363 371 300 371 q 472 411 438 371 q 506 531 506 451 q 472 642 506 604 q 363 679 438 679 q 267 642 300 679 q 233 531 233 604 m 604 1083 q 585 977 603 1024 q 536 898 567 931 q 463 849 506 865 q 371 832 421 832 q 210 901 267 832 q 154 1083 154 971 l 242 1083 q 281 996 244 1022 q 371 969 317 969 q 478 996 440 969 q 517 1083 517 1022 l 604 1083 z "},"˚":{"ha":333,"x_min":28,"x_max":306,"o":"m 28 990 q 67 1090 28 1050 q 165 1131 106 1131 q 265 1090 225 1131 q 306 990 306 1050 q 265 892 306 931 q 165 853 225 853 q 67 892 106 853 q 28 990 28 931 m 126 990 q 138 963 126 974 q 165 951 149 951 q 195 963 183 951 q 207 990 207 974 q 195 1020 207 1008 q 165 1032 183 1032 q 138 1020 149 1032 q 126 990 126 1008 z "},"å":{"ha":763,"x_min":42,"x_max":771,"o":"m 42 164 q 67 265 42 221 q 147 342 93 308 q 283 399 200 375 q 479 440 365 422 q 463 547 472 510 q 439 611 454 583 q 394 663 419 643 q 328 682 368 682 q 274 671 299 682 q 242 640 250 660 q 269 609 261 629 q 276 574 276 589 q 246 512 276 539 q 172 485 215 485 q 103 513 128 485 q 79 585 79 542 q 103 661 79 628 q 165 717 126 694 q 252 752 204 740 q 349 764 300 764 q 466 745 414 764 q 550 699 518 726 q 660 390 660 601 l 660 210 q 669 115 660 140 q 708 89 678 89 l 771 89 l 771 26 q 578 -14 643 -14 q 540 -7 554 -14 q 517 17 525 0 q 505 63 508 33 q 501 138 501 92 l 496 138 q 382 26 453 67 q 229 -14 311 -14 q 92 33 142 -14 q 42 164 42 81 m 314 88 q 378 106 343 88 q 440 161 414 125 q 469 217 456 181 q 483 303 483 253 q 482 340 483 319 q 478 379 481 360 q 358 347 406 364 q 281 308 310 329 q 239 260 251 288 q 226 199 226 233 q 254 113 226 138 q 314 88 282 88 m 240 990 q 279 1090 240 1050 q 378 1131 318 1131 q 478 1090 438 1131 q 518 990 518 1050 q 478 892 518 931 q 378 853 438 853 q 279 892 318 853 q 240 990 240 931 m 339 990 q 350 963 339 974 q 378 951 361 951 q 408 963 396 951 q 419 990 419 974 q 408 1020 419 1008 q 378 1032 396 1032 q 350 1020 361 1032 q 339 990 339 1008 z "},"ů":{"ha":906,"x_min":33,"x_max":879,"o":"m 303 378 q 303 301 303 333 q 306 244 304 268 q 312 203 308 219 q 319 174 315 186 q 356 123 331 140 q 408 106 382 106 q 476 119 446 106 q 533 157 507 133 q 578 222 564 185 q 596 317 593 258 l 596 646 l 475 672 l 475 750 l 772 750 l 772 104 l 879 78 l 879 0 l 622 -14 l 607 139 l 601 139 q 492 27 561 68 q 343 -14 422 -14 q 247 6 290 -14 q 178 61 203 25 q 138 170 150 100 q 126 360 126 240 l 126 646 l 33 672 l 33 750 l 303 750 l 303 378 m 308 990 q 347 1090 308 1050 q 446 1131 386 1131 q 546 1090 506 1131 q 586 990 586 1050 q 546 892 586 931 q 446 853 506 853 q 347 892 386 853 q 308 990 308 931 m 407 990 q 418 963 407 974 q 446 951 429 951 q 476 963 464 951 q 488 990 488 974 q 476 1020 488 1008 q 446 1032 464 1032 q 418 1020 429 1032 q 407 990 407 1008 z "},"ĭ":{"ha":460,"x_min":21,"x_max":471,"o":"m 43 672 l 43 750 l 326 750 l 326 104 l 433 78 l 433 0 l 43 0 l 43 78 l 150 104 l 150 646 l 43 672 m 471 1083 q 451 977 469 1024 q 403 898 433 931 q 330 849 372 865 q 238 832 288 832 q 77 901 133 832 q 21 1083 21 971 l 108 1083 q 147 996 111 1022 q 238 969 183 969 q 345 996 307 969 q 383 1083 383 1022 l 471 1083 z "},"ǽ":{"ha":1181,"x_min":43,"x_max":1132,"o":"m 43 163 q 67 260 43 217 q 144 338 92 304 q 281 397 197 372 q 481 440 364 422 q 464 549 474 513 q 440 611 454 586 q 319 682 399 682 q 272 668 296 682 q 240 631 247 654 q 268 597 258 617 q 278 557 278 576 q 252 501 278 524 q 181 478 226 478 q 108 505 135 478 q 81 583 81 532 q 105 660 81 626 q 167 717 129 694 q 253 752 206 740 q 349 764 301 764 q 493 728 432 764 q 574 621 554 693 l 581 621 q 669 728 608 692 q 808 764 729 764 q 1051 676 971 764 q 1132 432 1132 588 q 1131 401 1132 418 q 1128 356 1131 383 l 643 356 q 650 267 643 303 q 671 199 657 231 q 732 123 692 146 q 819 100 772 100 q 940 127 886 100 q 1036 201 993 154 l 1119 142 q 1060 80 1092 108 q 990 31 1029 51 q 903 -2 951 10 q 792 -14 854 -14 q 528 138 608 -14 l 518 138 q 407 26 475 67 q 231 -14 339 -14 q 93 33 143 -14 q 43 163 43 79 m 786 668 q 686 615 721 668 q 644 444 651 561 l 950 444 l 950 481 q 908 619 950 571 q 786 668 865 668 m 331 88 q 389 108 358 88 q 444 164 419 129 q 474 222 463 189 q 485 299 485 254 q 483 340 485 322 q 479 378 482 357 q 358 344 407 361 q 281 307 310 328 q 240 258 251 286 q 228 192 228 231 q 255 115 228 142 q 331 88 282 88 m 588 993 q 626 1048 608 1026 q 658 1082 643 1069 q 690 1100 674 1094 q 726 1106 707 1106 q 788 1088 771 1106 q 804 1047 804 1071 q 779 1001 804 1026 q 688 926 754 975 l 635 888 l 519 888 l 588 993 z "},"ǻ":{"ha":763,"x_min":42,"x_max":771,"o":"m 42 164 q 67 265 42 221 q 147 342 93 308 q 283 399 200 375 q 479 440 365 422 q 463 547 472 510 q 439 611 454 583 q 394 663 419 643 q 328 682 368 682 q 274 671 299 682 q 242 640 250 660 q 269 609 261 629 q 276 574 276 589 q 246 512 276 539 q 172 485 215 485 q 103 513 128 485 q 79 585 79 542 q 103 661 79 628 q 165 717 126 694 q 252 752 204 740 q 349 764 300 764 q 466 745 414 764 q 550 699 518 726 q 660 390 660 601 l 660 210 q 669 115 660 140 q 708 89 678 89 l 771 89 l 771 26 q 578 -14 643 -14 q 540 -7 554 -14 q 517 17 525 0 q 505 63 508 33 q 501 138 501 92 l 496 138 q 382 26 453 67 q 229 -14 311 -14 q 92 33 142 -14 q 42 164 42 81 m 232 946 q 271 1046 232 1006 q 369 1086 310 1086 q 418 1078 394 1086 q 445 1099 433 1093 q 472 1104 457 1104 q 519 1061 519 1104 q 515 1036 519 1047 q 494 1010 510 1025 q 510 946 510 979 q 469 847 510 886 q 369 808 429 808 q 301 824 332 808 l 297 819 l 224 819 l 257 864 q 232 946 232 897 m 314 88 q 378 106 343 88 q 440 161 414 125 q 469 217 456 181 q 483 303 483 253 q 482 340 483 319 q 478 379 481 360 q 358 347 406 364 q 281 308 310 329 q 239 260 251 288 q 226 199 226 233 q 254 113 226 138 q 314 88 282 88 m 331 946 q 342 918 331 929 q 369 907 353 907 q 399 918 388 907 q 411 946 411 929 q 399 976 411 964 q 369 988 388 988 q 342 976 353 988 q 331 946 331 964 z "},"¯":{"ha":457,"x_min":35,"x_max":422,"o":"m 35 1014 l 422 1014 l 422 882 l 35 882 l 35 1014 z "},"^":{"ha":544,"x_min":63,"x_max":482,"o":"m 482 888 l 367 888 l 272 993 l 178 888 l 63 888 l 185 1097 l 358 1097 l 482 888 z "},"ā":{"ha":763,"x_min":42,"x_max":771,"o":"m 42 164 q 67 265 42 221 q 147 342 93 308 q 283 399 200 375 q 479 440 365 422 q 463 547 472 510 q 439 611 454 583 q 394 663 419 643 q 328 682 368 682 q 274 671 299 682 q 242 640 250 660 q 269 609 261 629 q 276 574 276 589 q 246 512 276 539 q 172 485 215 485 q 103 513 128 485 q 79 585 79 542 q 103 661 79 628 q 165 717 126 694 q 252 752 204 740 q 349 764 300 764 q 466 745 414 764 q 550 699 518 726 q 660 390 660 601 l 660 210 q 669 115 660 140 q 708 89 678 89 l 771 89 l 771 26 q 578 -14 643 -14 q 540 -7 554 -14 q 517 17 525 0 q 505 63 508 33 q 501 138 501 92 l 496 138 q 382 26 453 67 q 229 -14 311 -14 q 92 33 142 -14 q 42 164 42 81 m 314 88 q 378 106 343 88 q 440 161 414 125 q 469 217 456 181 q 483 303 483 253 q 482 340 483 319 q 478 379 481 360 q 358 347 406 364 q 281 308 310 329 q 239 260 251 288 q 226 199 226 233 q 254 113 226 138 q 314 88 282 88 m 181 1014 l 568 1014 l 568 882 l 181 882 l 181 1014 z "},"ē":{"ha":772,"x_min":53,"x_max":724,"o":"m 235 356 q 263 199 235 261 q 415 100 307 100 q 538 127 478 100 q 640 211 597 154 l 715 153 q 584 35 667 83 q 381 -14 501 -14 q 205 27 278 -14 q 93 147 132 68 q 63 242 72 190 q 53 357 53 294 q 142 658 53 551 q 396 764 231 764 q 532 741 471 764 q 635 676 593 718 q 701 572 678 633 q 724 432 724 510 q 723 402 724 417 q 719 356 722 388 l 235 356 m 393 668 q 236 444 250 668 l 542 444 l 542 481 q 503 619 542 571 q 393 668 464 668 m 189 1014 l 576 1014 l 576 882 l 189 882 l 189 1014 z "},"ō":{"ha":825,"x_min":51,"x_max":774,"o":"m 774 375 q 748 208 774 286 q 674 76 722 129 q 564 7 628 28 q 413 -14 500 -14 q 261 7 325 -14 q 151 76 197 28 q 77 208 103 129 q 51 375 51 286 q 77 542 51 464 q 151 674 103 621 q 261 743 197 722 q 413 764 325 764 q 564 743 500 764 q 674 674 628 722 q 748 542 722 621 q 774 375 774 464 m 286 135 q 413 79 324 79 q 539 135 501 79 q 583 375 583 203 q 539 615 583 547 q 413 671 501 671 q 286 615 324 671 q 242 375 242 547 q 286 135 242 203 m 218 1014 l 606 1014 l 606 882 l 218 882 l 218 1014 z "},"ū":{"ha":906,"x_min":33,"x_max":879,"o":"m 303 378 q 303 301 303 333 q 306 244 304 268 q 312 203 308 219 q 319 174 315 186 q 356 123 331 140 q 408 106 382 106 q 476 119 446 106 q 533 157 507 133 q 578 222 564 185 q 596 317 593 258 l 596 646 l 475 672 l 475 750 l 772 750 l 772 104 l 879 78 l 879 0 l 622 -14 l 607 139 l 601 139 q 492 27 561 68 q 343 -14 422 -14 q 247 6 290 -14 q 178 61 203 25 q 138 170 150 100 q 126 360 126 240 l 126 646 l 33 672 l 33 750 l 303 750 l 303 378 m 251 1014 l 639 1014 l 639 882 l 251 882 l 251 1014 z "},"ī":{"ha":460,"x_min":43,"x_max":433,"o":"m 43 672 l 43 750 l 326 750 l 326 104 l 433 78 l 433 0 l 43 0 l 43 78 l 150 104 l 150 646 l 43 672 m 43 1014 l 431 1014 l 431 882 l 43 882 l 43 1014 z "},"\"":{"ha":589,"x_min":65,"x_max":524,"o":"m 381 653 q 375 744 381 699 q 363 831 369 790 q 350 905 356 872 q 344 957 344 938 q 364 1028 344 1001 q 435 1056 383 1056 q 504 1028 485 1056 q 524 957 524 1001 q 518 905 524 938 q 506 831 513 872 q 493 744 499 790 q 488 653 488 699 l 381 653 m 101 653 q 96 744 101 699 q 83 831 90 790 q 71 905 76 872 q 65 957 65 938 q 85 1028 65 1001 q 156 1056 104 1056 q 225 1028 206 1056 q 244 957 244 1001 q 239 905 244 938 q 226 831 233 872 q 214 744 219 790 q 208 653 208 699 l 101 653 z "},"'":{"ha":310,"x_min":65,"x_max":244,"o":"m 101 653 q 96 744 101 699 q 83 831 90 790 q 71 905 76 872 q 65 957 65 938 q 85 1028 65 1001 q 156 1056 104 1056 q 225 1028 206 1056 q 244 957 244 1001 q 239 905 244 938 q 226 831 233 872 q 214 744 219 790 q 208 653 208 699 l 101 653 z "},"ď":{"ha":883,"x_min":53,"x_max":965,"o":"m 53 374 q 78 545 53 465 q 147 674 103 625 q 368 764 229 764 q 483 740 433 764 q 574 656 533 717 l 574 979 l 467 1006 l 467 1083 l 750 1083 l 750 104 l 857 78 l 857 0 l 600 -14 l 589 100 q 492 10 546 35 q 365 -14 438 -14 q 237 9 289 -14 q 149 74 185 32 q 79 200 106 122 q 53 374 53 278 m 574 369 q 560 509 574 450 q 526 600 546 568 q 399 669 483 669 q 331 656 365 669 q 276 606 296 642 q 249 515 258 572 q 240 386 240 457 q 251 246 240 306 q 279 154 263 186 q 332 99 299 118 q 406 79 365 79 q 471 94 438 79 q 526 143 504 108 q 561 238 549 179 q 574 369 574 296 m 840 819 q 836 881 840 854 q 827 930 832 907 q 818 974 822 953 q 814 1017 814 994 q 817 1043 814 1029 q 829 1069 821 1057 q 852 1090 838 1082 q 890 1097 867 1097 q 950 1071 935 1097 q 965 1017 965 1044 q 961 974 965 994 q 951 930 957 953 q 942 881 946 907 q 938 819 938 854 l 840 819 z "},"ľ":{"ha":453,"x_min":31,"x_max":504,"o":"m 138 978 l 31 1004 l 31 1083 l 314 1083 l 314 106 l 421 79 l 421 0 l 31 0 l 31 79 l 138 106 l 138 978 m 379 819 q 375 881 379 854 q 366 930 371 907 q 357 974 361 953 q 353 1017 353 994 q 356 1043 353 1029 q 368 1069 360 1057 q 391 1090 376 1082 q 429 1097 406 1097 q 489 1071 474 1097 q 504 1017 504 1044 q 500 974 504 994 q 490 930 496 953 q 481 881 485 907 q 476 819 476 854 l 379 819 z "},"ť":{"ha":507,"x_min":7,"x_max":515,"o":"m 7 731 l 143 750 l 160 922 l 318 944 l 318 750 l 496 750 l 496 660 l 318 660 l 318 206 q 319 141 318 158 q 325 113 321 124 q 340 100 329 104 q 376 96 351 96 l 474 96 l 474 35 q 331 -2 393 10 q 233 -14 269 -14 q 153 38 171 -14 q 144 80 146 54 q 142 158 142 106 l 142 660 l 7 660 l 7 731 m 390 819 q 386 881 390 854 q 377 930 382 907 q 368 974 372 953 q 364 1017 364 994 q 367 1043 364 1029 q 379 1069 371 1057 q 402 1090 388 1082 q 440 1097 417 1097 q 500 1071 485 1097 q 515 1017 515 1044 q 511 974 515 994 q 501 930 507 953 q 492 881 496 907 q 488 819 488 854 l 390 819 z "},"ŧ":{"ha":511,"x_min":10,"x_max":499,"o":"m 10 731 l 146 750 l 163 922 l 321 944 l 321 750 l 499 750 l 499 660 l 321 660 l 321 543 l 476 543 l 476 439 l 321 439 l 321 206 q 322 141 321 158 q 328 113 324 124 q 343 100 332 104 q 379 96 354 96 l 476 96 l 476 35 q 334 -2 396 10 q 236 -14 272 -14 q 156 38 174 -14 q 147 80 149 54 q 144 158 144 106 l 144 439 l 31 439 l 31 543 l 144 543 l 144 660 l 10 660 l 10 731 z "},"ŀ":{"ha":506,"x_min":31,"x_max":588,"o":"m 138 978 l 31 1004 l 31 1083 l 314 1083 l 314 106 l 421 79 l 421 0 l 31 0 l 31 79 l 138 106 l 138 978 m 369 497 q 399 578 369 549 q 478 608 428 608 q 558 578 528 608 q 588 497 588 547 q 558 418 588 447 q 478 389 528 389 q 397 417 425 389 q 369 497 369 444 z "},"đ":{"ha":883,"x_min":53,"x_max":857,"o":"m 446 940 l 574 940 l 574 979 l 467 1006 l 467 1083 l 750 1083 l 750 940 l 836 940 l 836 835 l 750 835 l 750 104 l 857 78 l 857 0 l 600 -14 l 589 100 q 492 10 546 35 q 365 -14 438 -14 q 237 9 289 -14 q 149 74 185 32 q 79 200 106 122 q 53 374 53 278 q 78 545 53 465 q 147 674 103 625 q 368 764 229 764 q 483 740 433 764 q 574 656 533 717 l 574 835 l 446 835 l 446 940 m 574 369 q 560 509 574 450 q 526 600 546 568 q 399 669 483 669 q 331 656 365 669 q 276 606 296 642 q 249 515 258 572 q 240 386 240 457 q 251 246 240 306 q 279 154 263 186 q 332 99 299 118 q 406 79 365 79 q 471 94 438 79 q 526 143 504 108 q 561 238 549 179 q 574 369 574 296 z "},"ħ":{"ha":914,"x_min":26,"x_max":897,"o":"m 46 940 l 133 940 l 133 979 l 26 1006 l 26 1083 l 310 1083 l 310 940 l 436 940 l 436 833 l 310 833 l 310 619 q 405 725 346 686 q 535 764 464 764 q 635 749 594 764 q 707 703 676 735 q 770 584 750 658 q 790 390 790 510 l 790 104 l 897 78 l 897 0 l 521 0 l 521 78 l 614 104 l 614 372 q 613 449 614 417 q 609 506 611 482 q 602 547 607 531 q 592 576 597 564 q 469 644 557 644 q 394 625 431 644 q 338 569 358 606 q 318 518 326 550 q 310 439 310 486 l 310 104 l 403 78 l 403 0 l 26 0 l 26 78 l 133 104 l 133 833 l 46 833 l 46 940 z "},"ʼ":{"ha":243,"x_min":21,"x_max":222,"o":"m 129 1111 q 198 1081 174 1111 q 222 1007 222 1050 q 211 950 222 979 q 180 893 200 921 q 133 841 160 865 q 74 799 106 817 l 21 856 q 97 921 76 892 q 121 961 118 950 l 117 964 q 106 958 111 960 q 86 956 100 956 q 44 977 60 956 q 28 1028 28 999 q 53 1084 28 1057 q 129 1111 78 1111 z "},"ŉ":{"ha":1067,"x_min":17,"x_max":1044,"o":"m 281 646 l 174 672 l 174 750 l 415 750 l 446 611 l 451 611 q 563 723 493 682 q 715 764 633 764 q 815 744 771 764 q 886 689 860 725 q 926 580 914 650 q 938 390 938 510 l 938 104 l 1044 78 l 1044 0 l 668 0 l 668 78 l 761 104 l 761 372 q 756 502 761 456 q 739 576 751 549 q 697 626 724 613 q 635 640 671 640 q 519 596 567 640 q 457 433 463 543 l 457 104 l 550 78 l 550 0 l 174 0 l 174 78 l 281 104 l 281 646 m 125 1111 q 194 1081 169 1111 q 218 1007 218 1050 q 207 950 218 979 q 176 893 196 921 q 128 841 156 865 q 69 799 101 817 l 17 856 q 93 921 72 892 q 117 961 114 950 l 113 964 q 101 958 107 960 q 82 956 96 956 q 40 977 56 956 q 24 1028 24 999 q 49 1084 24 1057 q 125 1111 74 1111 z "},"":{"ha":250,"x_min":49,"x_max":239,"o":"m 139 -61 q 212 -85 185 -61 q 239 -151 239 -110 q 207 -250 239 -206 q 100 -333 175 -294 l 58 -289 q 131 -196 126 -235 l 126 -193 q 117 -198 124 -196 q 103 -200 110 -200 q 63 -181 76 -200 q 49 -137 49 -161 q 71 -81 49 -101 q 139 -61 93 -61 z "},"ķ":{"ha":846,"x_min":26,"x_max":835,"o":"m 571 104 l 388 349 l 310 283 l 310 104 l 417 78 l 417 0 l 26 0 l 26 78 l 133 104 l 133 979 l 26 1006 l 26 1083 l 310 1083 l 310 392 l 546 647 l 474 672 l 474 750 l 814 750 l 814 672 l 692 646 l 501 451 l 761 101 l 835 78 l 835 0 l 489 0 l 489 78 l 571 104 m 464 -61 q 537 -85 510 -61 q 564 -151 564 -110 q 532 -250 564 -206 q 425 -333 500 -294 l 383 -289 q 456 -196 451 -235 l 451 -193 q 442 -198 449 -196 q 428 -200 435 -200 q 388 -181 401 -200 q 374 -137 374 -161 q 396 -81 374 -101 q 464 -61 418 -61 z "},"ļ":{"ha":453,"x_min":31,"x_max":421,"o":"m 138 978 l 31 1004 l 31 1083 l 314 1083 l 314 106 l 421 79 l 421 0 l 31 0 l 31 79 l 138 106 l 138 978 m 236 -61 q 309 -85 282 -61 q 336 -151 336 -110 q 304 -250 336 -206 q 197 -333 272 -294 l 156 -289 q 228 -196 224 -235 l 224 -193 q 214 -198 221 -196 q 200 -200 207 -200 q 160 -181 174 -200 q 146 -137 146 -161 q 168 -81 146 -101 q 236 -61 190 -61 z "},"ņ":{"ha":936,"x_min":43,"x_max":914,"o":"m 150 646 l 43 672 l 43 750 l 285 750 l 315 611 l 321 611 q 433 723 363 682 q 585 764 503 764 q 685 744 640 764 q 756 689 729 725 q 795 580 783 650 q 807 390 807 510 l 807 104 l 914 78 l 914 0 l 538 0 l 538 78 l 631 104 l 631 372 q 626 502 631 456 q 608 576 621 549 q 567 626 593 613 q 504 640 540 640 q 389 596 436 640 q 326 433 332 543 l 326 104 l 419 78 l 419 0 l 43 0 l 43 78 l 150 104 l 150 646 m 492 -61 q 565 -85 538 -61 q 592 -151 592 -110 q 560 -250 592 -206 q 453 -333 528 -294 l 411 -289 q 483 -196 479 -235 l 479 -193 q 469 -198 476 -196 q 456 -200 463 -200 q 415 -181 429 -200 q 401 -137 401 -161 q 424 -81 401 -101 q 492 -61 446 -61 z "},"ŗ":{"ha":658,"x_min":40,"x_max":650,"o":"m 458 649 q 432 638 446 649 q 405 610 418 626 q 381 574 392 593 q 365 542 371 556 q 336 444 349 493 q 324 322 324 394 l 324 104 l 474 78 l 474 0 l 40 0 l 40 78 l 147 104 l 147 667 l 40 693 l 40 750 l 282 750 l 313 567 l 318 567 q 403 713 350 663 q 524 764 457 764 q 614 730 578 764 q 650 639 650 696 q 625 563 650 597 q 554 529 600 529 q 474 555 497 529 q 451 611 451 581 q 453 627 451 621 q 458 649 454 633 m 249 -61 q 322 -85 294 -61 q 349 -151 349 -110 q 317 -250 349 -206 q 210 -333 285 -294 l 168 -289 q 240 -196 236 -235 l 236 -193 q 226 -198 233 -196 q 213 -200 219 -200 q 172 -181 186 -200 q 158 -137 158 -161 q 181 -81 158 -101 q 249 -61 203 -61 z "},"ș":{"ha":717,"x_min":51,"x_max":668,"o":"m 338 71 q 403 78 372 71 q 456 97 433 85 q 492 128 479 110 q 506 171 506 147 q 488 219 506 199 q 442 256 471 240 q 378 283 414 271 q 308 306 343 294 q 224 337 265 318 q 151 384 183 356 q 99 451 118 413 q 79 543 79 490 q 151 703 79 643 q 358 764 224 764 q 474 750 422 764 q 561 710 525 736 q 617 649 597 685 q 638 572 638 614 q 612 499 638 524 q 542 474 586 474 q 472 495 497 474 q 447 546 447 517 q 461 591 447 569 q 497 624 475 613 q 445 665 478 650 q 364 679 413 679 q 267 652 299 679 q 235 576 235 625 q 271 494 235 521 q 368 449 307 467 q 478 414 424 432 q 574 369 532 396 q 642 305 617 343 q 668 213 668 267 q 642 116 668 158 q 572 45 617 74 q 465 1 526 17 q 333 -14 404 -14 q 126 35 200 -14 q 51 167 51 83 q 83 256 51 224 q 160 288 115 288 q 222 269 193 288 q 250 215 250 250 q 235 167 250 190 q 200 132 219 143 q 246 90 214 110 q 338 71 278 71 m 369 -61 q 442 -85 415 -61 q 469 -151 469 -110 q 438 -250 469 -206 q 331 -333 406 -294 l 289 -289 q 361 -196 357 -235 l 357 -193 q 347 -198 354 -196 q 333 -200 340 -200 q 293 -181 307 -200 q 279 -137 279 -161 q 301 -81 279 -101 q 369 -61 324 -61 z "},"ț":{"ha":507,"x_min":7,"x_max":496,"o":"m 7 731 l 143 750 l 160 922 l 318 944 l 318 750 l 496 750 l 496 660 l 318 660 l 318 206 q 319 141 318 158 q 325 113 321 124 q 340 100 329 104 q 376 96 351 96 l 474 96 l 474 35 q 331 -2 393 10 q 233 -14 269 -14 q 153 38 171 -14 q 144 80 146 54 q 142 158 142 106 l 142 660 l 7 660 l 7 731 m 269 -61 q 342 -85 315 -61 q 369 -151 369 -110 q 338 -250 369 -206 q 231 -333 306 -294 l 189 -289 q 261 -196 257 -235 l 257 -193 q 247 -198 254 -196 q 233 -200 240 -200 q 193 -181 207 -200 q 179 -137 179 -161 q 201 -81 179 -101 q 269 -61 224 -61 z "},"ø":{"ha":825,"x_min":51,"x_max":774,"o":"m 774 375 q 748 208 774 286 q 674 76 722 129 q 564 7 628 28 q 413 -14 500 -14 q 293 -1 347 -14 l 251 -83 l 121 -83 l 188 44 q 151 76 167 58 q 77 208 103 129 q 51 375 51 286 q 77 542 51 464 q 151 674 103 621 q 261 743 197 722 q 413 764 325 764 q 553 746 493 764 l 585 808 l 715 808 l 654 692 l 674 674 q 748 542 722 621 q 774 375 774 464 m 242 375 q 246 269 242 315 q 261 188 250 222 l 501 650 q 413 671 465 671 q 286 615 324 671 q 242 375 242 547 m 583 375 q 571 531 583 468 l 342 90 q 413 79 368 79 q 539 135 501 79 q 583 375 583 203 z "},"ǿ":{"ha":825,"x_min":51,"x_max":774,"o":"m 774 375 q 748 208 774 286 q 674 76 722 129 q 564 7 628 28 q 413 -14 500 -14 q 293 -1 347 -14 l 251 -83 l 121 -83 l 188 44 q 151 76 167 58 q 77 208 103 129 q 51 375 51 286 q 77 542 51 464 q 151 674 103 621 q 261 743 197 722 q 413 764 325 764 q 553 746 493 764 l 585 808 l 715 808 l 654 692 l 674 674 q 748 542 722 621 q 774 375 774 464 m 242 375 q 246 269 242 315 q 261 188 250 222 l 501 650 q 413 671 465 671 q 286 615 324 671 q 242 375 242 547 m 583 375 q 571 531 583 468 l 342 90 q 413 79 368 79 q 539 135 501 79 q 583 375 583 203 m 418 993 q 456 1048 439 1026 q 489 1082 474 1069 q 521 1100 504 1094 q 557 1106 538 1106 q 618 1088 601 1106 q 635 1047 635 1071 q 610 1001 635 1026 q 518 926 585 975 l 465 888 l 350 888 l 418 993 z "},"¸":{"ha":353,"x_min":14,"x_max":339,"o":"m 140 -292 q 14 -253 67 -292 l 57 -194 q 139 -222 97 -222 q 197 -186 197 -222 q 180 -158 197 -168 q 135 -147 163 -147 q 101 -149 119 -147 q 71 -156 83 -151 l 47 -115 l 154 24 l 257 24 l 199 -74 l 200 -78 q 308 -104 278 -78 q 339 -175 339 -131 q 323 -225 339 -203 q 280 -262 307 -247 q 217 -284 253 -276 q 140 -292 181 -292 z "},"ç":{"ha":758,"x_min":51,"x_max":721,"o":"m 350 -292 q 224 -253 276 -292 l 267 -194 q 349 -222 307 -222 q 407 -186 407 -222 q 390 -158 407 -168 q 344 -147 372 -147 q 311 -149 329 -147 q 281 -156 293 -151 l 257 -115 l 336 -11 q 101 142 174 6 q 65 244 78 186 q 51 368 51 301 q 76 531 51 458 q 148 656 101 604 q 263 736 194 708 q 417 764 331 764 q 535 749 481 764 q 628 705 589 733 q 690 636 668 676 q 713 547 713 596 q 679 452 713 485 q 597 419 646 419 q 551 428 569 419 q 522 452 533 438 q 505 485 510 467 q 500 521 500 503 q 517 581 500 556 q 569 617 535 606 q 511 657 550 642 q 424 672 472 672 q 345 657 379 672 q 288 608 311 642 q 251 517 264 574 q 239 379 239 461 q 249 261 239 304 q 275 186 258 218 q 332 123 297 146 q 421 100 367 100 q 480 107 449 100 q 541 127 511 114 q 598 161 571 140 q 646 211 625 182 l 721 153 q 595 38 665 76 q 446 -10 525 -1 l 408 -74 l 410 -78 q 518 -104 488 -78 q 549 -175 549 -131 q 533 -225 549 -203 q 490 -262 517 -247 q 426 -284 463 -276 q 350 -292 390 -292 z "},"ţ":{"ha":507,"x_min":7,"x_max":496,"o":"m 239 -292 q 113 -253 165 -292 l 156 -194 q 238 -222 196 -222 q 296 -186 296 -222 q 278 -158 296 -168 q 233 -147 261 -147 q 200 -149 218 -147 q 169 -156 182 -151 l 146 -115 l 224 -14 q 153 38 169 -10 q 144 80 146 54 q 142 158 142 106 l 142 660 l 7 660 l 7 731 l 143 750 l 160 922 l 318 944 l 318 750 l 496 750 l 496 660 l 318 660 l 318 206 q 319 141 318 158 q 325 113 321 124 q 340 100 329 104 q 376 96 351 96 l 474 96 l 474 35 q 403 15 436 24 q 342 0 371 6 l 297 -74 l 299 -78 q 407 -104 376 -78 q 438 -175 438 -131 q 422 -225 438 -203 q 378 -262 406 -247 q 315 -284 351 -276 q 239 -292 279 -292 z "},"ş":{"ha":715,"x_min":50,"x_max":667,"o":"m 308 -292 q 182 -253 235 -292 l 225 -194 q 307 -222 265 -222 q 365 -186 365 -222 q 348 -158 365 -168 q 303 -147 331 -147 q 269 -149 288 -147 q 239 -156 251 -151 l 215 -115 l 294 -12 q 114 42 178 -6 q 50 167 50 90 q 82 256 50 224 q 158 288 114 288 q 220 269 192 288 q 249 215 249 250 q 233 167 249 190 q 199 132 218 143 q 244 90 213 110 q 336 71 276 71 q 401 78 371 71 q 455 97 432 85 q 491 128 478 110 q 504 171 504 147 q 487 219 504 199 q 441 256 469 240 q 377 283 413 271 q 307 306 342 294 q 223 337 264 318 q 149 384 182 356 q 97 451 117 413 q 78 543 78 490 q 150 703 78 643 q 357 764 222 764 q 472 750 421 764 q 560 710 524 736 q 616 649 596 685 q 636 572 636 614 q 610 499 636 524 q 540 474 585 474 q 471 495 496 474 q 446 546 446 517 q 460 591 446 569 q 496 624 474 613 q 444 665 476 650 q 363 679 411 679 q 265 652 297 679 q 233 576 233 625 q 269 494 233 521 q 367 449 306 467 q 476 414 422 432 q 573 369 531 396 q 641 305 615 343 q 667 213 667 267 q 647 127 667 165 q 593 61 628 89 q 510 15 558 33 q 404 -10 461 -3 l 367 -74 l 368 -78 q 476 -104 446 -78 q 507 -175 507 -131 q 491 -225 507 -203 q 448 -262 475 -247 q 385 -284 421 -276 q 308 -292 349 -292 z "},"˛":{"ha":382,"x_min":28,"x_max":354,"o":"m 182 -292 q 66 -259 104 -292 q 28 -174 28 -226 q 186 19 28 -69 l 285 19 q 249 -8 268 10 q 211 -48 229 -26 q 181 -92 193 -69 q 169 -136 169 -115 q 188 -176 169 -161 q 239 -190 207 -190 q 283 -185 261 -190 q 321 -165 304 -179 l 354 -214 q 292 -271 331 -250 q 182 -292 253 -292 z "},"ą":{"ha":763,"x_min":42,"x_max":771,"o":"m 565 -292 q 449 -259 488 -292 q 411 -174 411 -226 q 532 -3 411 -81 q 508 42 514 10 q 501 138 501 75 l 496 138 q 382 26 453 67 q 229 -14 311 -14 q 92 33 142 -14 q 42 164 42 81 q 67 265 42 221 q 147 342 93 308 q 283 399 200 375 q 479 440 365 422 q 463 547 472 510 q 439 611 454 583 q 394 663 419 643 q 328 682 368 682 q 274 671 299 682 q 242 640 250 660 q 269 609 261 629 q 276 574 276 589 q 246 512 276 539 q 172 485 215 485 q 103 513 128 485 q 79 585 79 542 q 103 661 79 628 q 165 717 126 694 q 252 752 204 740 q 349 764 300 764 q 466 745 414 764 q 550 699 518 726 q 660 390 660 601 l 660 210 q 669 115 660 140 q 708 89 678 89 l 771 89 l 771 26 q 694 4 731 13 q 631 -8 658 -4 q 577 -69 601 -35 q 553 -136 553 -104 q 572 -176 553 -161 q 622 -190 590 -190 q 666 -185 644 -190 q 704 -165 688 -179 l 738 -214 q 675 -271 714 -250 q 565 -292 636 -292 m 314 88 q 378 106 343 88 q 440 161 414 125 q 469 217 456 181 q 483 303 483 253 q 482 340 483 319 q 478 379 481 360 q 358 347 406 364 q 281 308 310 329 q 239 260 251 288 q 226 199 226 233 q 254 113 226 138 q 314 88 282 88 z "},"ę":{"ha":772,"x_min":53,"x_max":724,"o":"m 349 -292 q 233 -259 271 -292 q 194 -174 194 -226 q 307 -8 194 -85 q 93 147 156 17 q 63 242 72 190 q 53 357 53 294 q 142 658 53 551 q 396 764 231 764 q 532 741 471 764 q 635 676 593 718 q 701 572 678 633 q 724 432 724 510 q 723 402 724 417 q 719 356 722 388 l 235 356 q 263 199 235 261 q 415 100 307 100 q 538 127 478 100 q 640 211 597 154 l 715 153 q 594 40 669 86 q 410 -12 518 -6 q 359 -72 382 -39 q 336 -136 336 -106 q 355 -176 336 -161 q 406 -190 374 -190 q 449 -185 428 -190 q 488 -165 471 -179 l 521 -214 q 458 -271 497 -250 q 349 -292 419 -292 m 393 668 q 236 444 250 668 l 542 444 l 542 481 q 503 619 542 571 q 393 668 464 668 z "},"į":{"ha":460,"x_min":43,"x_max":433,"o":"m 210 -292 q 94 -259 132 -292 q 56 -174 56 -226 q 181 0 56 -79 l 43 0 l 43 78 l 150 104 l 150 646 l 43 672 l 43 750 l 326 750 l 326 104 l 433 78 l 433 0 l 285 0 q 226 -63 254 -25 q 197 -136 197 -101 q 216 -176 197 -161 q 267 -190 235 -190 q 310 -185 289 -190 q 349 -165 332 -179 l 382 -214 q 319 -271 358 -250 q 210 -292 281 -292 m 135 961 q 162 1033 135 1006 q 238 1061 189 1061 q 314 1033 286 1061 q 342 961 342 1006 q 315 890 342 917 q 238 863 288 863 q 161 890 188 863 q 135 961 135 917 z "},"ǫ":{"ha":825,"x_min":51,"x_max":774,"o":"m 379 -292 q 263 -259 301 -292 q 225 -174 225 -226 q 336 -10 225 -85 q 232 18 278 -3 q 151 76 186 39 q 77 208 103 129 q 51 375 51 286 q 77 542 51 464 q 151 674 103 621 q 261 743 197 722 q 413 764 325 764 q 564 743 500 764 q 674 674 628 722 q 748 542 722 621 q 774 375 774 464 q 748 208 774 286 q 674 76 722 129 q 573 11 631 32 q 439 -12 515 -10 q 389 -72 411 -39 q 367 -136 367 -106 q 385 -176 367 -161 q 436 -190 404 -190 q 480 -185 458 -190 q 518 -165 501 -179 l 551 -214 q 489 -271 528 -250 q 379 -292 450 -292 m 286 135 q 413 79 324 79 q 539 135 501 79 q 583 375 583 203 q 539 615 583 547 q 413 671 501 671 q 286 615 324 671 q 242 375 242 547 q 286 135 242 203 z "},"ų":{"ha":906,"x_min":33,"x_max":879,"o":"m 672 -292 q 556 -259 594 -292 q 518 -174 518 -226 q 622 -14 518 -89 l 607 139 l 601 139 q 492 27 561 68 q 343 -14 422 -14 q 247 6 290 -14 q 178 61 203 25 q 138 170 150 100 q 126 360 126 240 l 126 646 l 33 672 l 33 750 l 303 750 l 303 378 q 303 301 303 333 q 306 244 304 268 q 312 203 308 219 q 319 174 315 186 q 356 123 331 140 q 408 106 382 106 q 476 119 446 106 q 533 157 507 133 q 578 222 564 185 q 596 317 593 258 l 596 646 l 475 672 l 475 750 l 772 750 l 772 104 l 879 78 l 879 0 l 739 -7 q 685 -69 710 -33 q 660 -136 660 -104 q 678 -176 660 -161 q 729 -190 697 -190 q 773 -185 751 -190 q 811 -165 794 -179 l 844 -214 q 782 -271 821 -250 q 672 -292 743 -292 z "},"ł":{"ha":456,"x_min":32,"x_max":422,"o":"m 43 506 l 139 567 l 139 978 l 32 1004 l 32 1083 l 315 1083 l 315 678 l 415 742 l 415 625 l 315 561 l 315 106 l 422 79 l 422 0 l 32 0 l 32 79 l 139 106 l 139 450 l 43 390 l 43 506 z "},"ģ":{"ha":799,"x_min":29,"x_max":797,"o":"m 733 -8 q 642 -196 733 -136 q 350 -256 550 -256 q 225 -247 283 -256 q 123 -217 167 -237 q 54 -162 79 -196 q 29 -81 29 -129 q 69 22 29 -17 q 189 64 110 61 l 189 69 q 83 175 83 99 q 91 219 83 196 q 116 262 99 242 q 160 297 133 282 q 226 318 188 313 q 110 392 151 336 q 69 525 69 449 q 144 700 69 636 q 360 764 218 764 q 441 760 406 764 q 505 747 476 756 q 556 727 533 739 q 599 700 578 715 l 646 717 l 774 778 l 797 778 l 797 635 l 774 635 l 676 646 l 642 646 q 669 533 669 603 q 599 353 669 419 q 394 288 529 288 q 366 288 379 288 q 339 290 353 289 q 252 266 285 283 q 219 217 219 249 q 245 183 219 192 q 342 174 271 174 l 503 174 q 733 -8 733 174 m 351 46 q 217 17 258 46 q 175 -60 175 -12 q 374 -165 175 -165 q 536 -135 481 -165 q 592 -43 592 -104 q 549 26 592 6 q 400 46 506 46 l 351 46 m 233 531 q 267 411 233 451 q 363 371 300 371 q 472 411 438 371 q 506 531 506 451 q 472 642 506 604 q 363 679 438 679 q 267 642 300 679 q 233 531 233 604 m 358 886 q 285 910 313 886 q 258 976 258 935 q 290 1075 258 1031 q 397 1158 322 1119 l 439 1114 q 367 1021 371 1060 l 371 1018 q 381 1023 374 1021 q 394 1025 388 1025 q 435 1006 421 1025 q 449 963 449 986 q 426 906 449 926 q 358 886 404 886 z "},"ǅ":{"ha":1857,"x_min":57,"x_max":1793,"o":"m 528 104 q 656 127 603 104 q 744 196 708 150 q 801 316 782 243 q 821 492 821 389 q 744 793 821 689 q 651 870 707 844 q 514 896 594 896 l 354 896 l 354 104 l 528 104 m 565 1000 q 888 883 772 1000 q 988 719 953 817 q 1022 511 1022 622 q 986 292 1022 393 q 883 121 950 190 q 744 29 825 58 q 553 0 664 0 l 57 0 l 57 81 l 174 110 l 174 890 l 57 919 l 57 1000 l 565 1000 m 1672 288 l 1793 288 l 1793 0 l 1136 0 l 1136 99 l 1571 651 l 1308 651 l 1275 469 l 1154 469 l 1154 750 l 1788 750 l 1788 651 l 1354 99 l 1644 99 l 1672 288 m 1557 874 l 1383 874 l 1261 1083 l 1376 1083 l 1471 978 l 1565 1083 l 1681 1083 l 1557 874 z "},"ǆ":{"ha":1658,"x_min":53,"x_max":1594,"o":"m 53 374 q 78 545 53 465 q 147 674 103 625 q 368 764 229 764 q 483 740 433 764 q 574 656 533 717 l 574 979 l 467 1006 l 467 1083 l 750 1083 l 750 104 l 857 78 l 857 0 l 600 -14 l 589 100 q 492 10 546 35 q 365 -14 438 -14 q 237 9 289 -14 q 149 74 185 32 q 79 200 106 122 q 53 374 53 278 m 574 369 q 560 509 574 450 q 526 600 546 568 q 399 669 483 669 q 331 656 365 669 q 276 606 296 642 q 249 515 258 572 q 240 386 240 457 q 251 246 240 306 q 279 154 263 186 q 332 99 299 118 q 406 79 365 79 q 471 94 438 79 q 526 143 504 108 q 561 238 549 179 q 574 369 574 296 m 1474 288 l 1594 288 l 1594 0 l 938 0 l 938 99 l 1372 651 l 1110 651 l 1076 469 l 956 469 l 956 750 l 1589 750 l 1589 651 l 1156 99 l 1446 99 l 1474 288 m 1358 874 l 1185 874 l 1063 1083 l 1178 1083 l 1272 978 l 1367 1083 l 1482 1083 l 1358 874 z "},"…":{"ha":1006,"x_min":63,"x_max":943,"o":"m 63 72 q 92 155 63 125 q 171 185 121 185 q 251 154 221 185 q 281 74 281 124 q 251 -6 281 24 q 169 -35 222 -35 q 91 -7 119 -35 q 63 72 63 21 m 400 72 q 429 155 400 125 q 508 185 458 185 q 588 154 558 185 q 618 74 618 124 q 589 -6 618 24 q 507 -35 560 -35 q 428 -7 457 -35 q 400 72 400 21 m 725 72 q 754 155 725 125 q 833 185 783 185 q 913 154 883 185 q 943 74 943 124 q 914 -6 943 24 q 832 -35 885 -35 q 753 -7 782 -35 q 725 72 725 21 z "},"İ":{"ha":542,"x_min":50,"x_max":492,"o":"m 361 110 l 492 81 l 492 0 l 50 0 l 50 81 l 181 110 l 181 890 l 50 919 l 50 1000 l 492 1000 l 492 919 l 361 890 l 361 110 m 164 1135 q 193 1214 164 1185 q 271 1243 222 1243 q 349 1213 319 1243 q 379 1135 379 1183 q 350 1057 379 1086 q 271 1028 321 1028 q 192 1056 221 1028 q 164 1135 164 1085 z "},"Ċ":{"ha":969,"x_min":60,"x_max":928,"o":"m 524 918 q 423 896 471 918 q 346 832 375 874 q 283 697 308 778 q 257 517 257 617 q 278 331 257 417 q 336 188 299 246 q 418 117 367 139 q 536 96 469 96 q 810 331 769 96 l 928 331 q 790 71 893 156 q 506 -14 686 -14 q 200 97 314 -14 q 96 265 132 164 q 60 490 60 365 q 106 744 60 631 q 235 926 151 857 q 514 1014 340 1014 q 591 1009 557 1014 q 654 992 625 1004 q 709 961 683 981 q 761 913 735 942 l 789 1000 l 907 1000 l 907 672 l 781 672 q 694 856 761 794 q 524 918 626 918 m 431 1135 q 460 1214 431 1185 q 538 1243 489 1243 q 616 1213 586 1243 q 646 1135 646 1183 q 617 1057 646 1086 q 538 1028 588 1028 q 459 1056 488 1028 q 431 1135 431 1085 z "},"Ġ":{"ha":1063,"x_min":60,"x_max":1040,"o":"m 525 97 q 693 156 643 97 q 743 331 743 214 l 743 386 l 626 415 l 626 499 l 1040 499 l 1040 415 l 924 386 l 924 0 l 810 0 l 775 110 q 650 15 714 43 q 499 -14 586 -14 q 194 103 308 -14 q 94 268 129 169 q 60 489 60 367 q 97 718 60 613 q 200 894 133 824 q 334 984 257 954 q 518 1014 411 1014 q 593 1008 560 1014 q 655 991 626 1003 q 709 960 683 979 q 761 914 735 942 l 789 1000 l 907 1000 l 907 672 l 781 672 q 699 851 761 785 q 524 918 636 918 q 419 897 461 918 q 347 838 378 876 q 282 694 308 779 q 256 508 256 608 q 280 320 256 410 q 349 169 304 231 q 423 115 376 132 q 525 97 469 97 m 419 1135 q 449 1214 419 1185 q 526 1243 478 1243 q 605 1213 575 1243 q 635 1135 635 1183 q 606 1057 635 1086 q 526 1028 576 1028 q 448 1056 476 1028 q 419 1135 419 1085 z "},"Ż":{"ha":915,"x_min":39,"x_max":863,"o":"m 742 331 l 863 331 l 863 0 l 39 0 l 39 85 l 615 896 l 240 896 l 196 685 l 82 685 l 82 1000 l 831 1000 l 831 915 l 254 104 l 697 104 l 742 331 m 358 1135 q 388 1214 358 1185 q 465 1243 417 1243 q 544 1213 514 1243 q 574 1135 574 1183 q 544 1057 574 1086 q 465 1028 515 1028 q 387 1056 415 1028 q 358 1135 358 1085 z "},"Ṅ":{"ha":1135,"x_min":57,"x_max":1090,"o":"m 174 890 l 57 919 l 57 1000 l 378 1000 l 842 267 l 842 890 l 725 919 l 725 1000 l 1090 1000 l 1090 919 l 974 890 l 974 0 l 819 0 l 306 797 l 306 110 l 422 81 l 422 0 l 57 0 l 57 81 l 174 110 l 174 890 m 460 1135 q 489 1214 460 1185 q 567 1243 518 1243 q 645 1213 615 1243 q 675 1135 675 1183 q 646 1057 675 1086 q 567 1028 617 1028 q 488 1056 517 1028 q 460 1135 460 1085 z "},"Ï":{"ha":542,"x_min":50,"x_max":492,"o":"m 361 110 l 492 81 l 492 0 l 50 0 l 50 81 l 181 110 l 181 890 l 50 919 l 50 1000 l 492 1000 l 492 919 l 361 890 l 361 110 z "},"Ö":{"ha":1075,"x_min":60,"x_max":1015,"o":"m 1015 511 q 982 288 1015 394 q 876 107 949 182 q 734 15 817 44 q 533 -14 651 -14 q 333 15 415 -14 q 193 103 250 44 q 96 266 132 165 q 60 489 60 367 q 96 717 60 611 q 199 893 132 822 q 338 985 257 956 q 538 1014 419 1014 q 734 987 650 1014 q 881 897 818 960 q 984 723 953 825 q 1015 511 1015 621 m 261 515 q 281 324 261 407 q 336 188 301 240 q 419 110 369 136 q 542 83 468 83 q 739 175 672 83 q 794 302 775 224 q 814 492 814 381 q 794 682 814 601 q 738 815 774 763 q 649 893 701 868 q 532 918 597 918 q 418 894 465 918 q 339 826 371 869 q 261 515 261 724 z "},"Ë":{"ha":969,"x_min":50,"x_max":904,"o":"m 575 331 l 551 461 l 361 461 l 361 104 l 743 104 l 782 310 l 904 310 l 904 0 l 50 0 l 50 81 l 181 110 l 181 890 l 50 919 l 50 1000 l 874 1000 l 874 706 l 760 706 l 719 899 l 361 899 l 361 565 l 551 565 l 575 697 l 688 697 l 688 331 l 575 331 z "},"Ü":{"ha":1089,"x_min":33,"x_max":1057,"o":"m 811 890 l 694 919 l 694 1000 l 1057 1000 l 1057 919 l 940 890 l 940 338 q 838 74 940 164 q 533 -15 735 -15 q 249 76 347 -15 q 150 339 150 168 l 150 890 l 33 919 l 33 1000 l 447 1000 l 447 919 l 331 890 l 331 383 q 564 82 331 82 q 753 152 694 82 q 811 381 811 222 l 811 890 z "},"Ä":{"ha":1011,"x_min":-18,"x_max":1025,"o":"m 644 325 l 306 325 l 233 110 l 349 81 l 349 0 l -18 0 l -18 81 l 96 110 l 421 1014 l 592 1014 l 914 110 l 1025 81 l 1025 0 l 601 0 l 601 81 l 715 110 l 644 325 m 340 426 l 611 426 l 482 831 l 476 831 l 340 426 z "},"Ẅ":{"ha":1460,"x_min":-15,"x_max":1469,"o":"m 1219 892 l 1110 919 l 1110 1000 l 1469 1000 l 1469 919 l 1354 890 l 1097 0 l 911 0 l 729 599 l 564 0 l 378 0 l 93 890 l -15 919 l -15 1000 l 421 1000 l 421 919 l 288 890 l 485 178 l 490 178 l 665 828 l 653 890 l 544 919 l 544 1000 l 953 1000 l 953 919 l 825 890 l 1018 176 l 1024 176 l 1219 892 z "},"Ÿ":{"ha":947,"x_min":-14,"x_max":956,"o":"m 711 890 l 599 919 l 599 1000 l 956 1000 l 956 919 l 842 890 l 569 392 l 569 110 l 700 81 l 700 0 l 258 0 l 258 81 l 389 110 l 389 369 l 101 890 l -14 919 l -14 1000 l 411 1000 l 411 919 l 294 890 l 500 504 l 711 890 z "},"Í":{"ha":542,"x_min":50,"x_max":497,"o":"m 361 110 l 492 81 l 492 0 l 50 0 l 50 81 l 181 110 l 181 890 l 50 919 l 50 1000 l 492 1000 l 492 919 l 361 890 l 361 110 m 296 1161 q 335 1208 318 1190 q 367 1234 353 1225 q 397 1247 382 1243 q 432 1250 413 1250 q 481 1233 465 1250 q 497 1196 497 1217 q 493 1172 497 1182 q 477 1151 489 1161 q 445 1127 465 1140 q 393 1094 425 1114 l 328 1056 l 213 1056 l 296 1161 z "},"Ó":{"ha":1075,"x_min":60,"x_max":1015,"o":"m 1015 511 q 982 288 1015 394 q 876 107 949 182 q 734 15 817 44 q 533 -14 651 -14 q 333 15 415 -14 q 193 103 250 44 q 96 266 132 165 q 60 489 60 367 q 96 717 60 611 q 199 893 132 822 q 338 985 257 956 q 538 1014 419 1014 q 734 987 650 1014 q 881 897 818 960 q 984 723 953 825 q 1015 511 1015 621 m 261 515 q 281 324 261 407 q 336 188 301 240 q 419 110 369 136 q 542 83 468 83 q 739 175 672 83 q 794 302 775 224 q 814 492 814 381 q 794 682 814 601 q 738 815 774 763 q 649 893 701 868 q 532 918 597 918 q 418 894 465 918 q 339 826 371 869 q 261 515 261 724 m 563 1161 q 602 1208 585 1190 q 634 1234 619 1225 q 664 1247 649 1243 q 699 1250 679 1250 q 748 1233 732 1250 q 764 1196 764 1217 q 760 1172 764 1182 q 744 1151 756 1161 q 712 1127 732 1140 q 660 1094 692 1114 l 594 1056 l 479 1056 l 563 1161 z "},"É":{"ha":969,"x_min":50,"x_max":904,"o":"m 575 331 l 551 461 l 361 461 l 361 104 l 743 104 l 782 310 l 904 310 l 904 0 l 50 0 l 50 81 l 181 110 l 181 890 l 50 919 l 50 1000 l 874 1000 l 874 706 l 760 706 l 719 899 l 361 899 l 361 565 l 551 565 l 575 697 l 688 697 l 688 331 l 575 331 m 517 1161 q 556 1208 539 1190 q 588 1234 574 1225 q 618 1247 603 1243 q 653 1250 633 1250 q 702 1233 686 1250 q 718 1196 718 1217 q 714 1172 718 1182 q 698 1151 710 1161 q 666 1127 686 1140 q 614 1094 646 1114 l 549 1056 l 433 1056 l 517 1161 z "},"Ŕ":{"ha":996,"x_min":57,"x_max":997,"o":"m 786 531 q 730 493 761 511 q 650 464 699 475 q 672 440 657 457 q 701 399 686 422 l 874 107 l 997 81 l 997 0 l 669 0 l 669 81 l 488 438 l 354 438 l 354 110 l 486 81 l 486 0 l 57 0 l 57 81 l 174 110 l 174 890 l 57 919 l 57 1000 l 576 1000 q 693 988 643 1000 q 783 947 743 975 q 863 854 833 911 q 892 739 892 797 q 863 624 892 681 q 786 531 835 568 m 511 539 q 638 582 588 539 q 681 645 665 606 q 697 731 697 685 q 681 806 697 772 q 636 863 664 839 q 506 899 590 899 l 354 899 l 354 539 l 511 539 m 465 1161 q 505 1208 488 1190 q 537 1234 522 1225 q 567 1247 551 1243 q 601 1250 582 1250 q 651 1233 635 1250 q 667 1196 667 1217 q 663 1172 667 1182 q 647 1151 658 1161 q 615 1127 635 1140 q 563 1094 594 1114 l 497 1056 l 382 1056 l 465 1161 z "},"Ĺ":{"ha":896,"x_min":50,"x_max":863,"o":"m 361 104 l 697 104 l 744 344 l 863 344 l 863 0 l 50 0 l 50 81 l 181 110 l 181 890 l 50 919 l 50 1000 l 506 1000 l 506 919 l 361 890 l 361 104 m 294 1161 q 334 1208 317 1190 q 366 1234 351 1225 q 396 1247 381 1243 q 431 1250 411 1250 q 480 1233 464 1250 q 496 1196 496 1217 q 492 1172 496 1182 q 476 1151 488 1161 q 444 1127 464 1140 q 392 1094 424 1114 l 326 1056 l 211 1056 l 294 1161 z "},"Ć":{"ha":969,"x_min":60,"x_max":928,"o":"m 524 918 q 423 896 471 918 q 346 832 375 874 q 283 697 308 778 q 257 517 257 617 q 278 331 257 417 q 336 188 299 246 q 418 117 367 139 q 536 96 469 96 q 810 331 769 96 l 928 331 q 790 71 893 156 q 506 -14 686 -14 q 200 97 314 -14 q 96 265 132 164 q 60 490 60 365 q 106 744 60 631 q 235 926 151 857 q 514 1014 340 1014 q 591 1009 557 1014 q 654 992 625 1004 q 709 961 683 981 q 761 913 735 942 l 789 1000 l 907 1000 l 907 672 l 781 672 q 694 856 761 794 q 524 918 626 918 m 563 1161 q 602 1208 585 1190 q 634 1234 619 1225 q 664 1247 649 1243 q 699 1250 679 1250 q 748 1233 732 1250 q 764 1196 764 1217 q 760 1172 764 1182 q 744 1151 756 1161 q 712 1127 732 1140 q 660 1094 692 1114 l 594 1056 l 479 1056 l 563 1161 z "},"Ź":{"ha":915,"x_min":39,"x_max":863,"o":"m 742 331 l 863 331 l 863 0 l 39 0 l 39 85 l 615 896 l 240 896 l 196 685 l 82 685 l 82 1000 l 831 1000 l 831 915 l 254 104 l 697 104 l 742 331 m 490 1161 q 530 1208 513 1190 q 562 1234 547 1225 q 592 1247 576 1243 q 626 1250 607 1250 q 676 1233 660 1250 q 692 1196 692 1217 q 688 1172 692 1182 q 672 1151 683 1161 q 640 1127 660 1140 q 588 1094 619 1114 l 522 1056 l 407 1056 l 490 1161 z "},"Ú":{"ha":1089,"x_min":33,"x_max":1057,"o":"m 811 890 l 694 919 l 694 1000 l 1057 1000 l 1057 919 l 940 890 l 940 338 q 838 74 940 164 q 533 -15 735 -15 q 249 76 347 -15 q 150 339 150 168 l 150 890 l 33 919 l 33 1000 l 447 1000 l 447 919 l 331 890 l 331 383 q 564 82 331 82 q 753 152 694 82 q 811 381 811 222 l 811 890 m 597 1161 q 637 1208 619 1190 q 669 1234 654 1225 q 699 1247 683 1243 q 733 1250 714 1250 q 783 1233 767 1250 q 799 1196 799 1217 q 794 1172 799 1182 q 778 1151 790 1161 q 747 1127 767 1140 q 694 1094 726 1114 l 629 1056 l 514 1056 l 597 1161 z "},"Ń":{"ha":1135,"x_min":57,"x_max":1090,"o":"m 174 890 l 57 919 l 57 1000 l 378 1000 l 842 267 l 842 890 l 725 919 l 725 1000 l 1090 1000 l 1090 919 l 974 890 l 974 0 l 819 0 l 306 797 l 306 110 l 422 81 l 422 0 l 57 0 l 57 81 l 174 110 l 174 890 m 592 1161 q 631 1208 614 1190 q 663 1234 649 1225 q 693 1247 678 1243 q 728 1250 708 1250 q 777 1233 761 1250 q 793 1196 793 1217 q 789 1172 793 1182 q 773 1151 785 1161 q 741 1127 761 1140 q 689 1094 721 1114 l 624 1056 l 508 1056 l 592 1161 z "},"Á":{"ha":1011,"x_min":-18,"x_max":1025,"o":"m 644 325 l 306 325 l 233 110 l 349 81 l 349 0 l -18 0 l -18 81 l 96 110 l 421 1014 l 592 1014 l 914 110 l 1025 81 l 1025 0 l 601 0 l 601 81 l 715 110 l 644 325 m 340 426 l 611 426 l 482 831 l 476 831 l 340 426 m 532 1161 q 572 1208 554 1190 q 603 1234 589 1225 q 633 1247 618 1243 q 668 1250 649 1250 q 717 1233 701 1250 q 733 1196 733 1217 q 729 1172 733 1182 q 713 1151 725 1161 q 681 1127 701 1140 q 629 1094 661 1114 l 564 1056 l 449 1056 l 532 1161 z "},"Ẃ":{"ha":1460,"x_min":-15,"x_max":1469,"o":"m 1219 892 l 1110 919 l 1110 1000 l 1469 1000 l 1469 919 l 1354 890 l 1097 0 l 911 0 l 729 599 l 564 0 l 378 0 l 93 890 l -15 919 l -15 1000 l 421 1000 l 421 919 l 288 890 l 485 178 l 490 178 l 665 828 l 653 890 l 544 919 l 544 1000 l 953 1000 l 953 919 l 825 890 l 1018 176 l 1024 176 l 1219 892 m 760 1161 q 799 1208 782 1190 q 831 1234 817 1225 q 861 1247 846 1243 q 896 1250 876 1250 q 945 1233 929 1250 q 961 1196 961 1217 q 957 1172 961 1182 q 941 1151 953 1161 q 909 1127 929 1140 q 857 1094 889 1114 l 792 1056 l 676 1056 l 760 1161 z "},"Ý":{"ha":947,"x_min":-14,"x_max":956,"o":"m 711 890 l 599 919 l 599 1000 l 956 1000 l 956 919 l 842 890 l 569 392 l 569 110 l 700 81 l 700 0 l 258 0 l 258 81 l 389 110 l 389 369 l 101 890 l -14 919 l -14 1000 l 411 1000 l 411 919 l 294 890 l 500 504 l 711 890 m 526 1161 q 566 1208 549 1190 q 598 1234 583 1225 q 628 1247 613 1243 q 663 1250 643 1250 q 712 1233 696 1250 q 728 1196 728 1217 q 724 1172 728 1182 q 708 1151 719 1161 q 676 1127 696 1140 q 624 1094 656 1114 l 558 1056 l 443 1056 l 526 1161 z "},"Ś":{"ha":851,"x_min":81,"x_max":789,"o":"m 447 -15 q 313 8 368 -15 q 215 81 258 31 l 200 0 l 81 0 l 81 336 l 207 336 q 228 218 211 267 q 275 139 246 169 q 344 95 304 108 q 433 82 383 82 q 560 115 513 82 q 607 218 607 147 q 589 292 607 261 q 538 347 571 322 q 458 392 504 371 q 357 436 413 413 q 241 490 292 463 q 156 551 190 517 q 103 628 121 585 q 85 733 85 672 q 167 942 85 868 q 389 1015 250 1015 q 613 938 526 1015 l 624 1000 l 743 1000 l 743 664 l 622 664 q 574 857 622 794 q 424 919 525 919 q 267 771 267 919 q 277 710 267 735 q 312 665 288 685 q 376 625 336 644 q 474 579 415 606 q 622 504 561 539 q 719 433 682 469 q 772 357 756 397 q 789 265 789 317 q 763 143 789 196 q 690 55 736 90 q 581 2 643 19 q 447 -15 518 -15 m 435 1161 q 474 1208 457 1190 q 506 1234 492 1225 q 536 1247 521 1243 q 571 1250 551 1250 q 620 1233 604 1250 q 636 1196 636 1217 q 632 1172 636 1182 q 616 1151 628 1161 q 584 1127 604 1140 q 532 1094 564 1114 l 467 1056 l 351 1056 l 435 1161 z "},"Ì":{"ha":542,"x_min":50,"x_max":492,"o":"m 361 110 l 492 81 l 492 0 l 50 0 l 50 81 l 181 110 l 181 890 l 50 919 l 50 1000 l 492 1000 l 492 919 l 361 890 l 361 110 m 389 1056 l 274 1056 l 208 1094 q 156 1127 176 1114 q 124 1151 135 1140 q 108 1172 113 1161 q 104 1196 104 1182 q 120 1233 104 1217 q 169 1250 136 1250 q 204 1247 189 1250 q 234 1234 219 1243 q 265 1208 249 1225 q 306 1161 282 1190 l 389 1056 z "},"Ò":{"ha":1075,"x_min":60,"x_max":1015,"o":"m 1015 511 q 982 288 1015 394 q 876 107 949 182 q 734 15 817 44 q 533 -14 651 -14 q 333 15 415 -14 q 193 103 250 44 q 96 266 132 165 q 60 489 60 367 q 96 717 60 611 q 199 893 132 822 q 338 985 257 956 q 538 1014 419 1014 q 734 987 650 1014 q 881 897 818 960 q 984 723 953 825 q 1015 511 1015 621 m 261 515 q 281 324 261 407 q 336 188 301 240 q 419 110 369 136 q 542 83 468 83 q 739 175 672 83 q 794 302 775 224 q 814 492 814 381 q 794 682 814 601 q 738 815 774 763 q 649 893 701 868 q 532 918 597 918 q 418 894 465 918 q 339 826 371 869 q 261 515 261 724 m 660 1056 l 544 1056 l 479 1094 q 426 1127 447 1114 q 394 1151 406 1140 q 379 1172 383 1161 q 375 1196 375 1182 q 391 1233 375 1217 q 440 1250 407 1250 q 475 1247 460 1250 q 505 1234 490 1243 q 536 1208 519 1225 q 576 1161 553 1190 l 660 1056 z "},"È":{"ha":969,"x_min":50,"x_max":904,"o":"m 575 331 l 551 461 l 361 461 l 361 104 l 743 104 l 782 310 l 904 310 l 904 0 l 50 0 l 50 81 l 181 110 l 181 890 l 50 919 l 50 1000 l 874 1000 l 874 706 l 760 706 l 719 899 l 361 899 l 361 565 l 551 565 l 575 697 l 688 697 l 688 331 l 575 331 m 611 1056 l 496 1056 l 431 1094 q 378 1127 399 1114 q 346 1151 357 1140 q 331 1172 335 1161 q 326 1196 326 1182 q 342 1233 326 1217 q 392 1250 358 1250 q 426 1247 411 1250 q 456 1234 442 1243 q 488 1208 471 1225 q 528 1161 504 1190 l 611 1056 z "},"Ù":{"ha":1089,"x_min":33,"x_max":1057,"o":"m 811 890 l 694 919 l 694 1000 l 1057 1000 l 1057 919 l 940 890 l 940 338 q 838 74 940 164 q 533 -15 735 -15 q 249 76 347 -15 q 150 339 150 168 l 150 890 l 33 919 l 33 1000 l 447 1000 l 447 919 l 331 890 l 331 383 q 564 82 331 82 q 753 152 694 82 q 811 381 811 222 l 811 890 m 693 1056 l 578 1056 l 513 1094 q 460 1127 481 1114 q 428 1151 439 1140 q 413 1172 417 1161 q 408 1196 408 1182 q 424 1233 408 1217 q 474 1250 440 1250 q 508 1247 493 1250 q 538 1234 524 1243 q 569 1208 553 1225 q 610 1161 586 1190 l 693 1056 z "},"À":{"ha":1011,"x_min":-18,"x_max":1025,"o":"m 644 325 l 306 325 l 233 110 l 349 81 l 349 0 l -18 0 l -18 81 l 96 110 l 421 1014 l 592 1014 l 914 110 l 1025 81 l 1025 0 l 601 0 l 601 81 l 715 110 l 644 325 m 340 426 l 611 426 l 482 831 l 476 831 l 340 426 m 594 1056 l 479 1056 l 414 1094 q 361 1127 382 1114 q 329 1151 340 1140 q 314 1172 318 1161 q 310 1196 310 1182 q 326 1233 310 1217 q 375 1250 342 1250 q 410 1247 394 1250 q 440 1234 425 1243 q 471 1208 454 1225 q 511 1161 488 1190 l 594 1056 z "},"Ẁ":{"ha":1460,"x_min":-15,"x_max":1469,"o":"m 1219 892 l 1110 919 l 1110 1000 l 1469 1000 l 1469 919 l 1354 890 l 1097 0 l 911 0 l 729 599 l 564 0 l 378 0 l 93 890 l -15 919 l -15 1000 l 421 1000 l 421 919 l 288 890 l 485 178 l 490 178 l 665 828 l 653 890 l 544 919 l 544 1000 l 953 1000 l 953 919 l 825 890 l 1018 176 l 1024 176 l 1219 892 m 833 1056 l 718 1056 l 653 1094 q 600 1127 621 1114 q 568 1151 579 1140 q 553 1172 557 1161 q 549 1196 549 1182 q 565 1233 549 1217 q 614 1250 581 1250 q 649 1247 633 1250 q 678 1234 664 1243 q 710 1208 693 1225 q 750 1161 726 1190 l 833 1056 z "},"Ỳ":{"ha":947,"x_min":-14,"x_max":956,"o":"m 711 890 l 599 919 l 599 1000 l 956 1000 l 956 919 l 842 890 l 569 392 l 569 110 l 700 81 l 700 0 l 258 0 l 258 81 l 389 110 l 389 369 l 101 890 l -14 919 l -14 1000 l 411 1000 l 411 919 l 294 890 l 500 504 l 711 890 m 606 1056 l 490 1056 l 425 1094 q 372 1127 393 1114 q 340 1151 351 1140 q 325 1172 329 1161 q 321 1196 321 1182 q 337 1233 321 1217 q 386 1250 353 1250 q 421 1247 406 1250 q 451 1234 436 1243 q 482 1208 465 1225 q 522 1161 499 1190 l 606 1056 z "},"Ő":{"ha":1075,"x_min":60,"x_max":1015,"o":"m 1015 511 q 982 288 1015 394 q 876 107 949 182 q 734 15 817 44 q 533 -14 651 -14 q 333 15 415 -14 q 193 103 250 44 q 96 266 132 165 q 60 489 60 367 q 96 717 60 611 q 199 893 132 822 q 338 985 257 956 q 538 1014 419 1014 q 734 987 650 1014 q 881 897 818 960 q 984 723 953 825 q 1015 511 1015 621 m 261 515 q 281 324 261 407 q 336 188 301 240 q 419 110 369 136 q 542 83 468 83 q 739 175 672 83 q 794 302 775 224 q 814 492 814 381 q 794 682 814 601 q 738 815 774 763 q 649 893 701 868 q 532 918 597 918 q 418 894 465 918 q 339 826 371 869 q 261 515 261 724 z "},"Ű":{"ha":1089,"x_min":33,"x_max":1057,"o":"m 811 890 l 694 919 l 694 1000 l 1057 1000 l 1057 919 l 940 890 l 940 338 q 838 74 940 164 q 533 -15 735 -15 q 249 76 347 -15 q 150 339 150 168 l 150 890 l 33 919 l 33 1000 l 447 1000 l 447 919 l 331 890 l 331 383 q 564 82 331 82 q 753 152 694 82 q 811 381 811 222 l 811 890 z "},"ĺ":{"ha":403,"x_min":26,"x_max":390,"o":"m 235 1176 q 288 1228 264 1214 q 339 1243 313 1243 q 390 1201 390 1243 q 366 1160 390 1179 q 289 1110 342 1142 l 224 1069 l 150 1069 l 235 1176 m 133 917 l 26 943 l 26 1000 l 268 1000 l 268 83 l 375 57 l 375 0 l 26 0 l 26 57 l 133 83 l 133 917 z "},"Ĩ":{"ha":542,"x_min":-6,"x_max":547,"o":"m 361 110 l 492 81 l 492 0 l 50 0 l 50 81 l 181 110 l 181 890 l 50 919 l 50 1000 l 492 1000 l 492 919 l 361 890 l 361 110 m -6 1049 q 46 1200 -3 1150 q 171 1250 94 1250 q 232 1238 206 1250 q 281 1212 258 1226 q 324 1185 303 1197 q 374 1174 346 1174 q 436 1192 415 1174 q 464 1243 457 1210 l 547 1243 q 371 1033 518 1033 q 310 1045 336 1033 q 262 1072 285 1057 q 217 1099 239 1086 q 168 1111 194 1111 q 106 1094 126 1111 q 78 1049 85 1078 l -6 1049 z "},"Õ":{"ha":1075,"x_min":60,"x_max":1015,"o":"m 1015 511 q 982 288 1015 394 q 876 107 949 182 q 734 15 817 44 q 533 -14 651 -14 q 333 15 415 -14 q 193 103 250 44 q 96 266 132 165 q 60 489 60 367 q 96 717 60 611 q 199 893 132 822 q 338 985 257 956 q 538 1014 419 1014 q 734 987 650 1014 q 881 897 818 960 q 984 723 953 825 q 1015 511 1015 621 m 261 515 q 281 324 261 407 q 336 188 301 240 q 419 110 369 136 q 542 83 468 83 q 739 175 672 83 q 794 302 775 224 q 814 492 814 381 q 794 682 814 601 q 738 815 774 763 q 649 893 701 868 q 532 918 597 918 q 418 894 465 918 q 339 826 371 869 q 261 515 261 724 m 261 1049 q 313 1200 264 1150 q 438 1250 361 1250 q 499 1238 472 1250 q 547 1212 525 1226 q 591 1185 569 1197 q 640 1174 613 1174 q 703 1192 682 1174 q 731 1243 724 1210 l 814 1243 q 638 1033 785 1033 q 577 1045 603 1033 q 528 1072 551 1057 q 483 1099 506 1086 q 435 1111 461 1111 q 372 1094 393 1111 q 344 1049 351 1078 l 261 1049 z "},"Ẽ":{"ha":969,"x_min":50,"x_max":904,"o":"m 575 331 l 551 461 l 361 461 l 361 104 l 743 104 l 782 310 l 904 310 l 904 0 l 50 0 l 50 81 l 181 110 l 181 890 l 50 919 l 50 1000 l 874 1000 l 874 706 l 760 706 l 719 899 l 361 899 l 361 565 l 551 565 l 575 697 l 688 697 l 688 331 l 575 331 m 215 1049 q 267 1200 218 1150 q 392 1250 315 1250 q 453 1238 426 1250 q 501 1212 479 1226 q 545 1185 524 1197 q 594 1174 567 1174 q 657 1192 636 1174 q 685 1243 678 1210 l 768 1243 q 592 1033 739 1033 q 531 1045 557 1033 q 483 1072 506 1057 q 438 1099 460 1086 q 389 1111 415 1111 q 326 1094 347 1111 q 299 1049 306 1078 l 215 1049 z "},"Ũ":{"ha":1089,"x_min":33,"x_max":1057,"o":"m 811 890 l 694 919 l 694 1000 l 1057 1000 l 1057 919 l 940 890 l 940 338 q 838 74 940 164 q 533 -15 735 -15 q 249 76 347 -15 q 150 339 150 168 l 150 890 l 33 919 l 33 1000 l 447 1000 l 447 919 l 331 890 l 331 383 q 564 82 331 82 q 753 152 694 82 q 811 381 811 222 l 811 890 m 296 1049 q 347 1200 299 1150 q 472 1250 396 1250 q 533 1238 507 1250 q 582 1212 560 1226 q 626 1185 604 1197 q 675 1174 647 1174 q 738 1192 717 1174 q 765 1243 758 1210 l 849 1243 q 672 1033 819 1033 q 612 1045 638 1033 q 563 1072 586 1057 q 518 1099 540 1086 q 469 1111 496 1111 q 407 1094 428 1111 q 379 1049 386 1078 l 296 1049 z "},"Ñ":{"ha":1135,"x_min":57,"x_max":1090,"o":"m 174 890 l 57 919 l 57 1000 l 378 1000 l 842 267 l 842 890 l 725 919 l 725 1000 l 1090 1000 l 1090 919 l 974 890 l 974 0 l 819 0 l 306 797 l 306 110 l 422 81 l 422 0 l 57 0 l 57 81 l 174 110 l 174 890 m 290 1049 q 342 1200 293 1150 q 467 1250 390 1250 q 528 1238 501 1250 q 576 1212 554 1226 q 620 1185 599 1197 q 669 1174 642 1174 q 732 1192 711 1174 q 760 1243 753 1210 l 843 1243 q 667 1033 814 1033 q 606 1045 632 1033 q 558 1072 581 1057 q 513 1099 535 1086 q 464 1111 490 1111 q 401 1094 422 1111 q 374 1049 381 1078 l 290 1049 z "},"Ã":{"ha":1011,"x_min":-18,"x_max":1025,"o":"m 644 325 l 306 325 l 233 110 l 349 81 l 349 0 l -18 0 l -18 81 l 96 110 l 421 1014 l 592 1014 l 914 110 l 1025 81 l 1025 0 l 601 0 l 601 81 l 715 110 l 644 325 m 340 426 l 611 426 l 482 831 l 476 831 l 340 426 m 231 1049 q 282 1200 233 1150 q 407 1250 331 1250 q 468 1238 442 1250 q 517 1212 494 1226 q 560 1185 539 1197 q 610 1174 582 1174 q 672 1192 651 1174 q 700 1243 693 1210 l 783 1243 q 607 1033 754 1033 q 547 1045 572 1033 q 498 1072 521 1057 q 453 1099 475 1086 q 404 1111 431 1111 q 342 1094 363 1111 q 314 1049 321 1078 l 231 1049 z "},"Ỹ":{"ha":947,"x_min":-14,"x_max":956,"o":"m 711 890 l 599 919 l 599 1000 l 956 1000 l 956 919 l 842 890 l 569 392 l 569 110 l 700 81 l 700 0 l 258 0 l 258 81 l 389 110 l 389 369 l 101 890 l -14 919 l -14 1000 l 411 1000 l 411 919 l 294 890 l 500 504 l 711 890 m 225 1049 q 276 1200 228 1150 q 401 1250 325 1250 q 463 1238 436 1250 q 511 1212 489 1226 q 555 1185 533 1197 q 604 1174 576 1174 q 667 1192 646 1174 q 694 1243 688 1210 l 778 1243 q 601 1033 749 1033 q 541 1045 567 1033 q 492 1072 515 1057 q 447 1099 469 1086 q 399 1111 425 1111 q 336 1094 357 1111 q 308 1049 315 1078 l 225 1049 z "},"Ŏ":{"ha":1075,"x_min":60,"x_max":1015,"o":"m 771 1249 q 726 1094 768 1154 q 618 1010 685 1033 q 765 974 700 1001 q 881 897 829 947 q 984 723 953 825 q 1015 511 1015 621 q 982 288 1015 394 q 876 107 949 182 q 734 15 817 44 q 533 -14 651 -14 q 333 15 415 -14 q 193 103 250 44 q 96 266 132 165 q 60 489 60 367 q 96 717 60 611 q 199 893 132 822 q 310 973 247 944 q 458 1010 372 1001 q 356 1096 392 1033 q 321 1249 321 1158 l 408 1249 q 447 1161 411 1188 q 538 1135 483 1135 q 645 1161 607 1135 q 683 1249 683 1188 l 771 1249 m 261 515 q 281 324 261 407 q 336 188 301 240 q 419 110 369 136 q 542 83 468 83 q 739 175 672 83 q 794 302 775 224 q 814 492 814 381 q 794 682 814 601 q 738 815 774 763 q 649 893 701 868 q 532 918 597 918 q 418 894 465 918 q 339 826 371 869 q 261 515 261 724 z "},"Ĕ":{"ha":969,"x_min":50,"x_max":904,"o":"m 725 1249 q 669 1076 722 1140 q 531 1000 615 1013 l 874 1000 l 874 706 l 760 706 l 719 899 l 361 899 l 361 565 l 551 565 l 575 697 l 688 697 l 688 331 l 575 331 l 551 461 l 361 461 l 361 104 l 743 104 l 782 310 l 904 310 l 904 0 l 50 0 l 50 81 l 181 110 l 181 890 l 50 919 l 50 1000 l 451 1000 q 320 1081 365 1014 q 275 1249 275 1147 l 363 1249 q 401 1161 365 1188 q 492 1135 438 1135 q 599 1161 561 1135 q 638 1249 638 1188 l 725 1249 z "},"Ğ":{"ha":1063,"x_min":60,"x_max":1040,"o":"m 760 1249 q 713 1091 757 1153 q 599 1007 669 1029 q 685 976 647 999 q 761 914 722 954 l 789 1000 l 907 1000 l 907 672 l 781 672 q 699 851 761 785 q 524 918 636 918 q 419 897 461 918 q 347 838 378 876 q 282 694 308 779 q 256 508 256 608 q 280 320 256 410 q 349 169 304 231 q 423 115 376 132 q 525 97 469 97 q 693 156 643 97 q 743 331 743 214 l 743 386 l 626 415 l 626 499 l 1040 499 l 1040 415 l 924 386 l 924 0 l 810 0 l 775 110 q 650 15 714 43 q 499 -14 586 -14 q 194 103 308 -14 q 94 268 129 169 q 60 489 60 367 q 97 718 60 613 q 200 894 133 824 q 306 972 246 943 q 446 1010 367 1001 q 344 1097 379 1033 q 310 1249 310 1160 l 397 1249 q 436 1161 400 1188 q 526 1135 472 1135 q 634 1161 596 1135 q 672 1249 672 1188 l 760 1249 z "},"Ŭ":{"ha":1089,"x_min":33,"x_max":1057,"o":"m 811 890 l 694 919 l 694 1000 l 1057 1000 l 1057 919 l 940 890 l 940 338 q 838 74 940 164 q 533 -15 735 -15 q 249 76 347 -15 q 150 339 150 168 l 150 890 l 33 919 l 33 1000 l 447 1000 l 447 919 l 331 890 l 331 383 q 564 82 331 82 q 753 152 694 82 q 811 381 811 222 l 811 890 m 806 1249 q 786 1142 804 1189 q 738 1063 768 1096 q 665 1014 707 1031 q 572 997 622 997 q 412 1067 468 997 q 356 1249 356 1136 l 443 1249 q 482 1161 446 1188 q 572 1135 518 1135 q 680 1161 642 1135 q 718 1249 718 1188 l 806 1249 z "},"Ă":{"ha":1011,"x_min":-18,"x_max":1025,"o":"m 740 1249 q 698 1096 738 1157 q 592 1011 658 1035 l 914 110 l 1025 81 l 1025 0 l 601 0 l 601 81 l 715 110 l 644 325 l 306 325 l 233 110 l 349 81 l 349 0 l -18 0 l -18 81 l 96 110 l 419 1013 q 324 1099 357 1038 q 290 1249 290 1161 l 378 1249 q 417 1161 381 1188 q 507 1135 453 1135 q 615 1161 576 1135 q 653 1249 653 1188 l 740 1249 m 340 426 l 611 426 l 482 831 l 476 831 l 340 426 z "},"Å":{"ha":1011,"x_min":-18,"x_max":1025,"o":"m 644 325 l 306 325 l 233 110 l 349 81 l 349 0 l -18 0 l -18 81 l 96 110 l 421 1014 l 592 1014 l 914 110 l 1025 81 l 1025 0 l 601 0 l 601 81 l 715 110 l 644 325 m 340 426 l 611 426 l 482 831 l 476 831 l 340 426 m 382 1144 q 419 1224 382 1197 q 507 1250 456 1250 q 597 1224 560 1250 q 633 1144 633 1197 q 597 1067 633 1093 q 507 1042 560 1042 q 419 1067 456 1042 q 382 1144 382 1093 m 465 1144 q 507 1103 465 1103 q 551 1144 551 1103 q 507 1189 551 1189 q 465 1144 465 1189 z "},"Ī":{"ha":542,"x_min":50,"x_max":492,"o":"m 361 110 l 492 81 l 492 0 l 50 0 l 50 81 l 181 110 l 181 890 l 50 919 l 50 1000 l 492 1000 l 492 919 l 361 890 l 361 110 z "},"Ō":{"ha":1075,"x_min":60,"x_max":1015,"o":"m 1015 511 q 982 288 1015 394 q 876 107 949 182 q 734 15 817 44 q 533 -14 651 -14 q 333 15 415 -14 q 193 103 250 44 q 96 266 132 165 q 60 489 60 367 q 96 717 60 611 q 199 893 132 822 q 338 985 257 956 q 538 1014 419 1014 q 734 987 650 1014 q 881 897 818 960 q 984 723 953 825 q 1015 511 1015 621 m 261 515 q 281 324 261 407 q 336 188 301 240 q 419 110 369 136 q 542 83 468 83 q 739 175 672 83 q 794 302 775 224 q 814 492 814 381 q 794 682 814 601 q 738 815 774 763 q 649 893 701 868 q 532 918 597 918 q 418 894 465 918 q 339 826 371 869 q 261 515 261 724 z "},"Ē":{"ha":969,"x_min":50,"x_max":904,"o":"m 575 331 l 551 461 l 361 461 l 361 104 l 743 104 l 782 310 l 904 310 l 904 0 l 50 0 l 50 81 l 181 110 l 181 890 l 50 919 l 50 1000 l 874 1000 l 874 706 l 760 706 l 719 899 l 361 899 l 361 565 l 551 565 l 575 697 l 688 697 l 688 331 l 575 331 z "},"Ū":{"ha":1089,"x_min":33,"x_max":1057,"o":"m 811 890 l 694 919 l 694 1000 l 1057 1000 l 1057 919 l 940 890 l 940 338 q 838 74 940 164 q 533 -15 735 -15 q 249 76 347 -15 q 150 339 150 168 l 150 890 l 33 919 l 33 1000 l 447 1000 l 447 919 l 331 890 l 331 383 q 564 82 331 82 q 753 152 694 82 q 811 381 811 222 l 811 890 z "},"Ā":{"ha":1011,"x_min":-18,"x_max":1025,"o":"m 644 325 l 306 325 l 233 110 l 349 81 l 349 0 l -18 0 l -18 81 l 96 110 l 421 1014 l 592 1014 l 914 110 l 1025 81 l 1025 0 l 601 0 l 601 81 l 715 110 l 644 325 m 340 426 l 611 426 l 482 831 l 476 831 l 340 426 z "},"Î":{"ha":542,"x_min":19,"x_max":522,"o":"m 361 110 l 492 81 l 492 0 l 50 0 l 50 81 l 181 110 l 181 890 l 50 919 l 50 1000 l 492 1000 l 492 919 l 361 890 l 361 110 m 522 1068 l 407 1068 l 271 1153 l 135 1068 l 19 1068 l 183 1236 l 357 1236 l 522 1068 z "},"Ĥ":{"ha":1138,"x_min":57,"x_max":1081,"o":"m 964 110 l 1081 81 l 1081 0 l 667 0 l 667 81 l 783 110 l 783 463 l 354 463 l 354 110 l 471 81 l 471 0 l 57 0 l 57 81 l 174 110 l 174 890 l 57 919 l 57 1000 l 471 1000 l 471 919 l 354 890 l 354 564 l 783 564 l 783 890 l 667 919 l 667 1000 l 1081 1000 l 1081 919 l 964 890 l 964 110 m 825 1068 l 710 1068 l 574 1153 l 438 1068 l 322 1068 l 486 1236 l 660 1236 l 825 1068 z "},"Ô":{"ha":1075,"x_min":60,"x_max":1015,"o":"m 1015 511 q 982 288 1015 394 q 876 107 949 182 q 734 15 817 44 q 533 -14 651 -14 q 333 15 415 -14 q 193 103 250 44 q 96 266 132 165 q 60 489 60 367 q 96 717 60 611 q 199 893 132 822 q 338 985 257 956 q 538 1014 419 1014 q 734 987 650 1014 q 881 897 818 960 q 984 723 953 825 q 1015 511 1015 621 m 261 515 q 281 324 261 407 q 336 188 301 240 q 419 110 369 136 q 542 83 468 83 q 739 175 672 83 q 794 302 775 224 q 814 492 814 381 q 794 682 814 601 q 738 815 774 763 q 649 893 701 868 q 532 918 597 918 q 418 894 465 918 q 339 826 371 869 q 261 515 261 724 m 789 1068 l 674 1068 l 538 1153 l 401 1068 l 286 1068 l 450 1236 l 624 1236 l 789 1068 z "},"Ê":{"ha":969,"x_min":50,"x_max":904,"o":"m 575 331 l 551 461 l 361 461 l 361 104 l 743 104 l 782 310 l 904 310 l 904 0 l 50 0 l 50 81 l 181 110 l 181 890 l 50 919 l 50 1000 l 874 1000 l 874 706 l 760 706 l 719 899 l 361 899 l 361 565 l 551 565 l 575 697 l 688 697 l 688 331 l 575 331 m 743 1068 l 628 1068 l 492 1153 l 356 1068 l 240 1068 l 404 1236 l 578 1236 l 743 1068 z "},"Ĉ":{"ha":969,"x_min":60,"x_max":928,"o":"m 524 918 q 423 896 471 918 q 346 832 375 874 q 283 697 308 778 q 257 517 257 617 q 278 331 257 417 q 336 188 299 246 q 418 117 367 139 q 536 96 469 96 q 810 331 769 96 l 928 331 q 790 71 893 156 q 506 -14 686 -14 q 200 97 314 -14 q 96 265 132 164 q 60 490 60 365 q 106 744 60 631 q 235 926 151 857 q 514 1014 340 1014 q 591 1009 557 1014 q 654 992 625 1004 q 709 961 683 981 q 761 913 735 942 l 789 1000 l 907 1000 l 907 672 l 781 672 q 694 856 761 794 q 524 918 626 918 m 789 1068 l 674 1068 l 538 1153 l 401 1068 l 286 1068 l 450 1236 l 624 1236 l 789 1068 z "},"Ĝ":{"ha":1063,"x_min":60,"x_max":1040,"o":"m 525 97 q 693 156 643 97 q 743 331 743 214 l 743 386 l 626 415 l 626 499 l 1040 499 l 1040 415 l 924 386 l 924 0 l 810 0 l 775 110 q 650 15 714 43 q 499 -14 586 -14 q 194 103 308 -14 q 94 268 129 169 q 60 489 60 367 q 97 718 60 613 q 200 894 133 824 q 334 984 257 954 q 518 1014 411 1014 q 593 1008 560 1014 q 655 991 626 1003 q 709 960 683 979 q 761 914 735 942 l 789 1000 l 907 1000 l 907 672 l 781 672 q 699 851 761 785 q 524 918 636 918 q 419 897 461 918 q 347 838 378 876 q 282 694 308 779 q 256 508 256 608 q 280 320 256 410 q 349 169 304 231 q 423 115 376 132 q 525 97 469 97 m 778 1068 l 663 1068 l 526 1153 l 390 1068 l 275 1068 l 439 1236 l 613 1236 l 778 1068 z "},"Ĵ":{"ha":829,"x_min":11,"x_max":838,"o":"m 493 890 l 356 919 l 356 1000 l 783 1000 l 783 919 l 674 890 l 674 303 q 650 172 674 231 q 583 72 626 114 q 480 8 540 31 q 346 -15 419 -15 q 210 3 271 -15 q 104 54 149 21 q 35 133 60 88 q 11 236 11 179 q 39 340 11 300 q 122 381 67 381 q 201 353 171 381 q 232 279 232 325 q 214 215 232 247 q 172 171 196 182 q 219 110 179 135 q 333 86 258 86 q 451 136 410 86 q 493 288 493 186 l 493 890 m 838 1068 l 722 1068 l 586 1153 l 450 1068 l 335 1068 l 499 1236 l 672 1236 l 838 1068 z "},"Û":{"ha":1089,"x_min":33,"x_max":1057,"o":"m 811 890 l 694 919 l 694 1000 l 1057 1000 l 1057 919 l 940 890 l 940 338 q 838 74 940 164 q 533 -15 735 -15 q 249 76 347 -15 q 150 339 150 168 l 150 890 l 33 919 l 33 1000 l 447 1000 l 447 919 l 331 890 l 331 383 q 564 82 331 82 q 753 152 694 82 q 811 381 811 222 l 811 890 m 824 1068 l 708 1068 l 572 1153 l 436 1068 l 321 1068 l 485 1236 l 658 1236 l 824 1068 z "},"Â":{"ha":1011,"x_min":-18,"x_max":1025,"o":"m 644 325 l 306 325 l 233 110 l 349 81 l 349 0 l -18 0 l -18 81 l 96 110 l 421 1014 l 592 1014 l 914 110 l 1025 81 l 1025 0 l 601 0 l 601 81 l 715 110 l 644 325 m 340 426 l 611 426 l 482 831 l 476 831 l 340 426 m 758 1068 l 643 1068 l 507 1153 l 371 1068 l 256 1068 l 419 1236 l 593 1236 l 758 1068 z "},"Ŵ":{"ha":1460,"x_min":-15,"x_max":1469,"o":"m 1219 892 l 1110 919 l 1110 1000 l 1469 1000 l 1469 919 l 1354 890 l 1097 0 l 911 0 l 729 599 l 564 0 l 378 0 l 93 890 l -15 919 l -15 1000 l 421 1000 l 421 919 l 288 890 l 485 178 l 490 178 l 665 828 l 653 890 l 544 919 l 544 1000 l 953 1000 l 953 919 l 825 890 l 1018 176 l 1024 176 l 1219 892 m 986 1068 l 871 1068 l 735 1153 l 599 1068 l 483 1068 l 647 1236 l 821 1236 l 986 1068 z "},"Ŷ":{"ha":947,"x_min":-14,"x_max":956,"o":"m 711 890 l 599 919 l 599 1000 l 956 1000 l 956 919 l 842 890 l 569 392 l 569 110 l 700 81 l 700 0 l 258 0 l 258 81 l 389 110 l 389 369 l 101 890 l -14 919 l -14 1000 l 411 1000 l 411 919 l 294 890 l 500 504 l 711 890 m 753 1069 l 638 1069 l 501 1154 l 365 1069 l 250 1069 l 414 1238 l 588 1238 l 753 1069 z "},"Ŝ":{"ha":851,"x_min":81,"x_max":789,"o":"m 447 -15 q 313 8 368 -15 q 215 81 258 31 l 200 0 l 81 0 l 81 336 l 207 336 q 228 218 211 267 q 275 139 246 169 q 344 95 304 108 q 433 82 383 82 q 560 115 513 82 q 607 218 607 147 q 589 292 607 261 q 538 347 571 322 q 458 392 504 371 q 357 436 413 413 q 241 490 292 463 q 156 551 190 517 q 103 628 121 585 q 85 733 85 672 q 167 942 85 868 q 389 1015 250 1015 q 613 938 526 1015 l 624 1000 l 743 1000 l 743 664 l 622 664 q 574 857 622 794 q 424 919 525 919 q 267 771 267 919 q 277 710 267 735 q 312 665 288 685 q 376 625 336 644 q 474 579 415 606 q 622 504 561 539 q 719 433 682 469 q 772 357 756 397 q 789 265 789 317 q 763 143 789 196 q 690 55 736 90 q 581 2 643 19 q 447 -15 518 -15 m 661 1068 l 546 1068 l 410 1153 l 274 1068 l 158 1068 l 322 1236 l 496 1236 l 661 1068 z "},"Ĭ":{"ha":542,"x_min":33,"x_max":492,"o":"m 483 1249 q 427 1076 481 1140 q 289 1000 374 1013 l 492 1000 l 492 919 l 361 890 l 361 110 l 492 81 l 492 0 l 50 0 l 50 81 l 181 110 l 181 890 l 50 919 l 50 1000 l 210 1000 q 78 1081 124 1014 q 33 1249 33 1147 l 121 1249 q 160 1161 124 1188 q 250 1135 196 1135 q 358 1161 319 1135 q 396 1249 396 1188 l 483 1249 z "},"Ď":{"ha":1082,"x_min":57,"x_max":1022,"o":"m 528 104 q 656 127 603 104 q 744 196 708 150 q 801 316 782 243 q 821 492 821 389 q 744 793 821 689 q 651 870 707 844 q 514 896 594 896 l 354 896 l 354 104 l 528 104 m 565 1000 q 888 883 772 1000 q 988 719 953 817 q 1022 511 1022 622 q 986 292 1022 393 q 883 121 950 190 q 744 29 825 58 q 553 0 664 0 l 57 0 l 57 81 l 174 110 l 174 890 l 57 919 l 57 1000 l 565 1000 m 600 1068 l 426 1068 l 263 1236 l 378 1236 l 514 1151 l 650 1236 l 765 1236 l 600 1068 z "},"Ě":{"ha":969,"x_min":50,"x_max":904,"o":"m 575 331 l 551 461 l 361 461 l 361 104 l 743 104 l 782 310 l 904 310 l 904 0 l 50 0 l 50 81 l 181 110 l 181 890 l 50 919 l 50 1000 l 874 1000 l 874 706 l 760 706 l 719 899 l 361 899 l 361 565 l 551 565 l 575 697 l 688 697 l 688 331 l 575 331 m 604 1068 l 431 1068 l 267 1236 l 382 1236 l 518 1151 l 654 1236 l 769 1236 l 604 1068 z "},"Ř":{"ha":996,"x_min":57,"x_max":997,"o":"m 786 531 q 730 493 761 511 q 650 464 699 475 q 672 440 657 457 q 701 399 686 422 l 874 107 l 997 81 l 997 0 l 669 0 l 669 81 l 488 438 l 354 438 l 354 110 l 486 81 l 486 0 l 57 0 l 57 81 l 174 110 l 174 890 l 57 919 l 57 1000 l 576 1000 q 693 988 643 1000 q 783 947 743 975 q 863 854 833 911 q 892 739 892 797 q 863 624 892 681 q 786 531 835 568 m 511 539 q 638 582 588 539 q 681 645 665 606 q 697 731 697 685 q 681 806 697 772 q 636 863 664 839 q 506 899 590 899 l 354 899 l 354 539 l 511 539 m 576 1068 l 403 1068 l 239 1236 l 354 1236 l 490 1151 l 626 1236 l 742 1236 l 576 1068 z "},"Ľ":{"ha":896,"x_min":18,"x_max":863,"o":"m 361 104 l 697 104 l 744 344 l 863 344 l 863 0 l 50 0 l 50 81 l 181 110 l 181 890 l 50 919 l 50 1000 l 506 1000 l 506 919 l 361 890 l 361 104 m 356 1068 l 182 1068 l 18 1236 l 133 1236 l 269 1151 l 406 1236 l 521 1236 l 356 1068 z "},"Č":{"ha":969,"x_min":60,"x_max":928,"o":"m 524 918 q 423 896 471 918 q 346 832 375 874 q 283 697 308 778 q 257 517 257 617 q 278 331 257 417 q 336 188 299 246 q 418 117 367 139 q 536 96 469 96 q 810 331 769 96 l 928 331 q 790 71 893 156 q 506 -14 686 -14 q 200 97 314 -14 q 96 265 132 164 q 60 490 60 365 q 106 744 60 631 q 235 926 151 857 q 514 1014 340 1014 q 591 1009 557 1014 q 654 992 625 1004 q 709 961 683 981 q 761 913 735 942 l 789 1000 l 907 1000 l 907 672 l 781 672 q 694 856 761 794 q 524 918 626 918 m 624 1068 l 450 1068 l 286 1236 l 401 1236 l 538 1151 l 674 1236 l 789 1236 l 624 1068 z "},"Ž":{"ha":915,"x_min":39,"x_max":863,"o":"m 742 331 l 863 331 l 863 0 l 39 0 l 39 85 l 615 896 l 240 896 l 196 685 l 82 685 l 82 1000 l 831 1000 l 831 915 l 254 104 l 697 104 l 742 331 m 551 1068 l 378 1068 l 214 1236 l 329 1236 l 465 1151 l 601 1236 l 717 1236 l 551 1068 z "},"Ů":{"ha":1089,"x_min":33,"x_max":1057,"o":"m 811 890 l 694 919 l 694 1000 l 1057 1000 l 1057 919 l 940 890 l 940 338 q 838 74 940 164 q 533 -15 735 -15 q 249 76 347 -15 q 150 339 150 168 l 150 890 l 33 919 l 33 1000 l 447 1000 l 447 919 l 331 890 l 331 383 q 564 82 331 82 q 753 152 694 82 q 811 381 811 222 l 811 890 m 447 1144 q 484 1224 447 1197 q 572 1250 521 1250 q 662 1224 625 1250 q 699 1144 699 1197 q 662 1067 699 1093 q 572 1042 625 1042 q 484 1067 521 1042 q 447 1144 447 1093 m 531 1144 q 572 1103 531 1103 q 617 1144 617 1103 q 572 1189 617 1189 q 531 1144 531 1189 z "},"Ň":{"ha":1135,"x_min":57,"x_max":1090,"o":"m 174 890 l 57 919 l 57 1000 l 378 1000 l 842 267 l 842 890 l 725 919 l 725 1000 l 1090 1000 l 1090 919 l 974 890 l 974 0 l 819 0 l 306 797 l 306 110 l 422 81 l 422 0 l 57 0 l 57 81 l 174 110 l 174 890 m 653 1068 l 479 1068 l 315 1236 l 431 1236 l 567 1151 l 703 1236 l 818 1236 l 653 1068 z "},"Š":{"ha":851,"x_min":81,"x_max":789,"o":"m 447 -15 q 313 8 368 -15 q 215 81 258 31 l 200 0 l 81 0 l 81 336 l 207 336 q 228 218 211 267 q 275 139 246 169 q 344 95 304 108 q 433 82 383 82 q 560 115 513 82 q 607 218 607 147 q 589 292 607 261 q 538 347 571 322 q 458 392 504 371 q 357 436 413 413 q 241 490 292 463 q 156 551 190 517 q 103 628 121 585 q 85 733 85 672 q 167 942 85 868 q 389 1015 250 1015 q 613 938 526 1015 l 624 1000 l 743 1000 l 743 664 l 622 664 q 574 857 622 794 q 424 919 525 919 q 267 771 267 919 q 277 710 267 735 q 312 665 288 685 q 376 625 336 644 q 474 579 415 606 q 622 504 561 539 q 719 433 682 469 q 772 357 756 397 q 789 265 789 317 q 763 143 789 196 q 690 55 736 90 q 581 2 643 19 q 447 -15 518 -15 m 521 1068 l 347 1068 l 183 1236 l 299 1236 l 435 1151 l 571 1236 l 686 1236 l 521 1068 z "},"Ç":{"ha":969,"x_min":60,"x_max":928,"o":"m 478 -292 q 351 -253 404 -292 l 394 -194 q 476 -222 435 -222 q 535 -186 535 -222 q 517 -158 535 -168 q 472 -147 500 -147 q 439 -149 457 -147 q 408 -156 421 -151 l 385 -115 l 464 -12 q 200 97 299 0 q 96 265 132 164 q 60 490 60 365 q 106 744 60 631 q 235 926 151 857 q 514 1014 340 1014 q 591 1009 557 1014 q 654 992 625 1004 q 709 961 683 981 q 761 913 735 942 l 789 1000 l 907 1000 l 907 672 l 781 672 q 694 856 761 794 q 524 918 626 918 q 423 896 471 918 q 346 832 375 874 q 283 697 308 778 q 257 517 257 617 q 278 331 257 417 q 336 188 299 246 q 418 117 367 139 q 536 96 469 96 q 810 331 769 96 l 928 331 q 809 89 896 172 q 574 -10 722 6 l 536 -74 l 538 -78 q 646 -104 615 -78 q 676 -175 676 -131 q 660 -225 676 -203 q 617 -262 644 -247 q 554 -284 590 -276 q 478 -292 518 -292 z "},"Ş":{"ha":851,"x_min":81,"x_max":789,"o":"m 403 -292 q 276 -253 329 -292 l 319 -194 q 401 -222 360 -222 q 460 -186 460 -222 q 442 -158 460 -168 q 397 -147 425 -147 q 364 -149 382 -147 q 333 -156 346 -151 l 310 -115 l 389 -11 q 292 18 333 -4 q 215 81 250 40 l 200 0 l 81 0 l 81 336 l 207 336 q 228 218 211 267 q 275 139 246 169 q 344 95 304 108 q 433 82 383 82 q 560 115 513 82 q 607 218 607 147 q 589 292 607 261 q 538 347 571 322 q 458 392 504 371 q 357 436 413 413 q 241 490 292 463 q 156 551 190 517 q 103 628 121 585 q 85 733 85 672 q 167 942 85 868 q 389 1015 250 1015 q 613 938 526 1015 l 624 1000 l 743 1000 l 743 664 l 622 664 q 574 857 622 794 q 424 919 525 919 q 267 771 267 919 q 277 710 267 735 q 312 665 288 685 q 376 625 336 644 q 474 579 415 606 q 622 504 561 539 q 719 433 682 469 q 772 357 756 397 q 789 265 789 317 q 767 152 789 201 q 705 68 744 103 q 613 13 665 33 q 497 -12 560 -7 l 461 -74 l 463 -78 q 571 -104 540 -78 q 601 -175 601 -131 q 585 -225 601 -203 q 542 -262 569 -247 q 479 -284 515 -276 q 403 -292 443 -292 z "},"Ţ":{"ha":936,"x_min":33,"x_max":903,"o":"m 413 -292 q 286 -253 339 -292 l 329 -194 q 411 -222 369 -222 q 469 -186 469 -222 q 452 -158 469 -168 q 407 -147 435 -147 q 374 -149 392 -147 q 343 -156 356 -151 l 319 -115 l 408 0 l 231 0 l 231 81 l 378 114 l 378 896 l 165 896 l 122 688 l 33 688 l 33 1000 l 903 1000 l 903 688 l 814 688 l 769 896 l 558 896 l 558 114 l 706 81 l 706 0 l 515 0 l 471 -74 l 472 -78 q 581 -104 550 -78 q 611 -175 611 -131 q 595 -225 611 -203 q 552 -262 579 -247 q 489 -284 525 -276 q 413 -292 453 -292 z "},"Į":{"ha":542,"x_min":50,"x_max":492,"o":"m 242 -292 q 126 -259 164 -292 q 88 -174 88 -226 q 213 0 88 -79 l 50 0 l 50 81 l 181 110 l 181 890 l 50 919 l 50 1000 l 492 1000 l 492 919 l 361 890 l 361 110 l 492 81 l 492 0 l 317 0 q 258 -63 286 -25 q 229 -136 229 -101 q 248 -176 229 -161 q 299 -190 267 -190 q 342 -185 321 -190 q 381 -165 364 -179 l 414 -214 q 351 -271 390 -250 q 242 -292 313 -292 z "},"Ǫ":{"ha":1075,"x_min":60,"x_max":1015,"o":"m 504 -292 q 388 -259 426 -292 q 350 -174 350 -226 q 460 -10 350 -87 q 306 26 371 -3 q 193 103 240 54 q 96 266 132 165 q 60 489 60 367 q 96 717 60 611 q 199 893 132 822 q 338 985 257 956 q 538 1014 419 1014 q 734 987 650 1014 q 881 897 818 960 q 984 723 953 825 q 1015 511 1015 621 q 982 288 1015 394 q 876 107 949 182 q 745 19 821 49 q 565 -12 669 -10 q 515 -72 538 -39 q 492 -136 492 -106 q 510 -176 492 -161 q 561 -190 529 -190 q 605 -185 583 -190 q 643 -165 626 -179 l 676 -214 q 614 -271 653 -250 q 504 -292 575 -292 m 261 515 q 281 324 261 407 q 336 188 301 240 q 419 110 369 136 q 542 83 468 83 q 739 175 672 83 q 794 302 775 224 q 814 492 814 381 q 794 682 814 601 q 738 815 774 763 q 649 893 701 868 q 532 918 597 918 q 418 894 465 918 q 339 826 371 869 q 261 515 261 724 z "},"Ę":{"ha":969,"x_min":50,"x_max":904,"o":"m 471 -292 q 355 -259 393 -292 q 317 -174 317 -226 q 442 0 317 -79 l 50 0 l 50 81 l 181 110 l 181 890 l 50 919 l 50 1000 l 874 1000 l 874 706 l 760 706 l 719 899 l 361 899 l 361 565 l 551 565 l 575 697 l 688 697 l 688 331 l 575 331 l 551 461 l 361 461 l 361 104 l 743 104 l 782 310 l 904 310 l 904 0 l 546 0 q 487 -63 515 -25 q 458 -136 458 -101 q 477 -176 458 -161 q 528 -190 496 -190 q 572 -185 550 -190 q 610 -165 593 -179 l 643 -214 q 581 -271 619 -250 q 471 -292 542 -292 z "},"Ų":{"ha":1089,"x_min":33,"x_max":1057,"o":"m 542 -292 q 426 -259 464 -292 q 388 -174 388 -226 q 492 -14 388 -87 q 238 88 326 -3 q 150 339 150 178 l 150 890 l 33 919 l 33 1000 l 447 1000 l 447 919 l 331 890 l 331 383 q 564 82 331 82 q 753 152 694 82 q 811 381 811 222 l 811 890 l 694 919 l 694 1000 l 1057 1000 l 1057 919 l 940 890 l 940 338 q 855 91 940 179 q 603 -12 769 3 q 552 -72 575 -37 q 529 -136 529 -106 q 548 -176 529 -161 q 599 -190 567 -190 q 642 -185 621 -190 q 681 -165 664 -179 l 714 -214 q 651 -271 690 -250 q 542 -292 613 -292 z "},"Ą":{"ha":1011,"x_min":-18,"x_max":1025,"o":"m 801 -292 q 685 -259 724 -292 q 647 -174 647 -226 q 772 0 647 -79 l 601 0 l 601 81 l 715 110 l 644 325 l 306 325 l 233 110 l 349 81 l 349 0 l -18 0 l -18 81 l 96 110 l 421 1014 l 592 1014 l 914 110 l 1025 81 l 1025 0 l 876 0 q 817 -63 846 -25 q 789 -136 789 -101 q 808 -176 789 -161 q 858 -190 826 -190 q 902 -185 881 -190 q 940 -165 924 -179 l 974 -214 q 911 -271 950 -250 q 801 -292 872 -292 m 340 426 l 611 426 l 482 831 l 476 831 l 340 426 z "},"Ǻ":{"ha":1011,"x_min":-18,"x_max":1025,"o":"m 376 1054 q 414 1133 376 1107 q 508 1160 451 1160 q 547 1207 531 1189 q 576 1234 563 1225 q 602 1247 590 1243 q 629 1250 614 1250 q 668 1234 656 1250 q 681 1200 681 1218 q 665 1167 681 1181 q 601 1122 649 1153 q 628 1054 628 1096 q 592 978 628 1004 l 914 110 l 1025 81 l 1025 0 l 601 0 l 601 81 l 715 110 l 644 325 l 306 325 l 233 110 l 349 81 l 349 0 l -18 0 l -18 81 l 96 110 l 418 974 q 388 1006 399 986 q 376 1054 376 1026 m 340 426 l 611 426 l 482 796 l 476 796 l 340 426 m 460 1054 q 501 1013 460 1013 q 546 1054 546 1013 q 501 1099 546 1099 q 460 1054 460 1099 z "}}}
